<svg width="602" height="319" viewBox="0 0 602 319" fill="none" xmlns="http://www.w3.org/2000/svg">
<path d="M589.145 252.719C589.145 260.789 585.887 268.528 580.086 274.232C574.286 279.936 566.42 283.138 558.22 283.132H346.364C335.116 283.437 324.587 277.706 318.871 268.167C313.156 258.628 313.156 246.787 318.871 237.248C324.587 227.709 335.116 221.978 346.364 222.284H353.435C348.277 204.212 352.016 184.807 363.536 169.847C375.057 154.888 393.03 146.1 412.103 146.103H430.135C452.885 146.084 473.744 158.559 484.207 178.44C489.356 175.841 495.061 174.489 500.848 174.497H505.562C515.283 174.497 524.606 178.297 531.48 185.062C538.354 191.827 542.215 201.002 542.215 210.569V212.355C542.217 215.714 541.741 219.055 540.801 222.284H558.338C575.366 222.36 589.133 235.961 589.145 252.719Z" fill="#ADDDDD"/>
<path d="M599.555 244.046C599.555 252.116 596.296 259.855 590.496 265.559C584.696 271.263 576.83 274.464 568.63 274.458H356.773C345.526 274.764 334.997 269.033 329.281 259.494C323.566 249.955 323.566 238.114 329.281 228.575C334.997 219.036 345.526 213.305 356.773 213.61H363.845C358.687 195.539 362.426 176.133 373.946 161.174C385.467 146.214 403.44 137.427 422.513 137.429H440.545C463.295 137.41 484.154 149.885 494.617 169.767C499.766 167.167 505.471 165.815 511.258 165.823H515.972C525.693 165.823 535.016 169.624 541.89 176.389C548.764 183.153 552.625 192.329 552.625 201.896V203.682C552.626 207.04 552.15 210.382 551.211 213.61H568.748C585.776 213.687 599.543 227.287 599.555 244.046Z" fill="#E4F4F5" stroke="#ADDDDD" stroke-width="4"/>
<path fill-rule="evenodd" clip-rule="evenodd" d="M143.133 34.0142L237.608 78.0613L246.833 181.781L161.436 241.386L66.9606 197.338L58.7769 94.104L143.133 34.0142Z" stroke="#ADDDDD" stroke-width="3"/>
<path d="M377.743 51.9932L424.551 73.8166L429.121 125.205L386.811 154.736L340.003 132.913L335.948 81.765L377.743 51.9932Z" fill="#FFDBDB"/>
<path d="M274.995 252.719C274.995 260.789 271.736 268.528 265.935 274.232C260.135 279.936 252.269 283.138 244.069 283.132H32.2126C20.9648 283.437 10.4358 277.706 4.72034 268.167C-0.99516 258.628 -0.99516 246.787 4.72034 237.248C10.4358 227.709 20.9648 221.978 32.2126 222.284H39.284C34.1266 204.212 37.8649 184.807 49.3854 169.847C60.906 154.888 78.8795 146.1 97.9523 146.103H115.984C138.734 146.084 159.594 158.559 170.056 178.44C175.205 175.841 180.91 174.489 186.697 174.497H191.412C201.133 174.497 210.455 178.297 217.329 185.062C224.203 191.827 228.065 201.002 228.065 210.569V212.355C228.066 215.714 227.59 219.055 226.65 222.284H244.187C261.215 222.36 274.982 235.961 274.995 252.719Z" fill="#ADDDDD"/>
<path d="M285.404 244.046C285.404 252.116 282.146 259.855 276.345 265.559C270.545 271.263 262.679 274.464 254.479 274.458H42.6226C31.3747 274.764 20.8458 269.033 15.1303 259.494C9.41475 249.955 9.41475 238.114 15.1303 228.575C20.8458 219.036 31.3747 213.305 42.6226 213.61H49.6939C44.5365 195.539 48.2748 176.133 59.7954 161.174C71.3159 146.214 89.2894 137.427 108.362 137.429H126.394C149.144 137.41 170.003 149.885 180.466 169.767C185.615 167.167 191.32 165.815 197.107 165.823H201.821C211.542 165.823 220.865 169.624 227.739 176.389C234.613 183.153 238.474 192.329 238.474 201.896V203.682C238.476 207.04 238 210.382 237.06 213.61H254.597C271.625 213.687 285.392 227.287 285.404 244.046Z" fill="#E4F4F5" stroke="#ADDDDD" stroke-width="4"/>
<rect x="93.046" y="82.7213" width="126.489" height="105.626" rx="1" fill="#261A4C"/>
<rect x="96.8359" y="78.932" width="126.489" height="105.626" rx="1" fill="#ADDDDD"/>
<rect x="98.731" y="96.4575" width="123.646" height="85.7327" rx="1" fill="white"/>
<ellipse cx="202.48" cy="88.4052" rx="3.31618" ry="3.31563" fill="white"/>
<ellipse cx="212.428" cy="88.4052" rx="3.31618" ry="3.31563" fill="white"/>
<rect x="104.416" y="86.9842" width="50.2165" height="3.31563" rx="1" fill="white"/>
<rect x="104.416" y="113.509" width="21.792" height="1.89465" rx="0.947323" fill="#F56D6D"/>
<rect x="132.366" y="113.509" width="36.478" height="1.89465" rx="0.947323" fill="#F56D6D"/>
<rect x="117.207" y="125.351" width="55.9013" height="1.89465" rx="0.947323" fill="#F56D6D"/>
<rect x="168.844" y="162.296" width="42.6366" height="1.89465" rx="0.947323" fill="#F56D6D"/>
<rect x="136.156" y="150.455" width="42.6366" height="1.89464" rx="0.947319" fill="#F56D6D"/>
<rect x="156.527" y="137.192" width="42.6366" height="1.89464" rx="0.947321" fill="#F56D6D"/>
<rect x="126.208" y="137.192" width="26.0557" height="1.89464" rx="0.947321" fill="#F56D6D"/>
<rect x="202.954" y="132.929" width="9.4748" height="1.89465" rx="0.947323" fill="#F56D6D"/>
<rect x="188.742" y="125.351" width="22.7395" height="1.89465" rx="0.947323" fill="#F56D6D"/>
<rect x="199.638" y="118.72" width="11.8435" height="1.89464" rx="0.947321" fill="#F56D6D"/>
<path d="M484.205 276.841C484.205 288.02 479.678 298.741 471.621 306.642C463.564 314.544 452.638 318.979 441.249 318.97H146.972C131.349 319.394 116.724 311.455 108.784 298.241C100.845 285.027 100.845 268.623 108.784 255.409C116.724 242.195 131.349 234.256 146.972 234.68H156.795C149.631 209.646 154.823 182.764 170.826 162.041C186.828 141.318 211.794 129.145 238.287 129.148H263.334C294.934 129.122 323.909 146.404 338.442 173.945C345.594 170.343 353.519 168.471 361.557 168.482H368.105C381.608 168.482 394.558 173.746 404.105 183.117C413.653 192.489 419.017 205.199 419.017 218.452V220.926C419.019 225.578 418.358 230.208 417.053 234.68H441.412C465.065 234.786 484.187 253.626 484.205 276.841Z" fill="#ADDDDD"/>
<path d="M498.664 264.826C498.664 276.005 494.138 286.725 486.081 294.627C478.024 302.529 467.098 306.964 455.708 306.955H161.432C145.808 307.379 131.183 299.44 123.244 286.226C115.305 273.012 115.305 256.608 123.244 243.394C131.183 230.18 145.808 222.241 161.432 222.665H171.254C164.09 197.631 169.283 170.749 185.286 150.026C201.288 129.303 226.254 117.13 252.747 117.133H277.794C309.394 117.107 338.368 134.389 352.901 161.929C360.054 158.328 367.978 156.455 376.017 156.467H382.565C396.068 156.467 409.017 161.731 418.565 171.102C428.113 180.474 433.477 193.184 433.477 206.437V208.911C433.479 213.563 432.817 218.192 431.513 222.665H455.872C479.525 222.771 498.647 241.611 498.664 264.826Z" fill="white" stroke="#ADDDDD"/>
<path fill-rule="evenodd" clip-rule="evenodd" d="M301.422 231.107C307.438 227.787 311.522 221.307 311.522 213.857C311.522 203.026 302.89 194.246 292.241 194.246C281.592 194.246 272.959 203.026 272.959 213.857C272.959 221.307 277.044 227.787 283.059 231.107V252.75C283.059 255.511 285.298 257.75 288.059 257.75H296.422C299.184 257.75 301.422 255.511 301.422 252.75V231.107Z" fill="#ADDDDD"/>
<rect x="358.006" y="85.257" width="116.675" height="97.4313" rx="1" fill="#261A4C"/>
<rect x="361.501" y="81.7617" width="116.675" height="97.4313" rx="1" fill="#ADDDDD"/>
<rect x="363.25" y="97.9274" width="114.053" height="79.081" rx="1" fill="white"/>
<ellipse cx="458.949" cy="90.4999" rx="3.05889" ry="3.05838" fill="white"/>
<ellipse cx="468.126" cy="90.4999" rx="3.05889" ry="3.05838" fill="white"/>
<rect x="368.493" y="89.1892" width="46.3204" height="3.05838" rx="1" fill="white"/>
<rect x="368.493" y="113.656" width="20.1013" height="1.74765" rx="0.873823" fill="#F56D6D"/>
<rect x="394.275" y="113.656" width="33.6478" height="1.74765" rx="0.873823" fill="#F56D6D"/>
<rect x="380.292" y="124.579" width="51.5642" height="1.74764" rx="0.873821" fill="#F56D6D"/>
<rect x="296.391" y="124.579" width="51.5642" height="1.74764" rx="0.873821" fill="#F56D6D"/>
<rect x="286.34" y="124.579" width="8.30271" height="1.74764" rx="0.873821" fill="#F56D6D"/>
<rect x="317.803" y="135.065" width="51.5642" height="1.74765" rx="0.873823" fill="#F56D6D"/>
<rect x="306.005" y="135.065" width="10.4876" height="1.74765" rx="0.873823" fill="#F56D6D"/>
<rect x="330.913" y="145.551" width="17.0424" height="1.74764" rx="0.873821" fill="#F56D6D"/>
<rect x="427.923" y="158.658" width="39.3286" height="1.74765" rx="0.873825" fill="#F56D6D"/>
<rect x="397.771" y="147.735" width="39.3286" height="1.74765" rx="0.873825" fill="#F56D6D"/>
<rect x="416.562" y="135.502" width="39.3286" height="1.74765" rx="0.873823" fill="#F56D6D"/>
<rect x="388.594" y="135.502" width="24.0342" height="1.74765" rx="0.873823" fill="#F56D6D"/>
<rect x="459.386" y="131.57" width="8.7397" height="1.74765" rx="0.873823" fill="#F56D6D"/>
<rect x="446.276" y="124.579" width="20.9753" height="1.74764" rx="0.873821" fill="#F56D6D"/>
<rect x="456.327" y="118.462" width="10.9246" height="1.74765" rx="0.873823" fill="#F56D6D"/>
</svg>
