<svg width="322" height="118" viewBox="0 0 322 118" fill="none" xmlns="http://www.w3.org/2000/svg">
<mask id="mask0_910_5083" style="mask-type:alpha" maskUnits="userSpaceOnUse" x="0" y="0" width="322" height="118">
<rect width="322" height="118" fill="#F0F0F0"/>
</mask>
<g mask="url(#mask0_910_5083)">
<path d="M0 -37H326V83H0V-37Z" fill="#F0F0F0"/>
<g clip-path="url(#clip0_910_5083)">
<path d="M322.798 -56H-0.201904V127.567H322.798V-56Z" fill="#0C0C0C"/>
<path d="M135.34 -27.0991H18.8754V48.3298H135.34V-27.0991Z" fill="#6C6C6C"/>
<path d="M239.71 -33.4521C266.004 -28.2786 265.196 -8.73048 277.645 -1.78751C287.621 3.7736 299.616 16.1091 299.616 26.5573C299.616 49.0545 277.309 58.7612 273.406 71.299C270.142 81.7977 269.318 91.656 260.553 100.149C253.269 107.227 242.2 111.507 231.5 110.142C215.922 108.154 207.191 97.8575 190.957 96.5599C184.463 96.0375 174.201 95.751 167.91 94.1501C160.272 92.2121 152.197 90.0214 145.131 86.4488C130.462 79.034 118.686 62.4012 121.495 45.4314C124.254 28.7649 138.957 16.4462 153.677 10.0425C159.313 7.59897 165.251 5.57674 170.248 2.22322C175.934 -1.58529 180.072 -6.89363 184.968 -11.4605C200.798 -26.2227 219.219 -37.4797 239.71 -33.4521Z" fill="black" stroke="#EE0000" stroke-width="9" stroke-miterlimit="10"/>
<path d="M283.988 57.7837C287.806 53.7561 291.76 49.6106 294.872 44.5719C295.343 43.8135 295.781 43.0552 296.184 42.28H294.889C291.76 47.9423 287.302 52.6271 283.163 56.9917C278.638 61.7439 274.365 66.2434 272.851 71.1304C272.548 72.1247 272.262 73.1021 271.976 74.0963H273.154C273.406 73.22 273.658 72.3606 273.928 71.4843C275.374 66.85 279.546 62.4517 283.971 57.7837H283.988Z" fill="#43ADAF"/>
<path d="M133.507 24.2992C138.957 18.755 146.006 14.0028 153.896 10.5818C155.259 9.99202 156.672 9.40221 158.051 8.8461C160.878 7.68332 163.771 6.50369 166.513 5.08813H163.923C161.853 6.06554 159.717 6.94184 157.614 7.80128C156.234 8.3574 154.821 8.94721 153.442 9.55388C145.417 13.0422 138.251 17.8787 132.699 23.5241C127.047 29.2705 123.329 35.5731 121.579 42.3139H122.757C124.473 35.8933 128.073 29.8604 133.507 24.333V24.2992Z" fill="#F7823C"/>
<path d="M270.967 77.8376C268.881 85.7242 266.912 93.1896 260.15 99.745C256.533 103.25 252.024 106.031 247.112 107.783C241.981 109.603 236.614 110.227 231.567 109.586C224.199 108.643 218.244 105.761 212.49 102.964C206.131 99.8798 199.553 96.6779 190.991 96.0039C189.493 95.8859 187.777 95.7848 185.977 95.6668C180.123 95.2961 172.822 94.8411 168.044 93.6109C160.39 91.6561 152.332 89.4654 145.384 85.9433C139.782 83.1122 134.701 78.9835 130.697 74.0796H129.234C133.439 79.4385 138.856 83.9211 144.879 86.9544C151.928 90.527 160.053 92.7346 167.775 94.7063C172.67 95.9533 180.022 96.4083 185.927 96.7791C187.727 96.897 189.426 96.9981 190.923 97.1161C199.267 97.7733 205.744 100.925 212.019 103.958C217.857 106.789 223.896 109.721 231.45 110.682C232.796 110.85 234.158 110.935 235.538 110.935C244.723 110.935 254.177 107.126 260.991 100.52C267.972 93.7289 269.991 86.1287 272.127 78.0735C272.481 76.7422 272.834 75.3941 273.221 74.0291H272.043C271.69 75.2929 271.354 76.54 271.034 77.7702L270.967 77.8376Z" fill="#0499C5"/>
<path d="M127.232 69.2261C122.538 61.5922 120.738 53.3854 122.05 45.5324C122.235 44.4371 122.471 43.3585 122.757 42.28H121.579C121.31 43.2911 121.091 44.3191 120.923 45.3471C119.577 53.4865 121.411 61.9461 126.256 69.8328C127.164 71.2989 128.157 72.7145 129.217 74.0795H130.68C129.419 72.5291 128.258 70.9113 127.215 69.2261H127.232Z" fill="#43ADAF"/>
<path d="M291.928 10.9189C297.799 17.9461 299.027 23.305 299.027 26.5574C299.027 32.6409 297.379 37.7639 294.889 42.2802H296.184C298.876 37.2246 300.171 32.068 300.171 26.5574C300.171 21.0468 298.893 17.4911 292.803 10.1943C291.322 8.40795 289.674 6.68907 287.924 5.07129H286.208C288.294 6.90814 290.246 8.89666 291.945 10.9189H291.928Z" fill="#F7823C"/>
<path d="M170.568 2.71191C174.42 0.133575 177.616 -3.16939 180.695 -6.37124C182.192 -7.92161 183.757 -9.53939 185.355 -11.0392C194.305 -19.3977 202.649 -25.2622 210.825 -28.9696C215.518 -31.1098 220.229 -32.5253 224.821 -33.2162C226.975 -33.5364 229.111 -33.6881 231.265 -33.6881C233.418 -33.6881 236.85 -33.4185 239.592 -32.8792C255.91 -29.6774 261.664 -20.8133 266.727 -12.994C269.755 -8.32605 272.615 -3.91087 277.359 -1.26513C280.303 0.386353 283.365 2.59395 286.191 5.08802H287.907C284.778 2.1895 281.33 -0.355129 277.915 -2.25939C273.423 -4.75346 270.647 -9.05068 267.686 -13.6007C262.488 -21.6053 256.6 -30.6885 239.811 -33.9914C234.831 -34.9688 229.734 -35.0868 224.653 -34.3285C219.96 -33.6375 215.148 -32.1714 210.354 -29.9975C202.06 -26.2227 193.615 -20.2909 184.581 -11.8481C182.949 -10.3314 181.385 -8.71365 179.871 -7.14643C176.826 -3.99513 173.68 -0.742722 169.928 1.7682C168.044 3.03209 166.009 4.11061 163.922 5.08802H166.513C167.91 4.36339 169.272 3.58821 170.568 2.72876V2.71191Z" fill="#EE0000"/>
<path d="M162.661 59.3678L155.225 52.3406L155.932 51.5823L163.367 58.6095L162.661 59.3678Z" fill="#F7823C"/>
<path d="M159.952 55.6772H158.909V61.3058H159.952V55.6772Z" fill="#F7823C"/>
<path d="M163.098 60.1598C163.721 60.1598 164.225 59.6542 164.225 59.0307C164.225 58.4071 163.721 57.9016 163.098 57.9016C162.476 57.9016 161.971 58.4071 161.971 59.0307C161.971 59.6542 162.476 60.1598 163.098 60.1598Z" fill="#F7823C"/>
<path d="M159.397 56.8399C160.02 56.8399 160.524 56.3344 160.524 55.7109C160.524 55.0873 160.02 54.5818 159.397 54.5818C158.775 54.5818 158.27 55.0873 158.27 55.7109C158.27 56.3344 158.775 56.8399 159.397 56.8399Z" fill="#F7823C"/>
<path d="M159.397 62.6202C160.02 62.6202 160.524 62.1147 160.524 61.4911C160.524 60.8676 160.02 60.3621 159.397 60.3621C158.775 60.3621 158.27 60.8676 158.27 61.4911C158.27 62.1147 158.775 62.6202 159.397 62.6202Z" fill="#F7823C"/>
<path d="M160.676 70.3553C160.036 70.3553 159.38 70.1193 158.876 69.6306L149.842 60.5475C148.866 59.5701 148.866 57.9692 149.842 56.9749L158.909 47.8917C159.885 46.9143 161.483 46.9143 162.476 47.8917L171.543 56.9749C172.519 57.9523 172.502 59.5701 171.51 60.5643L162.442 69.6475C161.954 70.1362 161.315 70.3721 160.659 70.3721L160.676 70.3553ZM160.692 48.1951C160.306 48.1951 159.935 48.3299 159.649 48.6164L150.582 57.6995C150.01 58.2893 150.01 59.233 150.582 59.806L159.616 68.8892C160.205 69.4621 161.147 69.4621 161.719 68.8892L170.786 59.806C171.375 59.2162 171.392 58.2725 170.82 57.6995L161.752 48.6164C161.466 48.3299 161.079 48.1951 160.692 48.1951Z" fill="#F7823C"/>
<path d="M171.762 21.4848L160.979 15.2497C160.81 15.1486 160.592 15.1486 160.423 15.2497L149.64 21.4848C149.472 21.586 149.371 21.7713 149.371 21.9736V34.4439C149.371 34.6461 149.472 34.8315 149.64 34.9326L160.423 41.1678C160.592 41.2689 160.81 41.2689 160.979 41.1678L171.762 34.9326C171.93 34.8315 172.031 34.6461 172.031 34.4439V21.9736C172.031 21.7713 171.93 21.586 171.762 21.4848ZM170.921 34.1069L160.709 40.0219L150.498 34.1069V22.2937L160.709 16.3787L170.921 22.2937V34.1069Z" fill="#EE0000"/>
<path d="M159.599 30.6859C159.532 30.9893 159.734 31.2757 160.02 31.3431C160.322 31.4105 160.608 31.2083 160.676 30.9218L161.769 25.7315C161.803 25.4281 161.584 25.1585 161.281 25.1248C160.995 25.0911 160.743 25.2765 160.676 25.5461L159.582 30.7028L159.599 30.6859Z" fill="#EE0000"/>
<path d="M163.367 30.8714C163.586 31.0905 163.939 31.0905 164.141 30.8714L166.412 28.5964C166.513 28.4953 166.581 28.3437 166.581 28.192C166.581 28.0403 166.53 27.9055 166.412 27.8044L164.141 25.5294C163.637 25.007 162.829 25.8159 163.367 26.3046L165.252 28.192L163.367 30.0625C163.149 30.2816 163.149 30.6186 163.367 30.8377V30.8714Z" fill="#EE0000"/>
<path d="M158.034 25.5293C157.833 25.3102 157.479 25.3102 157.261 25.5293L154.99 27.8043C154.889 27.9054 154.821 28.0571 154.821 28.1919C154.821 28.3436 154.872 28.4784 154.99 28.5963L157.261 30.8713C157.496 31.0567 157.849 31.023 158.051 30.7702C158.22 30.568 158.203 30.2815 158.051 30.0793L156.167 28.2087L158.051 26.3045C158.27 26.1023 158.27 25.7484 158.051 25.5293H158.034Z" fill="#EE0000"/>
<path d="M182.209 50.2677C182.444 50.2677 182.63 50.0487 182.613 49.8127C182.613 49.5768 182.394 49.3914 182.159 49.4083C182.074 49.4083 182.007 49.442 181.94 49.4757C181.755 49.6274 181.704 49.897 181.856 50.0992C181.94 50.2003 182.058 50.2677 182.209 50.2677Z" fill="#0499C5"/>
<path d="M183.975 49.1894C184.211 49.1894 184.396 48.9703 184.379 48.7344C184.379 48.4984 184.161 48.3131 183.925 48.3299C183.875 48.3299 183.824 48.3299 183.774 48.3636C183.555 48.4647 183.454 48.7175 183.538 48.9366C183.605 49.1051 183.774 49.2062 183.959 49.2062L183.975 49.1894Z" fill="#0499C5"/>
<path d="M181.099 51.5317C181.233 51.3295 181.166 51.0599 180.964 50.9419C180.779 50.8239 180.527 50.8576 180.392 51.0262C180.056 51.4812 180.762 52.0036 181.082 51.5317H181.099Z" fill="#0499C5"/>
<path d="M179.854 53.5877C180.089 53.6382 180.308 53.4697 180.359 53.2338C180.409 52.9979 180.241 52.7788 180.005 52.7282C179.77 52.6777 179.551 52.8462 179.501 53.0821C179.45 53.318 179.618 53.5371 179.854 53.5877Z" fill="#0499C5"/>
<path d="M180.308 61.4574C180.274 61.2214 180.056 61.0529 179.82 61.0698C179.618 61.0866 179.467 61.2551 179.433 61.4574C179.467 61.6933 179.686 61.8618 179.921 61.8449C180.123 61.8281 180.274 61.6596 180.308 61.4574Z" fill="#0499C5"/>
<path d="M185.893 48.4647C186.129 48.4647 186.331 48.2625 186.314 48.0265C186.314 47.7906 186.112 47.5884 185.876 47.6052C185.843 47.6052 185.809 47.6052 185.775 47.6052C185.54 47.6726 185.405 47.9086 185.473 48.1276C185.523 48.313 185.691 48.4478 185.893 48.4478V48.4647Z" fill="#0499C5"/>
<path d="M179.871 59.8228C180.106 59.7891 180.274 59.5701 180.258 59.3341C180.241 59.1319 180.072 58.9802 179.871 58.9465C179.635 58.9802 179.467 59.1993 179.484 59.4352C179.501 59.6375 179.669 59.7891 179.871 59.8228Z" fill="#0499C5"/>
<path d="M179.871 55.6773C180.106 55.6436 180.274 55.4245 180.258 55.1886C180.241 54.9864 180.072 54.8347 179.871 54.801C179.635 54.8347 179.467 55.0538 179.484 55.2897C179.501 55.492 179.669 55.6436 179.871 55.6773Z" fill="#0499C5"/>
<path d="M179.871 56.8738C179.635 56.9075 179.467 57.1266 179.484 57.3625C179.501 57.5647 179.669 57.7164 179.871 57.7501C180.106 57.7164 180.274 57.4973 180.258 57.2614C180.241 57.0591 180.072 56.9075 179.871 56.8738Z" fill="#0499C5"/>
<path d="M179.887 63.0922C179.669 63.1764 179.551 63.4292 179.635 63.6651C179.702 63.8505 179.904 63.9685 180.106 63.9348C180.325 63.8505 180.443 63.5977 180.358 63.3618C180.291 63.1764 180.089 63.0585 179.887 63.0922Z" fill="#0499C5"/>
<path d="M197.753 49.4589C197.972 49.56 198.241 49.4589 198.342 49.2567C198.443 49.0544 198.376 48.8185 198.174 48.7006C197.955 48.5994 197.686 48.7006 197.585 48.9028C197.484 49.105 197.552 49.3409 197.753 49.4589Z" fill="#0499C5"/>
<path d="M187.912 48.0097C188.147 48.0097 188.333 47.7906 188.316 47.5547C188.316 47.3188 188.097 47.1334 187.861 47.1502C187.626 47.1502 187.441 47.3693 187.458 47.6052C187.458 47.8412 187.676 48.0265 187.912 48.0097Z" fill="#0499C5"/>
<path d="M201.017 53.8573C201.051 54.0932 201.269 54.2617 201.505 54.2449C201.707 54.228 201.858 54.0595 201.892 53.8573C201.858 53.6213 201.64 53.4528 201.404 53.4697C201.202 53.4865 201.051 53.655 201.017 53.8573Z" fill="#0499C5"/>
<path d="M195.937 48.65C196.155 48.7343 196.408 48.6163 196.492 48.3804C196.576 48.1613 196.458 47.9085 196.223 47.8243C196.004 47.74 195.751 47.858 195.667 48.0939C195.583 48.313 195.701 48.5658 195.937 48.65Z" fill="#0499C5"/>
<path d="M199.654 50.7059C199.89 50.7059 200.092 50.5037 200.092 50.2678C200.092 50.1498 200.041 50.0319 199.957 49.9476C199.318 49.4589 198.864 50.6385 199.671 50.7059H199.654Z" fill="#0499C5"/>
<path d="M189.964 47.8243C190.2 47.7906 190.368 47.5715 190.351 47.3356C190.334 47.1334 190.166 46.9817 189.964 46.948C189.729 46.9817 189.561 47.2008 189.577 47.4367C189.594 47.6389 189.762 47.7906 189.964 47.8243Z" fill="#0499C5"/>
<path d="M194.002 48.1275C194.237 48.1275 194.439 47.9421 194.439 47.6894C194.439 47.504 194.322 47.3186 194.136 47.2681C193.901 47.2681 193.699 47.4534 193.699 47.7062C193.699 47.8916 193.817 48.077 194.002 48.1275Z" fill="#0499C5"/>
<path d="M192 47.858C192.235 47.8074 192.387 47.5715 192.32 47.3356C192.286 47.1839 192.185 47.0659 192.034 47.0154C191.798 47.0659 191.647 47.3019 191.714 47.5378C191.748 47.6895 191.849 47.8074 192 47.858Z" fill="#0499C5"/>
<path d="M201.438 55.4919C201.202 55.5256 201.034 55.7447 201.051 55.9807C201.068 56.1829 201.236 56.3345 201.438 56.3682C201.673 56.3345 201.841 56.1155 201.825 55.8795C201.808 55.6773 201.64 55.5256 201.438 55.4919Z" fill="#0499C5"/>
<path d="M201.269 63.7493C201.051 63.6482 200.798 63.7493 200.697 63.9684C200.596 64.1875 200.697 64.4402 200.916 64.5413C201.135 64.6425 201.387 64.5413 201.488 64.3223C201.589 64.1032 201.488 63.8504 201.269 63.7493Z" fill="#0499C5"/>
<path d="M180.678 64.9964C180.493 65.1481 180.459 65.4345 180.611 65.6199C180.762 65.8053 181.048 65.839 181.233 65.6873C181.418 65.5356 181.452 65.2492 181.301 65.0638C181.149 64.8784 180.863 64.8447 180.678 64.9964Z" fill="#0499C5"/>
<path d="M199.587 65.5356C199.419 65.7041 199.419 65.9738 199.587 66.1423C199.755 66.3108 200.025 66.3108 200.193 66.1423C200.596 65.7547 199.974 65.1312 199.587 65.5356Z" fill="#0499C5"/>
<path d="M198.039 66.7321C197.838 66.8501 197.77 67.1197 197.888 67.3219C198.006 67.5242 198.275 67.5916 198.477 67.4736C198.679 67.3556 198.746 67.086 198.628 66.8838C198.51 66.6816 198.241 66.6142 198.039 66.7321Z" fill="#0499C5"/>
<path d="M201.438 61.7102C201.202 61.7439 201.034 61.963 201.051 62.1989C201.068 62.4011 201.236 62.5528 201.438 62.5865C201.673 62.5528 201.841 62.3337 201.825 62.0978C201.808 61.8956 201.64 61.7439 201.438 61.7102Z" fill="#0499C5"/>
<path d="M201.438 57.5647C201.202 57.5984 201.034 57.8175 201.051 58.0534C201.068 58.2556 201.236 58.4073 201.438 58.441C201.673 58.4073 201.841 58.1882 201.825 57.9523C201.808 57.7501 201.64 57.5984 201.438 57.5647Z" fill="#0499C5"/>
<path d="M201.438 59.6375C201.202 59.6712 201.034 59.8902 201.051 60.1261C201.068 60.3284 201.236 60.48 201.438 60.5137C201.673 60.48 201.841 60.261 201.825 60.025C201.808 59.8228 201.64 59.6712 201.438 59.6375Z" fill="#0499C5"/>
<path d="M196.222 67.5747C196.004 67.6589 195.886 67.9117 195.97 68.1308C196.054 68.3499 196.307 68.4678 196.525 68.3836C196.744 68.2993 196.862 68.0465 196.778 67.8275C196.694 67.6084 196.441 67.4904 196.222 67.5747Z" fill="#0499C5"/>
<path d="M200.933 52.3068C201.168 52.3068 201.354 52.0877 201.337 51.8518C201.337 51.6159 201.118 51.4305 200.882 51.4474C200.832 51.4474 200.782 51.4642 200.731 51.4811C200.512 51.599 200.445 51.8687 200.563 52.0709C200.647 52.2057 200.782 52.2899 200.933 52.2899V52.3068Z" fill="#0499C5"/>
<path d="M184.463 67.3218C184.245 67.2375 183.992 67.3555 183.891 67.5745C183.807 67.7768 183.891 68.0127 184.093 68.1138C184.312 68.1981 184.564 68.0801 184.665 67.861C184.749 67.6588 184.665 67.4229 184.463 67.3218Z" fill="#0499C5"/>
<path d="M188.316 68.3835C188.08 68.3835 187.878 68.5689 187.861 68.8217C187.861 69.0239 187.996 69.2093 188.198 69.2598C188.433 69.2598 188.635 69.0745 188.652 68.8217C188.652 68.6195 188.518 68.4341 188.316 68.3835Z" fill="#0499C5"/>
<path d="M186.347 67.979C186.112 67.9453 185.876 68.097 185.843 68.3329C185.809 68.5351 185.927 68.7374 186.112 68.8216C186.347 68.8553 186.583 68.7037 186.617 68.4677C186.65 68.2655 186.533 68.0633 186.347 67.979Z" fill="#0499C5"/>
<path d="M182.125 66.4793C182.024 66.6984 182.108 66.9512 182.31 67.0523C182.478 67.1365 182.68 67.1028 182.815 66.968C182.916 66.749 182.831 66.4962 182.63 66.3951C182.461 66.3108 182.26 66.3445 182.125 66.4793Z" fill="#0499C5"/>
<path d="M192.336 68.4678C192.101 68.5352 191.966 68.7711 192.017 69.007C192.067 69.1924 192.219 69.3272 192.421 69.3441C192.656 69.2767 192.791 69.0407 192.74 68.8048C192.69 68.6194 192.538 68.4846 192.336 68.4678Z" fill="#0499C5"/>
<path d="M190.318 68.552C190.082 68.5857 189.914 68.8048 189.931 69.0407C189.948 69.2429 190.116 69.3946 190.318 69.4283C190.553 69.3946 190.721 69.1755 190.705 68.9396C190.688 68.7374 190.52 68.5857 190.318 68.552Z" fill="#0499C5"/>
<path d="M194.322 68.1477C194.086 68.2151 193.951 68.451 194.002 68.687C194.052 68.906 194.271 69.0577 194.507 69.0071C194.742 68.9397 194.877 68.7038 194.826 68.4679C194.776 68.2488 194.557 68.0971 194.322 68.1477Z" fill="#0499C5"/>
<path d="M200.159 59.5701V53.9922C200.159 51.0094 195.987 48.667 190.654 48.667C185.321 48.667 181.149 51.0094 181.149 53.9922V62.3507C181.149 65.3335 185.321 67.6759 190.654 67.6759C195.987 67.6759 200.159 65.3335 200.159 62.3507V59.5701ZM199.251 62.3507C199.251 64.7437 195.314 66.7827 190.654 66.7827C185.994 66.7827 182.058 64.7605 182.058 62.3507V61.862C183.555 63.682 186.802 64.8953 190.654 64.8953C194.507 64.8953 197.737 63.6651 199.251 61.862V62.3507ZM199.251 59.5701C199.251 61.9631 195.314 64.0022 190.654 64.0022C185.994 64.0022 182.058 61.98 182.058 59.5701V59.0814C183.555 60.9014 186.802 62.1148 190.654 62.1148C194.507 62.1148 197.737 60.8846 199.251 59.0814V59.5701ZM199.251 56.7727C199.251 59.1657 195.314 61.2048 190.654 61.2048C185.994 61.2048 182.058 59.1826 182.058 56.7727V56.284C183.555 58.104 186.802 59.3174 190.654 59.3174C194.507 59.3174 197.737 58.0872 199.251 56.284V56.7727ZM190.654 58.4242C185.994 58.4242 182.058 56.402 182.058 53.9922C182.058 51.5824 185.994 49.5601 190.654 49.5601C195.314 49.5601 199.251 51.5824 199.251 53.9922C199.251 56.402 195.314 58.4242 190.654 58.4242Z" fill="#0499C5"/>
<path d="M186.751 33.2137L191.714 28.2424C191.882 28.0739 191.882 27.7874 191.714 27.6189L186.751 22.6476C186.28 22.1757 185.675 22.8161 186.129 23.2711L190.772 27.9222L186.129 32.5733C185.658 33.0452 186.297 33.6687 186.751 33.1968V33.2137Z" fill="#43ADAF"/>
<path d="M191.663 32.8429C191.663 33.0957 191.865 33.2811 192.101 33.2811H197.064C197.316 33.2811 197.501 33.0789 197.501 32.8429C197.501 32.607 197.299 32.4048 197.064 32.4048H192.101C191.849 32.4048 191.663 32.607 191.663 32.8429Z" fill="#43ADAF"/>
<path d="M200.613 18.2661H182.192C181.94 18.2661 181.755 18.4683 181.755 18.7043V37.157C181.755 37.4098 181.957 37.5952 182.192 37.5952H200.613C200.866 37.5952 201.051 37.393 201.051 37.157V18.7043C201.051 18.4515 200.849 18.2661 200.613 18.2661ZM200.159 36.7189H182.613V19.1424H200.159V36.7189Z" fill="#43ADAF"/>
<path d="M223.24 18.9402L204.87 78.8148L149.657 85.8926L149.926 91.42L222.399 98.0596L280.909 86.1454L281.296 81.6122L284.442 81.7807L304.798 21.9398L303.385 18.9402H223.24Z" fill="#5F0000"/>
<path d="M227.16 24.1306L296.773 24.4171L279.866 76.5062L211.212 74.6019L227.16 24.1306Z" fill="#CECECE"/>
<path d="M280.758 33.9382H237.22L235.605 39.0443H279.109L280.758 33.9382Z" fill="#EE0000"/>
<path d="M235.605 39.0444L227.227 65.5018L270.176 66.6983L279.109 39.0444H235.605Z" fill="white"/>
<path d="M272.279 37.5447C272.864 37.5447 273.339 37.0694 273.339 36.4831C273.339 35.8967 272.864 35.4214 272.279 35.4214C271.694 35.4214 271.219 35.8967 271.219 36.4831C271.219 37.0694 271.694 37.5447 272.279 37.5447Z" fill="white"/>
<path d="M275.829 37.5447C276.414 37.5447 276.888 37.0694 276.888 36.4831C276.888 35.8967 276.414 35.4214 275.829 35.4214C275.243 35.4214 274.769 35.8967 274.769 36.4831C274.769 37.0694 275.243 37.5447 275.829 37.5447Z" fill="white"/>
<path d="M239.289 36.6514H267.703" stroke="white" stroke-width="3" stroke-miterlimit="10" stroke-linecap="round"/>
<path d="M235.605 39.0444L234.68 41.943H278.133L279.109 39.0444H235.605Z" fill="black"/>
<path d="M245.665 41.9429L238.583 65.8219L227.227 65.5018L234.68 41.9429H245.665Z" fill="#4D4D4D"/>
<path d="M221.305 92.6839L281.296 81.7808L204.584 79.1013L149.522 86.4824L221.305 92.6839Z" fill="#EE0000"/>
<path d="M303.385 18.9402L281.128 81.6122L284.089 82.1346L304.798 21.9398L303.385 18.9402Z" fill="#EE0000"/>
<path d="M248.121 52.7619C249.747 52.7619 251.065 51.4416 251.065 49.8128C251.065 48.1841 249.747 46.8638 248.121 46.8638C246.495 46.8638 245.177 48.1841 245.177 49.8128C245.177 51.4416 246.495 52.7619 248.121 52.7619Z" stroke="#0499C5" stroke-width="3" stroke-miterlimit="10"/>
<path d="M262.37 52.7619C263.996 52.7619 265.314 51.4416 265.314 49.8128C265.314 48.1841 263.996 46.8638 262.37 46.8638C260.744 46.8638 259.426 48.1841 259.426 49.8128C259.426 51.4416 260.744 52.7619 262.37 52.7619Z" stroke="#0499C5" stroke-width="3" stroke-miterlimit="10"/>
<path d="M253.959 60.9013C255.585 60.9013 256.903 59.581 256.903 57.9522C256.903 56.3235 255.585 55.0032 253.959 55.0032C252.333 55.0032 251.015 56.3235 251.015 57.9522C251.015 59.581 252.333 60.9013 253.959 60.9013Z" stroke="#0499C5" stroke-width="3" stroke-miterlimit="10"/>
<path d="M265.752 61.4575C267.378 61.4575 268.696 60.1371 268.696 58.5084C268.696 56.8797 267.378 55.5593 265.752 55.5593C264.126 55.5593 262.808 56.8797 262.808 58.5084C262.808 60.1371 264.126 61.4575 265.752 61.4575Z" stroke="#0499C5" stroke-width="3" stroke-miterlimit="10"/>
<path d="M235.605 44.3359H242.872" stroke="white" stroke-width="3" stroke-miterlimit="10" stroke-linecap="round"/>
<path d="M234.125 48.9871H241.409" stroke="white" stroke-width="3" stroke-miterlimit="10" stroke-linecap="round"/>
<path d="M232.644 53.6382H239.928" stroke="white" stroke-width="3" stroke-miterlimit="10" stroke-linecap="round"/>
<path d="M231.181 58.2893H238.465" stroke="white" stroke-width="3" stroke-miterlimit="10" stroke-linecap="round"/>
<path d="M229.7 62.9404H236.984" stroke="white" stroke-width="3" stroke-miterlimit="10" stroke-linecap="round"/>
<path d="M248.374 50.9925H247.987V48.6837L247.499 48.886V48.5489L248.121 48.2793H248.357V50.9925H248.374Z" fill="black"/>
<path d="M261.462 50.9081L262.505 49.9307C262.824 49.6274 262.925 49.4757 262.925 49.2566C262.925 49.0376 262.69 48.7679 262.353 48.7679C262.017 48.7679 261.882 48.8691 261.613 49.105L261.395 48.8353C261.697 48.5657 262.017 48.4309 262.353 48.4309C262.909 48.4309 263.279 48.7679 263.279 49.2229C263.279 49.6779 263.161 49.7453 262.74 50.1329L261.983 50.8407H263.329V51.1778H261.462V50.8913V50.9081Z" fill="black"/>
<path d="M253.959 59.334C253.555 59.334 253.202 59.1992 252.933 58.9296L253.185 58.6937C253.42 58.9127 253.639 58.997 253.942 58.997C254.245 58.997 254.581 58.8116 254.581 58.5251C254.581 58.2387 254.346 58.1038 253.976 58.1038H253.74V57.7837H253.942C254.262 57.7837 254.497 57.5814 254.497 57.3118C254.497 57.0422 254.262 56.8737 253.942 56.8737C253.622 56.8737 253.471 56.9579 253.219 57.1938L252.966 56.9411C253.235 56.6714 253.572 56.5198 253.959 56.5198C254.497 56.5198 254.884 56.8231 254.884 57.2613C254.884 57.6994 254.716 57.7668 254.447 57.8848C254.783 57.9859 254.985 58.2218 254.985 58.5083C254.985 58.9633 254.564 59.3003 253.959 59.3003V59.334Z" fill="black"/>
<path d="M266.559 58.8454H266.896V59.1824H266.559V59.8733H266.172V59.1824H264.608V58.8622L266.122 57.1096H266.559V58.8285V58.8454ZM266.172 58.8454V57.5815L265.079 58.8454H266.172Z" fill="black"/>
<path d="M255.136 5.05425V13.3959L262.353 17.5583L269.554 13.3959V5.05425L262.353 0.891846L255.136 5.05425Z" fill="#EE0000"/>
<mask id="mask1_910_5083" style="mask-type:luminance" maskUnits="userSpaceOnUse" x="255" y="0" width="15" height="18">
<path d="M255.136 5.05425V13.3959L262.353 17.5583L269.554 13.3959V5.05425L262.353 0.891846L255.136 5.05425Z" fill="white"/>
</mask>
<g mask="url(#mask1_910_5083)">
<path d="M269.554 5.0542L262.337 9.23346" stroke="white" stroke-width="3.9" stroke-linecap="round" stroke-linejoin="round"/>
<path d="M262.337 9.2334V18.9064" stroke="white" stroke-width="3.9" stroke-linecap="round" stroke-linejoin="round"/>
<path d="M255.136 5.0542L262.337 9.23346" stroke="white" stroke-width="3.9" stroke-linecap="round" stroke-linejoin="round"/>
</g>
<mask id="mask2_910_5083" style="mask-type:luminance" maskUnits="userSpaceOnUse" x="255" y="0" width="15" height="18">
<path d="M255.136 5.05425V13.3959L262.353 17.5583L269.554 13.3959V5.05425L262.353 0.891846L255.136 5.05425Z" fill="white"/>
</mask>
<g mask="url(#mask2_910_5083)">
<path d="M268.174 -1.46736C268.612 -0.995511 268.797 -0.0686624 268.982 0.504301C269.369 1.73449 269.705 3.01523 269.722 4.31282C269.739 6.09912 268.595 7.76745 267.468 9.0819C266.391 10.3289 264.961 11.2558 263.968 12.5871C263.783 12.823 263.632 13.0758 263.481 13.3454C262.606 14.9463 262.353 16.8337 262.522 18.6369C262.522 18.7212 262.538 19.2604 262.69 19.2604L272.464 19.5975L273.204 -1.28199C273.204 -1.28199 268.006 -1.66959 268.174 -1.48422V-1.46736Z" fill="#5F0000"/>
</g>
<path d="M262.353 24.2992V19.3953" stroke="#EE0000" stroke-width="3" stroke-linecap="round" stroke-linejoin="round"/>
<path d="M259.14 21.6196V29.9781" stroke="#EE0000" stroke-width="3" stroke-linecap="round" stroke-linejoin="round"/>
<path d="M265.55 29.8434V22.7151" stroke="#EE0000" stroke-width="3" stroke-linecap="round" stroke-linejoin="round"/>
<path d="M262.353 34.6124V26.9785" stroke="#EE0000" stroke-width="3" stroke-linecap="round" stroke-linejoin="round"/>
<path d="M283.937 31.1409V26.2539" stroke="#EE0000" stroke-width="3" stroke-linecap="round" stroke-linejoin="round"/>
<path d="M280.741 28.4783V36.8199" stroke="#EE0000" stroke-width="3" stroke-linecap="round" stroke-linejoin="round"/>
<path d="M287.134 36.7021V29.5569" stroke="#EE0000" stroke-width="3" stroke-linecap="round" stroke-linejoin="round"/>
<path d="M283.937 41.4711V33.8203" stroke="#EE0000" stroke-width="3" stroke-linecap="round" stroke-linejoin="round"/>
<path d="M289.337 11.4748V17.7268L283.937 20.8444L278.537 17.7268V11.4748L283.937 8.35718L289.337 11.4748Z" fill="#EE0000"/>
<mask id="mask3_910_5083" style="mask-type:luminance" maskUnits="userSpaceOnUse" x="278" y="8" width="12" height="13">
<path d="M289.337 11.4748V17.7268L283.937 20.8444L278.537 17.7268V11.4748L283.937 8.35718L289.337 11.4748Z" fill="white"/>
</mask>
<g mask="url(#mask3_910_5083)">
<path d="M278.537 11.4749L283.937 14.6093" stroke="white" stroke-width="3.9" stroke-linecap="round" stroke-linejoin="round"/>
<path d="M283.937 14.6094V21.8557" stroke="white" stroke-width="3.9" stroke-linecap="round" stroke-linejoin="round"/>
<path d="M289.337 11.4749L283.937 14.6093" stroke="white" stroke-width="3.9" stroke-linecap="round" stroke-linejoin="round"/>
</g>
<mask id="mask4_910_5083" style="mask-type:luminance" maskUnits="userSpaceOnUse" x="278" y="8" width="12" height="13">
<path d="M278.537 11.4748V17.7268L283.937 20.8444L289.337 17.7268V11.4748L283.937 8.35718L278.537 11.4748Z" fill="white"/>
</mask>
<g mask="url(#mask4_910_5083)">
<path d="M288.311 6.58783C288.631 6.94172 288.782 7.63265 288.917 8.0708C289.22 8.9808 289.455 9.9582 289.472 10.9188C289.489 12.2501 288.631 13.5139 287.773 14.4913C286.965 15.4351 285.889 16.126 285.149 17.1202C285.014 17.3056 284.896 17.491 284.778 17.6932C284.122 18.8897 283.937 20.3052 284.055 21.6534C284.055 21.7208 284.055 22.1252 284.173 22.1252L291.491 22.378L292.046 6.7395C292.046 6.7395 288.143 6.45302 288.278 6.58783H288.311Z" fill="#5F0000"/>
</g>
<path d="M260.066 85.2692C260.066 85.2692 272.06 81.9494 268.241 73.8942C268.241 73.8942 266.727 69.5465 263.632 68.2826C262.791 68.114 261.933 68.0298 261.058 68.0298C255.91 68.0298 251.435 70.962 249.215 75.2592C248.289 74.9728 247.314 74.8211 246.304 74.8211C240.736 74.8211 236.227 79.3374 236.227 84.9153C236.227 90.4933 240.736 95.0096 246.304 95.0096H254.918C257.424 92.8526 259.527 89.735 260.066 85.2692Z" fill="#8B8B8B"/>
<path d="M283.163 81.2752C282.406 81.2752 281.666 81.4101 280.993 81.6628C279.563 79.0171 276.821 77.1802 273.642 77.0117C272.111 72.5797 268.326 69.1925 263.632 68.2656C266.727 69.5295 268.241 73.8773 268.241 73.8773C272.06 81.9325 260.066 85.2523 260.066 85.2523C259.527 89.718 257.424 92.8356 254.918 94.9927H282.625C287.319 94.9927 289.337 90.864 289.337 87.443C289.337 84.0221 286.578 81.2584 283.163 81.2584V81.2752Z" fill="#6C6C6C"/>
<path d="M88.7914 58.8284V67.1532L81.5744 71.3325L74.3741 67.1532V58.8284L81.5744 54.6492L88.7914 58.8284Z" fill="#EE0000"/>
<mask id="mask5_910_5083" style="mask-type:luminance" maskUnits="userSpaceOnUse" x="74" y="54" width="15" height="18">
<path d="M88.7914 58.8284V67.1532L81.5744 71.3325L74.3741 67.1532V58.8284L81.5744 54.6492L88.7914 58.8284Z" fill="white"/>
</mask>
<g mask="url(#mask5_910_5083)">
<path d="M74.3741 58.8284L81.5912 62.9908" stroke="white" stroke-width="3.9" stroke-linecap="round" stroke-linejoin="round"/>
<path d="M81.5912 62.9907V72.6637" stroke="white" stroke-width="3.9" stroke-linecap="round" stroke-linejoin="round"/>
<path d="M88.7914 58.8284L81.5912 62.9908" stroke="white" stroke-width="3.9" stroke-linecap="round" stroke-linejoin="round"/>
</g>
<mask id="mask6_910_5083" style="mask-type:luminance" maskUnits="userSpaceOnUse" x="74" y="54" width="15" height="18">
<path d="M88.7914 58.8284V67.1532L81.5744 71.3325L74.3741 67.1532V58.8284L81.5744 54.6492L88.7914 58.8284Z" fill="white"/>
</mask>
<g mask="url(#mask6_910_5083)">
<path d="M75.7368 52.29C75.2994 52.7618 75.1144 53.6887 74.9293 54.2616C74.5424 55.4918 74.206 56.7726 74.1891 58.0701C74.1723 59.8564 75.3163 61.5248 76.4434 62.8392C77.5201 64.0863 78.95 65.0131 79.9426 66.3444C80.1276 66.5803 80.279 66.8331 80.4304 67.1027C81.3052 68.7037 81.5576 70.5911 81.3893 72.3942C81.3893 72.4785 81.3725 73.0177 81.2211 73.0177L71.447 73.3548L70.7068 52.4753C70.7068 52.4753 75.9051 52.0877 75.7368 52.2731V52.29Z" fill="#5F0000"/>
</g>
<path d="M98.5822 62.3337H93.6868" stroke="white" stroke-width="3" stroke-linecap="round" stroke-linejoin="round"/>
<path d="M95.9242 65.5356H104.252" stroke="white" stroke-width="3" stroke-linecap="round" stroke-linejoin="round"/>
<path d="M104.134 59.1318H97.0009" stroke="white" stroke-width="3" stroke-linecap="round" stroke-linejoin="round"/>
<path d="M108.895 62.3337H101.257" stroke="white" stroke-width="3" stroke-linecap="round" stroke-linejoin="round"/>
<path d="M108.306 84.2917V96.1554L98.044 102.087L87.7988 96.1554V84.2917L98.044 78.3599L108.306 84.2917Z" fill="#EE0000"/>
<mask id="mask7_910_5083" style="mask-type:luminance" maskUnits="userSpaceOnUse" x="87" y="78" width="22" height="25">
<path d="M108.306 84.2917V96.1554L98.044 102.087L87.7988 96.1554V84.2917L98.044 78.3599L108.306 84.2917Z" fill="white"/>
</mask>
<g mask="url(#mask7_910_5083)">
<path d="M87.7988 84.2917L98.0608 90.2236" stroke="white" stroke-width="3.9" stroke-linecap="round" stroke-linejoin="round"/>
<path d="M98.0608 90.2236V103.992" stroke="white" stroke-width="3.9" stroke-linecap="round" stroke-linejoin="round"/>
<path d="M108.306 84.2917L98.0608 90.2236" stroke="white" stroke-width="3.9" stroke-linecap="round" stroke-linejoin="round"/>
</g>
<mask id="mask8_910_5083" style="mask-type:luminance" maskUnits="userSpaceOnUse" x="87" y="78" width="22" height="25">
<path d="M108.306 84.2917V96.1554L98.044 102.087L87.7988 96.1554V84.2917L98.044 78.3599L108.306 84.2917Z" fill="white"/>
</mask>
<g mask="url(#mask8_910_5083)">
<path d="M89.7503 74.9896C89.1279 75.6468 88.8587 76.9781 88.5895 77.8038C88.0344 79.5396 87.5633 81.3764 87.5465 83.2133C87.5129 85.741 89.1615 88.134 90.7597 89.9877C92.3074 91.774 94.3261 93.0884 95.7393 94.9927C95.9916 95.3297 96.2271 95.7005 96.429 96.0712C97.6739 98.3631 98.0272 101.043 97.7917 103.604C97.7917 103.722 97.758 104.497 97.5561 104.497L83.6436 104.986L82.5837 75.276C82.5837 75.276 89.9858 74.7199 89.7335 74.9896H89.7503Z" fill="#5F0000"/>
</g>
<path d="M119.931 90.2236H112.966" stroke="white" stroke-width="3" stroke-linecap="round" stroke-linejoin="round"/>
<path d="M116.129 94.7737H127.989" stroke="white" stroke-width="3" stroke-linecap="round" stroke-linejoin="round"/>
<path d="M127.82 85.6567H117.676" stroke="white" stroke-width="3" stroke-linecap="round" stroke-linejoin="round"/>
<path d="M134.583 90.2236H123.733" stroke="white" stroke-width="3" stroke-linecap="round" stroke-linejoin="round"/>
<path d="M140.656 -32.0366H24.1914V43.426H140.656V-32.0366Z" fill="#2E2E2E"/>
<path d="M30.3485 5.35756V0.302002H31.913C32.2327 0.302002 32.5187 0.36941 32.7542 0.487373C32.9897 0.605336 33.1748 0.773855 33.3093 0.992929C33.4439 1.212 33.5112 1.46478 33.5112 1.75126C33.5112 2.03774 33.4103 2.37478 33.2252 2.6107C33.0402 2.84663 32.7878 3.01515 32.4682 3.11626L33.5953 5.3407H32.9897L31.913 3.18367H30.9037V5.3407H30.3485V5.35756ZM30.9037 2.72867H31.8626C32.199 2.72867 32.4514 2.64441 32.6533 2.45904C32.8551 2.29052 32.9561 2.0546 32.9561 1.75126C32.9561 1.44793 32.8551 1.212 32.6533 1.04348C32.4514 0.858112 32.1822 0.773852 31.8626 0.773852H30.9037V2.72867Z" fill="white"/>
<path d="M34.2009 5.35756L35.9 0.302002H36.6066L38.3057 5.35756H37.7169L37.2627 3.95885H35.2439L34.7897 5.35756H34.2177H34.2009ZM35.3617 3.50385H37.0945L36.2197 0.841258L35.3617 3.50385Z" fill="white"/>
<path d="M38.9619 5.35756V0.302002H39.6517L40.6947 2.71181L41.7377 0.302002H42.4274V5.35756H41.9227V0.992929L40.6947 3.84089L39.4666 0.992929V5.35756H38.9619Z" fill="white"/>
<path d="M45.1695 2.56016C45.0349 2.56016 44.9172 2.50961 44.8331 2.42535C44.749 2.34109 44.6985 2.22312 44.6985 2.08831C44.6985 1.9535 44.749 1.85238 44.8331 1.75127C44.9172 1.66701 45.0349 1.61646 45.1695 1.61646C45.3041 1.61646 45.4219 1.66701 45.506 1.75127C45.5901 1.83553 45.6406 1.9535 45.6406 2.08831C45.6406 2.22312 45.5901 2.32424 45.506 2.42535C45.4219 2.50961 45.3041 2.56016 45.1695 2.56016ZM45.1695 5.42497C45.0349 5.42497 44.9172 5.37442 44.8331 5.29016C44.749 5.2059 44.6985 5.08794 44.6985 4.95312C44.6985 4.81831 44.749 4.7172 44.8331 4.61609C44.9172 4.53183 45.0349 4.48127 45.1695 4.48127C45.3041 4.48127 45.4219 4.53183 45.506 4.61609C45.5901 4.70035 45.6406 4.81831 45.6406 4.95312C45.6406 5.08794 45.5901 5.18905 45.506 5.29016C45.4219 5.37442 45.3041 5.42497 45.1695 5.42497Z" fill="white"/>
<path d="M52.824 5.35756L55.3306 0.756999H52.3025V0.302002H55.8858V0.706445L53.4128 5.35756H52.824Z" fill="white"/>
<path d="M58.6447 5.42499C58.2914 5.42499 57.9718 5.32388 57.669 5.12166C57.3662 4.91943 57.1306 4.63295 56.9624 4.24536C56.7942 3.85777 56.6932 3.38591 56.6932 2.8298C56.6932 2.27369 56.7774 1.80184 56.9624 1.41425C57.1475 1.02666 57.3662 0.740173 57.669 0.53795C57.955 0.335728 58.2746 0.234619 58.611 0.234619C58.9475 0.234619 59.4354 0.369433 59.755 0.639063C60.0746 0.908692 60.2933 1.29628 60.4279 1.78499L59.9064 1.9535C59.8055 1.56591 59.6541 1.26258 59.4186 1.06036C59.183 0.858137 58.9139 0.740175 58.6279 0.740175C58.3419 0.740175 58.1568 0.824434 57.955 0.992952C57.7531 1.16147 57.5849 1.39739 57.4671 1.71758C57.3493 2.03777 57.282 2.40851 57.282 2.84666C57.282 3.2848 57.3493 3.67239 57.4671 3.97573C57.5849 4.29591 57.7531 4.53184 57.955 4.70036C58.1568 4.86888 58.3924 4.95314 58.6615 4.95314C58.9307 4.95314 59.1326 4.88573 59.3176 4.73406C59.5027 4.58239 59.6541 4.38017 59.7718 4.12739C59.8896 3.87461 59.9401 3.57128 59.9569 3.21739H58.7961V2.72869H60.512V2.94776C60.512 3.47017 60.4279 3.92517 60.2765 4.29591C60.1251 4.66665 59.9064 4.95313 59.6204 5.15536C59.3344 5.35758 59.0148 5.45869 58.6447 5.45869V5.42499Z" fill="white"/>
<path d="M61.555 5.35756V0.302002H63.0859C63.3887 0.302002 63.6579 0.352556 63.8934 0.453668C64.1289 0.554779 64.2972 0.706447 64.4149 0.90867C64.5327 1.11089 64.6 1.32997 64.6 1.58274C64.6 1.83552 64.5159 2.10515 64.3645 2.30737C64.1962 2.50959 63.9944 2.64441 63.7084 2.72867C64.0448 2.81293 64.314 2.94774 64.499 3.16682C64.7009 3.38589 64.785 3.63867 64.785 3.95885C64.785 4.27904 64.7177 4.48126 64.5832 4.70034C64.4486 4.91941 64.2635 5.07108 64.0112 5.18904C63.7588 5.307 63.4728 5.35756 63.1532 5.35756H61.5382H61.555ZM62.0934 2.5096H63.0355C63.3383 2.5096 63.5906 2.42533 63.7757 2.27367C63.9607 2.122 64.0448 1.90293 64.0448 1.65015C64.0448 1.39737 63.9607 1.1783 63.7757 1.02663C63.5906 0.874963 63.3551 0.790705 63.0355 0.790705H62.0934V2.52644V2.5096ZM62.0934 4.86885H63.0859C63.4224 4.86885 63.7084 4.7846 63.9102 4.61608C64.1121 4.44756 64.2131 4.21163 64.2131 3.9083C64.2131 3.60496 64.1121 3.38589 63.9102 3.21737C63.7084 3.04885 63.4392 2.96459 63.0859 2.96459H62.0934V4.86885Z" fill="white"/>
<path d="M31.8458 15.435C31.5093 15.435 31.1897 15.3676 30.9037 15.2496C30.6009 15.1148 30.2981 14.9295 29.9952 14.643L30.3317 14.2217C30.6345 14.4913 30.8869 14.6767 31.1224 14.7946C31.3579 14.9126 31.5934 14.9632 31.8626 14.9632C32.1317 14.9632 32.2832 14.9295 32.4514 14.8283C32.6196 14.7441 32.7542 14.6261 32.8551 14.4745C32.9561 14.3228 33.0065 14.1711 33.0065 13.9858C33.0065 13.8004 32.9561 13.615 32.8551 13.497C32.7542 13.3791 32.6196 13.278 32.4514 13.2106C32.2832 13.1432 32.0981 13.0758 31.8962 13.0252C31.6944 12.9746 31.4925 12.9241 31.2906 12.8567C31.0887 12.7893 30.9037 12.7219 30.7354 12.6208C30.5672 12.5196 30.4326 12.3848 30.3317 12.2163C30.2308 12.0478 30.1803 11.8287 30.1803 11.5591C30.1803 11.2895 30.2476 11.0535 30.3822 10.8513C30.5168 10.6491 30.7018 10.4974 30.9373 10.3795C31.1728 10.2615 31.442 10.2109 31.7616 10.2109C32.0813 10.2109 32.3673 10.2615 32.6364 10.3626C32.9224 10.4637 33.2084 10.6154 33.5281 10.8513L33.2421 11.2895C32.9729 11.0872 32.7206 10.9356 32.485 10.8345C32.2327 10.7333 31.9972 10.6828 31.7616 10.6828C31.5261 10.6828 31.2065 10.7671 31.0046 10.9187C30.8027 11.0704 30.7186 11.2726 30.7186 11.5085C30.7186 11.7445 30.7691 11.8961 30.87 12.0141C30.971 12.1321 31.1056 12.2332 31.2738 12.3174C31.442 12.3848 31.6271 12.4522 31.8289 12.5028C32.0308 12.5533 32.2327 12.6039 32.4346 12.6713C32.6364 12.7219 32.8215 12.8061 32.9897 12.9072C33.1579 13.0083 33.2925 13.1432 33.3935 13.3117C33.4944 13.4802 33.5449 13.6993 33.5449 13.9689C33.5449 14.2385 33.4776 14.4913 33.3262 14.7272C33.1748 14.9632 32.9729 15.1317 32.7206 15.2496C32.4682 15.3845 32.1654 15.435 31.8458 15.435Z" fill="white"/>
<path d="M36.8085 15.4351C36.4216 15.4351 36.1187 15.3508 35.9 15.1823C35.6982 15.0138 35.5804 14.761 35.5804 14.4408V12.2838H34.386V11.8456H35.5804V10.885L36.1019 10.7671V11.8625H37.7169V12.3006H36.1019V14.3734C36.1019 14.5925 36.1692 14.761 36.287 14.8452C36.4047 14.9463 36.573 14.9969 36.8085 14.9969C37.044 14.9969 37.0945 14.9969 37.2459 14.9463C37.3973 14.9126 37.5655 14.8621 37.7337 14.7947V15.2665C37.5823 15.3171 37.4141 15.3676 37.2627 15.4013C37.1113 15.4351 36.9599 15.4519 36.8085 15.4519V15.4351Z" fill="white"/>
<path d="M40.6946 15.4349C40.375 15.4349 40.089 15.3507 39.8198 15.199C39.5675 15.0305 39.3656 14.8283 39.2142 14.5418C39.0628 14.2553 38.9955 13.952 38.9955 13.6149C38.9955 13.2779 39.0796 12.9577 39.2142 12.6881C39.3656 12.4184 39.5675 12.1994 39.8198 12.0309C40.0721 11.8623 40.3581 11.7949 40.6946 11.7949C41.0311 11.7949 41.3002 11.8792 41.5694 12.0309C41.8217 12.1825 42.0236 12.4016 42.175 12.6881C42.3264 12.9577 42.3937 13.2779 42.3937 13.6149C42.3937 13.952 42.3264 14.2721 42.175 14.5418C42.0236 14.8114 41.8217 15.0305 41.5694 15.199C41.317 15.3675 41.0311 15.4349 40.6946 15.4349ZM40.6946 14.9631C40.9301 14.9631 41.132 14.9125 41.3002 14.7946C41.4853 14.6766 41.6199 14.5081 41.7208 14.3059C41.8217 14.1036 41.8722 13.8677 41.8722 13.6149C41.8722 13.3621 41.8217 13.1094 41.7208 12.9071C41.6199 12.7049 41.4853 12.5533 41.3002 12.4353C41.1152 12.3173 40.9133 12.2668 40.6946 12.2668C40.4759 12.2668 40.2572 12.3173 40.089 12.4353C39.9207 12.5533 39.7693 12.7049 39.6684 12.9071C39.5675 13.1094 39.517 13.3453 39.517 13.6149C39.517 13.8846 39.5675 14.1036 39.6684 14.3059C39.7693 14.5081 39.9039 14.6766 40.089 14.7946C40.274 14.9125 40.4759 14.9631 40.6946 14.9631Z" fill="white"/>
<path d="M43.6722 15.3675V14.9294H44.6311V12.2668H43.6722V11.8286H45.1695V12.6207C45.2704 12.351 45.4386 12.1488 45.6405 11.9971C45.8592 11.8455 46.0947 11.7781 46.3807 11.7781C46.6667 11.7781 46.5826 11.7781 46.6835 11.8118C46.7845 11.8455 46.8686 11.8623 46.9864 11.896V12.3847C46.8686 12.351 46.7508 12.3173 46.6499 12.2836C46.549 12.2668 46.4312 12.2499 46.3303 12.2499C46.0779 12.2499 45.8424 12.3173 45.6405 12.4522C45.4386 12.587 45.2872 12.7723 45.1863 13.0251V14.9294H46.2125V15.3675H43.7059H43.6722Z" fill="white"/>
<path d="M49.3079 15.4349C49.0556 15.4349 48.8201 15.3844 48.635 15.3001C48.4499 15.2159 48.2817 15.081 48.164 14.9294C48.0462 14.7609 47.9957 14.5755 47.9957 14.3733C47.9957 14.171 48.0462 13.9688 48.164 13.8171C48.2817 13.6655 48.4331 13.5307 48.635 13.4464C48.8369 13.3621 49.0724 13.3116 49.3416 13.3116C49.6107 13.3116 49.7453 13.3284 49.9304 13.379C50.1154 13.4127 50.2836 13.4801 50.4519 13.5812V13.1768C50.4519 12.8566 50.3678 12.6207 50.2164 12.469C50.0649 12.3173 49.8294 12.2331 49.5098 12.2331C49.1902 12.2331 49.1565 12.2499 48.9715 12.3005C48.7864 12.351 48.6014 12.4353 48.3658 12.5701L48.1471 12.1657C48.3995 12.0309 48.6518 11.9297 48.8705 11.8623C49.0892 11.7949 49.3247 11.7781 49.5603 11.7781C50.0145 11.7781 50.3509 11.896 50.5865 12.1151C50.822 12.3342 50.9566 12.6712 50.9566 13.0925V15.3507H50.4351V14.9462C50.2668 15.1147 50.0986 15.2327 49.9135 15.3001C49.7285 15.3844 49.5098 15.4181 49.2911 15.4181L49.3079 15.4349ZM48.5004 14.3396C48.5004 14.5418 48.5845 14.7103 48.7528 14.8451C48.921 14.9631 49.1397 15.0305 49.4089 15.0305C49.678 15.0305 49.7958 14.9968 49.9808 14.9294C50.1491 14.862 50.3173 14.7609 50.4519 14.6092V13.9351C50.3005 13.8509 50.1491 13.7834 49.9808 13.7329C49.8126 13.6992 49.6276 13.6823 49.4257 13.6823C49.2238 13.6823 48.921 13.7497 48.7528 13.8677C48.5845 13.9857 48.5004 14.1542 48.5004 14.3396Z" fill="white"/>
<path d="M54.1193 16.9347C53.8837 16.9347 53.6482 16.901 53.4127 16.8336C53.1772 16.7662 52.9585 16.682 52.7566 16.564L52.9753 16.1596C53.194 16.2775 53.3959 16.3449 53.5641 16.4123C53.7492 16.4629 53.9174 16.4966 54.1024 16.4966C54.7585 16.4966 55.0782 16.1933 55.0782 15.5866V14.8788C54.9436 15.0473 54.7754 15.1821 54.5903 15.2664C54.4053 15.3507 54.1866 15.4012 53.951 15.4012C53.7155 15.4012 53.3791 15.317 53.1267 15.1653C52.8744 14.9968 52.6893 14.7946 52.5379 14.5081C52.3865 14.2384 52.3192 13.9351 52.3192 13.5981C52.3192 13.261 52.3865 12.9577 52.5379 12.6881C52.6893 12.4184 52.8744 12.1994 53.1267 12.0309C53.3791 11.8623 53.6482 11.7949 53.9679 11.7949C54.2875 11.7949 54.3884 11.8286 54.5735 11.9129C54.7585 11.9971 54.9268 12.1151 55.0613 12.2836V11.8286H55.5829V15.5697C55.5829 16.0079 55.4483 16.3449 55.1959 16.5809C54.9436 16.8168 54.5735 16.9347 54.1024 16.9347H54.1193ZM54.0856 14.9462C54.2875 14.9462 54.4894 14.9125 54.6576 14.8283C54.8258 14.744 54.9772 14.626 55.0782 14.4744V12.7386C54.9604 12.587 54.8258 12.469 54.6408 12.3847C54.4725 12.3005 54.2875 12.2499 54.0856 12.2499C53.8837 12.2499 53.6482 12.3005 53.4632 12.4184C53.2781 12.5364 53.1267 12.6881 53.0258 12.8903C52.9248 13.0925 52.8575 13.3284 52.8575 13.5812C52.8575 13.834 52.908 14.0699 53.0258 14.2721C53.1267 14.4744 53.2781 14.6429 53.4632 14.7608C53.6482 14.8788 53.8501 14.9294 54.0856 14.9294V14.9462Z" fill="white"/>
<path d="M58.6447 15.4349C58.3082 15.4349 58.0054 15.3507 57.7362 15.199C57.4671 15.0305 57.2484 14.8114 57.097 14.5418C56.9456 14.2721 56.8615 13.952 56.8615 13.6149C56.8615 13.2779 56.9287 12.9577 57.0801 12.6881C57.2316 12.4184 57.4334 12.1994 57.6858 12.0309C57.9381 11.8792 58.2241 11.7949 58.5437 11.7949C58.8634 11.7949 59.1662 11.8792 59.4354 12.0309C59.6877 12.1825 59.9064 12.4016 60.041 12.6712C60.1924 12.9408 60.2597 13.2442 60.2597 13.5812V13.7329H57.3661C57.383 13.9688 57.4503 14.1879 57.568 14.3733C57.6858 14.5586 57.8372 14.7103 58.0222 14.8283C58.2073 14.9294 58.426 14.9968 58.6447 14.9968C58.8634 14.9968 59.0484 14.9631 59.2167 14.8788C59.4017 14.7946 59.5531 14.6934 59.6709 14.5586L60.041 14.8788C59.8559 15.0642 59.6372 15.2159 59.4017 15.317C59.1662 15.4181 58.897 15.4686 58.6279 15.4686L58.6447 15.4349ZM57.3998 13.3284H59.7718C59.7382 13.1094 59.6709 12.924 59.5531 12.7723C59.4354 12.6038 59.3008 12.4858 59.1325 12.3847C58.9643 12.2836 58.7793 12.2499 58.5606 12.2499C58.3419 12.2499 58.1905 12.3005 58.0222 12.3847C57.854 12.469 57.7194 12.6038 57.6185 12.7723C57.5175 12.9409 57.4334 13.1262 57.3998 13.3453V13.3284Z" fill="white"/>
<path d="M63.0187 12.5702C62.8841 12.5702 62.7663 12.5196 62.6822 12.4354C62.5981 12.3511 62.5476 12.2331 62.5476 12.0983C62.5476 11.9635 62.5981 11.8624 62.6822 11.7613C62.7663 11.677 62.8841 11.6265 63.0187 11.6265C63.1532 11.6265 63.271 11.677 63.3551 11.7613C63.4392 11.8455 63.4897 11.9635 63.4897 12.0983C63.4897 12.2331 63.4392 12.3342 63.3551 12.4354C63.271 12.5196 63.1532 12.5702 63.0187 12.5702ZM63.0187 15.435C62.8841 15.435 62.7663 15.3844 62.6822 15.3002C62.5981 15.2159 62.5476 15.0979 62.5476 14.9631C62.5476 14.8283 62.5981 14.7272 62.6822 14.6261C62.7663 14.5418 62.8841 14.4913 63.0187 14.4913C63.1532 14.4913 63.271 14.5418 63.3551 14.6261C63.4392 14.7104 63.4897 14.8283 63.4897 14.9631C63.4897 15.0979 63.4392 15.1991 63.3551 15.3002C63.271 15.3844 63.1532 15.435 63.0187 15.435Z" fill="white"/>
<path d="M70.4039 15.3676V14.9126H71.6825V10.885L70.4039 11.4411V10.9692L71.8675 10.312H72.1871V14.9126H73.6339V15.3676H70.3871H70.4039Z" fill="white"/>
<path d="M76.3256 15.435C75.6695 15.435 75.0975 15.199 74.6096 14.744L74.9293 14.3902C75.148 14.5924 75.3666 14.744 75.5853 14.8452C75.804 14.9463 76.0564 14.98 76.3256 14.98C76.5947 14.98 76.7798 14.9294 76.9817 14.8283C77.1667 14.7272 77.3181 14.5924 77.419 14.407C77.52 14.2216 77.5705 14.0194 77.5705 13.7835C77.5705 13.4465 77.4527 13.1768 77.234 12.9746C76.9985 12.7724 76.7125 12.6713 76.3424 12.6713C75.9723 12.6713 75.9555 12.6881 75.7872 12.7387C75.619 12.7892 75.4171 12.8566 75.2152 12.9578L74.862 12.8398L74.9797 10.312H77.8396V10.767H75.4171L75.333 12.5196C75.5181 12.4185 75.7031 12.3511 75.8882 12.3174C76.0732 12.2837 76.2583 12.25 76.4433 12.25C76.7798 12.25 77.0658 12.3174 77.3181 12.4353C77.5705 12.5702 77.7555 12.7387 77.8901 12.9746C78.0247 13.2105 78.092 13.4633 78.092 13.7666C78.092 14.07 78.0247 14.3902 77.8733 14.6429C77.7219 14.8957 77.52 15.0811 77.2508 15.2328C76.9817 15.3844 76.6788 15.4518 76.3256 15.4518V15.435Z" fill="white"/>
<path d="M80.9518 15.435C80.5985 15.435 80.2789 15.3339 79.9761 15.1317C79.6733 14.9294 79.4378 14.643 79.2695 14.2554C79.0845 13.8678 79.0004 13.3959 79.0004 12.8398C79.0004 12.2837 79.0845 11.8119 79.2695 11.4243C79.4546 11.0367 79.6733 10.7502 79.9761 10.548C80.2621 10.3457 80.5817 10.2446 80.9182 10.2446C81.2546 10.2446 81.7425 10.3794 82.0621 10.6491C82.3818 10.9187 82.6005 11.3063 82.7351 11.795L82.2135 11.9635C82.1126 11.5759 81.9612 11.2726 81.7257 11.0704C81.4902 10.8681 81.221 10.7502 80.935 10.7502C80.649 10.7502 80.464 10.8344 80.2621 11.003C80.0602 11.1715 79.892 11.4074 79.7742 11.7276C79.6565 12.0478 79.5892 12.4185 79.5892 12.8567C79.5892 13.2948 79.6565 13.6824 79.7742 13.9857C79.892 14.3059 80.0602 14.5419 80.2621 14.7104C80.464 14.8789 80.6995 14.9631 80.9686 14.9631C81.2378 14.9631 81.4397 14.8957 81.6247 14.7441C81.8098 14.5924 81.9612 14.3902 82.079 14.1374C82.1967 13.8846 82.2472 13.5813 82.264 13.2274H81.1032V12.7387H82.8192V12.9578C82.8192 13.4802 82.7351 13.9352 82.5836 14.3059C82.4322 14.6767 82.2135 14.9631 81.9276 15.1654C81.6416 15.3676 81.3219 15.4687 80.9518 15.4687V15.435Z" fill="white"/>
<path d="M83.8623 15.3676V10.312H85.3932C85.696 10.312 85.9652 10.3626 86.2007 10.4637C86.4362 10.5648 86.6044 10.7165 86.7222 10.9187C86.8399 11.104 86.9072 11.34 86.9072 11.5928C86.9072 11.8455 86.8231 12.1152 86.6717 12.3174C86.5035 12.5196 86.3016 12.6544 86.0156 12.7387C86.3521 12.8229 86.6212 12.9578 86.8063 13.1768C87.0082 13.3959 87.0923 13.6487 87.0923 13.9689C87.0923 14.2891 87.025 14.4913 86.8904 14.7103C86.7558 14.9294 86.5708 15.0811 86.3184 15.199C86.0661 15.317 85.7801 15.3676 85.4605 15.3676H83.8455H83.8623ZM84.4174 12.5196H85.3595C85.6623 12.5196 85.9147 12.4353 86.0997 12.2837C86.2848 12.132 86.3689 11.9129 86.3689 11.6602C86.3689 11.4074 86.2848 11.1883 86.0997 11.0366C85.9147 10.885 85.6792 10.8007 85.3595 10.8007H84.4174V12.5365V12.5196ZM84.4174 14.8957H85.41C85.7465 14.8957 86.0324 14.8115 86.2343 14.6429C86.4362 14.4744 86.5371 14.2385 86.5371 13.9352C86.5371 13.6318 86.4362 13.4128 86.2343 13.2442C86.0324 13.0757 85.7633 12.9915 85.41 12.9915H84.4174V14.8957Z" fill="white"/>
<path d="M31.4925 25.3776V20.8107H29.827V20.322H33.7131V20.8107H32.0477V25.3776H31.4925Z" fill="white"/>
<path d="M37.0609 25.4451C36.6908 25.4451 36.4048 25.3608 36.2029 25.1923C36.001 25.0238 35.9001 24.7541 35.9001 24.4171V22.2938H34.6047V21.8556H36.4384V24.3665C36.4384 24.5856 36.4889 24.7541 36.5898 24.8384C36.6908 24.9395 36.859 24.9901 37.0609 24.9901C37.2628 24.9901 37.3132 24.9901 37.4478 24.9564C37.5824 24.9227 37.717 24.889 37.8852 24.8215V25.2934C37.7506 25.344 37.616 25.3777 37.4646 25.4114C37.33 25.4451 37.1955 25.4619 37.0609 25.4619V25.4451ZM36.1861 21.013C36.0683 21.013 35.9506 20.9625 35.8665 20.8782C35.7823 20.794 35.7319 20.6928 35.7319 20.558C35.7319 20.4232 35.7823 20.3221 35.8665 20.2378C35.9506 20.1536 36.0683 20.103 36.1861 20.103C36.3039 20.103 36.4216 20.1536 36.5057 20.2378C36.5898 20.3221 36.6403 20.4232 36.6403 20.558C36.6403 20.6928 36.5898 20.7771 36.5057 20.8782C36.4216 20.9793 36.3039 21.013 36.1861 21.013Z" fill="white"/>
<path d="M39.0292 25.3775V21.8555H39.517V22.1588C39.6011 22.0409 39.7021 21.9397 39.803 21.8892C39.9039 21.8386 40.0217 21.8049 40.1563 21.8049C40.2909 21.8049 40.4423 21.8386 40.56 21.9229C40.6778 21.9903 40.7787 22.1083 40.846 22.2431C40.947 22.0914 41.0479 21.9903 41.1825 21.9229C41.3171 21.8555 41.4517 21.8218 41.6199 21.8218C41.8554 21.8218 42.0405 21.906 42.1919 22.0746C42.3433 22.2431 42.4106 22.479 42.4106 22.7486V25.3775H41.9227V22.8666C41.9227 22.6644 41.8722 22.4959 41.7881 22.3779C41.704 22.2599 41.5694 22.1925 41.418 22.1925C41.2666 22.1925 41.2498 22.2094 41.1657 22.2599C41.0815 22.2936 41.0143 22.3779 40.947 22.4959C40.947 22.5296 40.947 22.5801 40.9638 22.6138C40.9638 22.6475 40.9638 22.6981 40.9638 22.7486V25.3775H40.4759V22.8666C40.4759 22.6644 40.4255 22.4959 40.3413 22.3779C40.2572 22.2599 40.1226 22.1925 39.9544 22.1925C39.7862 22.1925 39.7862 22.2094 39.7189 22.2431C39.6348 22.2768 39.5675 22.3442 39.5002 22.4622V25.3607H39.0123L39.0292 25.3775Z" fill="white"/>
<path d="M45.2536 25.4449C44.9171 25.4449 44.6143 25.3607 44.3451 25.209C44.076 25.0405 43.8573 24.8214 43.7059 24.5518C43.5545 24.2822 43.4703 23.962 43.4703 23.6249C43.4703 23.2879 43.5376 22.9677 43.689 22.6981C43.8404 22.4284 44.0423 22.2094 44.2947 22.0409C44.547 21.8892 44.833 21.8049 45.1526 21.8049C45.4723 21.8049 45.7751 21.8892 46.0442 22.0409C46.2966 22.1925 46.5153 22.4116 46.6499 22.6812C46.8013 22.9509 46.8686 23.2542 46.8686 23.5912V23.7429H43.975C43.9918 23.9788 44.0591 24.1979 44.1769 24.3833C44.2947 24.5686 44.4461 24.7203 44.6311 24.8383C44.8162 24.9562 45.0349 25.0068 45.2536 25.0068C45.4723 25.0068 45.6573 24.9731 45.8255 24.8888C45.9938 24.8046 46.162 24.7034 46.2798 24.5686L46.6499 24.8888C46.4648 25.0742 46.2461 25.2259 46.0106 25.327C45.7751 25.4281 45.5059 25.4786 45.2367 25.4786L45.2536 25.4449ZM43.9918 23.3384H46.3639C46.3302 23.1194 46.2629 22.934 46.1452 22.7823C46.0274 22.6138 45.8928 22.4959 45.7246 22.3947C45.5564 22.2936 45.3713 22.2599 45.1526 22.2599C44.9339 22.2599 44.7825 22.3105 44.6143 22.3947C44.4461 22.479 44.3115 22.6138 44.2105 22.7823C44.1096 22.9509 44.0255 23.1362 43.9918 23.3553V23.3384Z" fill="white"/>
<path d="M54.9268 25.4451C54.5567 25.4451 54.2708 25.3608 54.0689 25.1923C53.867 25.0238 53.7661 24.7541 53.7661 24.4171V20.5749H52.4707V20.1367H54.3044V24.3665C54.3044 24.5856 54.3549 24.7541 54.4558 24.8384C54.5567 24.9226 54.725 24.9901 54.9268 24.9901C55.1287 24.9901 55.1792 24.9901 55.3138 24.9563C55.4484 24.9226 55.5829 24.8889 55.7512 24.8215V25.2934C55.6166 25.3439 55.482 25.3776 55.3306 25.4114C55.196 25.4451 55.0614 25.4619 54.9268 25.4619V25.4451Z" fill="white"/>
<path d="M59.3849 25.4451C59.0148 25.4451 58.7288 25.3608 58.5437 25.1923C58.3419 25.0238 58.2409 24.7541 58.2409 24.4171V22.2938H56.9456V21.8556H58.7793V24.3665C58.7793 24.5856 58.8297 24.7541 58.9307 24.8384C59.0316 24.9395 59.1998 24.9901 59.4017 24.9901C59.6036 24.9901 59.654 24.9901 59.7886 24.9564C59.9232 24.9227 60.0578 24.889 60.226 24.8215V25.2934C60.0914 25.344 59.9569 25.3777 59.8055 25.4114C59.6709 25.4451 59.5363 25.4619 59.4017 25.4619L59.3849 25.4451ZM58.5101 21.013C58.3923 21.013 58.2746 20.9625 58.1905 20.8782C58.1063 20.794 58.0559 20.6928 58.0559 20.558C58.0559 20.4232 58.1063 20.3221 58.1905 20.2378C58.2746 20.1536 58.3923 20.103 58.5101 20.103C58.6278 20.103 58.7456 20.1536 58.8297 20.2378C58.9138 20.3221 58.9643 20.4232 58.9643 20.558C58.9643 20.6928 58.9138 20.7771 58.8297 20.8782C58.7456 20.9625 58.6278 21.013 58.5101 21.013Z" fill="white"/>
<path d="M61.3531 25.3775V21.8555H61.841V22.1588C61.9251 22.0409 62.026 21.9397 62.127 21.8892C62.2279 21.8386 62.3457 21.8049 62.4803 21.8049C62.6148 21.8049 62.7662 21.8386 62.884 21.9229C63.0018 21.9903 63.1027 22.1083 63.17 22.2431C63.2709 22.0914 63.3719 21.9903 63.5065 21.9229C63.641 21.8555 63.7756 21.8218 63.9439 21.8218C64.1794 21.8218 64.3644 21.906 64.5158 22.0746C64.6672 22.2431 64.7345 22.479 64.7345 22.7486V25.3775H64.2467V22.8666C64.2467 22.6644 64.1962 22.4959 64.1121 22.3779C64.028 22.2599 63.8934 22.1925 63.742 22.1925C63.5906 22.1925 63.5737 22.2094 63.4896 22.2599C63.4055 22.2936 63.3382 22.3779 63.2709 22.4959C63.2709 22.5296 63.2709 22.5801 63.2878 22.6138C63.2878 22.6475 63.2878 22.6981 63.2878 22.7486V25.3775H62.7999V22.8666C62.7999 22.6644 62.7494 22.4959 62.6653 22.3779C62.5812 22.2599 62.4466 22.1925 62.2784 22.1925C62.1102 22.1925 62.1102 22.2094 62.0429 22.2431C61.9587 22.2768 61.8915 22.3442 61.8242 22.4622V25.3607H61.3363L61.3531 25.3775Z" fill="white"/>
<path d="M68.3179 25.4451C67.9478 25.4451 67.6618 25.3608 67.4767 25.1923C67.2748 25.0238 67.1739 24.7541 67.1739 24.4171V22.2938H65.8785V21.8556H67.7122V24.3665C67.7122 24.5856 67.7627 24.7541 67.8636 24.8384C67.9646 24.9395 68.1328 24.9901 68.3347 24.9901C68.5366 24.9901 68.587 24.9901 68.7216 24.9564C68.8562 24.9227 68.9908 24.889 69.159 24.8215V25.2934C69.0244 25.344 68.8898 25.3777 68.7384 25.4114C68.6039 25.4451 68.4693 25.4619 68.3347 25.4619L68.3179 25.4451ZM67.4431 21.013C67.3253 21.013 67.2075 20.9625 67.1234 20.8782C67.0393 20.794 66.9889 20.6928 66.9889 20.558C66.9889 20.4232 67.0393 20.3221 67.1234 20.2378C67.2075 20.1536 67.3253 20.103 67.4431 20.103C67.5608 20.103 67.6786 20.1536 67.7627 20.2378C67.8468 20.3221 67.8973 20.4232 67.8973 20.558C67.8973 20.6928 67.8468 20.7771 67.7627 20.8782C67.6786 20.9625 67.5608 21.013 67.4431 21.013Z" fill="white"/>
<path d="M72.5236 25.4451C72.1366 25.4451 71.8338 25.3608 71.6151 25.1923C71.4133 25.0238 71.2955 24.771 71.2955 24.4508V22.2938H70.1011V21.8556H71.2955V20.8951L71.817 20.7771V21.8725H73.432V22.3106H71.817V24.3834C71.817 24.6025 71.8843 24.771 72.0021 24.8552C72.1198 24.9395 72.2881 25.0069 72.5236 25.0069C72.7591 25.0069 72.8096 25.0069 72.961 24.9564C73.1124 24.9227 73.2806 24.8721 73.4488 24.8047V25.2765C73.2974 25.3271 73.1292 25.3777 72.9778 25.4114C72.8264 25.4451 72.675 25.4619 72.5236 25.4619V25.4451Z" fill="white"/>
<path d="M76.4096 22.5802C76.2751 22.5802 76.1573 22.5296 76.0732 22.4454C75.9891 22.3611 75.9386 22.2431 75.9386 22.1083C75.9386 21.9735 75.9891 21.8724 76.0732 21.7713C76.1573 21.687 76.2751 21.6365 76.4096 21.6365C76.5442 21.6365 76.662 21.687 76.7461 21.7713C76.8302 21.8555 76.8807 21.9735 76.8807 22.1083C76.8807 22.2431 76.8302 22.3443 76.7461 22.4454C76.662 22.5296 76.5442 22.5802 76.4096 22.5802ZM76.4096 25.445C76.2751 25.445 76.1573 25.3944 76.0732 25.3102C75.9891 25.2259 75.9386 25.108 75.9386 24.9731C75.9386 24.8383 75.9891 24.7372 76.0732 24.6361C76.1573 24.5518 76.2751 24.5013 76.4096 24.5013C76.5442 24.5013 76.662 24.5518 76.7461 24.6361C76.8302 24.7204 76.8807 24.8383 76.8807 24.9731C76.8807 25.108 76.8302 25.2091 76.7461 25.3102C76.662 25.3944 76.5442 25.445 76.4096 25.445Z" fill="white"/>
<path d="M85.2417 25.4619C84.8885 25.4619 84.5688 25.3945 84.266 25.2765C83.9632 25.1585 83.694 24.9732 83.4753 24.7372L83.8286 24.4002C84.0473 24.6193 84.2492 24.7709 84.4847 24.8552C84.7034 24.9563 84.9558 24.99 85.2417 24.99C85.5277 24.99 85.696 24.9395 85.8978 24.8552C86.0997 24.7709 86.2343 24.653 86.3352 24.5013C86.4362 24.3496 86.4866 24.1643 86.4866 23.9789C86.4866 23.7935 86.4362 23.625 86.3521 23.4734C86.2511 23.3217 86.1334 23.2206 85.9651 23.1363C85.7969 23.0521 85.6119 23.0183 85.41 23.0183H84.8044V22.5634H85.3763C85.6455 22.5634 85.8642 22.4791 86.0492 22.3106C86.2175 22.1421 86.3016 21.923 86.3016 21.6533C86.3016 21.3837 86.2511 21.3163 86.1502 21.1646C86.0492 21.013 85.9315 20.9119 85.7633 20.8276C85.595 20.7433 85.41 20.7096 85.2081 20.7096C85.0062 20.7096 84.7202 20.7602 84.5184 20.8445C84.3165 20.9456 84.1146 21.0972 83.8959 21.3163L83.5426 20.9624C83.7613 20.7265 84.0305 20.5411 84.2997 20.4232C84.5857 20.3052 84.8885 20.2378 85.2081 20.2378C85.5277 20.2378 85.7969 20.3052 86.0324 20.4232C86.2679 20.5411 86.4698 20.7096 86.6044 20.9119C86.739 21.1141 86.8063 21.35 86.8063 21.6196C86.8063 21.8893 86.7222 22.1252 86.5539 22.3274C86.3857 22.5296 86.1502 22.6813 85.8642 22.7656C86.2007 22.8498 86.4866 22.9846 86.6885 23.2206C86.8904 23.4396 86.9913 23.6924 86.9913 23.9958C86.9913 24.2991 86.924 24.5182 86.7726 24.7541C86.6212 24.99 86.4193 25.1417 86.1502 25.2765C85.881 25.3945 85.5782 25.4619 85.2417 25.4619Z" fill="white"/>
<path d="M89.8007 25.4619C89.4474 25.4619 89.1278 25.3607 88.8418 25.1417C88.5558 24.9226 88.3371 24.6361 88.1857 24.2485C88.0343 23.8609 87.9502 23.3891 87.9502 22.8667C87.9502 22.3443 88.0343 21.8724 88.1857 21.4848C88.3371 21.0972 88.5558 20.7939 88.8418 20.5917C89.1278 20.3726 89.4474 20.2715 89.8007 20.2715C90.154 20.2715 90.4905 20.3726 90.7596 20.5917C91.0456 20.8107 91.2643 21.0972 91.4157 21.4848C91.5671 21.8724 91.6512 22.3274 91.6512 22.8667C91.6512 23.4059 91.5671 23.8609 91.4157 24.2485C91.2643 24.6361 91.0456 24.9394 90.7596 25.1417C90.4736 25.3607 90.154 25.4619 89.8007 25.4619ZM88.4717 22.8498C88.4717 23.1531 88.5054 23.4228 88.5558 23.6756C88.6063 23.9283 88.6904 24.1306 88.7745 24.3159L90.4905 20.9624C90.2886 20.7939 90.0699 20.7096 89.8007 20.7096C89.5315 20.7096 89.296 20.7939 89.0942 20.9793C88.8923 21.1646 88.7409 21.4006 88.6231 21.7207C88.5054 22.0409 88.4549 22.4117 88.4549 22.8498H88.4717ZM89.8007 24.99C90.0699 24.99 90.3054 24.9057 90.5073 24.7204C90.7092 24.5519 90.8606 24.2991 90.9783 23.9789C91.0961 23.6587 91.1465 23.288 91.1465 22.8498C91.1465 22.4117 91.1129 22.2769 91.0624 22.0241C91.012 21.7713 90.9279 21.5691 90.8437 21.3837L89.1278 24.7372C89.3297 24.9057 89.5484 24.99 89.8175 24.99H89.8007Z" fill="white"/>
<path d="M98.5991 25.4282C98.2963 25.4282 98.0271 25.344 97.7748 25.1923C97.5224 25.0238 97.3374 24.8216 97.186 24.5351C97.0346 24.2655 96.9673 23.9621 96.9673 23.6251C96.9673 23.288 97.0346 22.9847 97.186 22.6982C97.3374 22.4286 97.5224 22.2095 97.7748 22.041C98.0271 21.8725 98.2963 21.8051 98.6159 21.8051C98.9356 21.8051 99.0365 21.8388 99.2215 21.923C99.4066 22.0073 99.5748 22.1253 99.7094 22.2938V20.1536L100.231 20.0525V25.3608H99.7094V24.889C99.5748 25.0575 99.4066 25.1923 99.2215 25.2766C99.0365 25.3608 98.8178 25.4114 98.5823 25.4114L98.5991 25.4282ZM98.7169 24.9564C98.9187 24.9564 99.1206 24.9227 99.2888 24.8384C99.4571 24.7542 99.6085 24.6362 99.7094 24.4845V22.7319C99.5917 22.5803 99.4571 22.4623 99.272 22.378C99.1038 22.2938 98.9187 22.2432 98.7169 22.2432C98.515 22.2432 98.2795 22.2938 98.0944 22.4117C97.9094 22.5297 97.758 22.6814 97.657 22.8836C97.5561 23.0858 97.4888 23.3218 97.4888 23.5745C97.4888 23.8273 97.5393 24.0632 97.657 24.2655C97.758 24.4677 97.9094 24.6362 98.0944 24.7542C98.2795 24.8721 98.4813 24.9227 98.7169 24.9227V24.9564Z" fill="white"/>
<path d="M102.889 25.4449C102.637 25.4449 102.401 25.3944 102.216 25.3101C102.031 25.2259 101.863 25.091 101.745 24.9394C101.627 24.7709 101.577 24.5855 101.577 24.3833C101.577 24.181 101.627 23.9788 101.745 23.8272C101.863 23.6755 102.014 23.5407 102.216 23.4564C102.418 23.3722 102.653 23.3216 102.923 23.3216C103.192 23.3216 103.326 23.3385 103.511 23.389C103.696 23.4227 103.865 23.4901 104.033 23.5912V23.1868C104.033 22.8666 103.949 22.6307 103.797 22.479C103.646 22.3273 103.41 22.2431 103.091 22.2431C102.771 22.2431 102.738 22.2599 102.553 22.3105C102.367 22.361 102.182 22.4453 101.947 22.5801L101.728 22.1757C101.981 22.0409 102.233 21.9398 102.452 21.8723C102.67 21.8049 102.906 21.7881 103.141 21.7881C103.596 21.7881 103.932 21.906 104.168 22.1251C104.403 22.3442 104.538 22.6812 104.538 23.1025V25.3607H104.016V24.9562C103.848 25.1248 103.68 25.2427 103.495 25.3101C103.31 25.3944 103.091 25.4281 102.872 25.4281L102.889 25.4449ZM102.081 24.3664C102.081 24.5686 102.166 24.7372 102.334 24.872C102.502 24.9899 102.721 25.0573 102.99 25.0573C103.259 25.0573 103.377 25.0236 103.562 24.9562C103.73 24.8888 103.898 24.7877 104.033 24.636V23.962C103.882 23.8777 103.73 23.8103 103.562 23.7597C103.394 23.7092 103.209 23.7092 103.007 23.7092C102.805 23.7092 102.502 23.7766 102.334 23.8946C102.166 24.0125 102.081 24.181 102.081 24.3664Z" fill="white"/>
<path d="M106.439 26.9616C106.354 26.9616 106.287 26.9616 106.203 26.9616C106.119 26.9616 106.035 26.9447 105.951 26.911V26.4055C106.035 26.4223 106.119 26.4392 106.186 26.456C106.254 26.456 106.321 26.4729 106.371 26.4729C106.54 26.4729 106.674 26.4392 106.775 26.3718C106.893 26.3044 106.977 26.1864 107.044 26.0179L107.313 25.3944L105.883 21.8555H106.455L107.599 24.7708L108.794 21.8555H109.366L107.515 26.1695C107.431 26.3549 107.347 26.5066 107.246 26.6245C107.145 26.7425 107.027 26.8268 106.893 26.8773C106.758 26.9279 106.607 26.9447 106.405 26.9447L106.439 26.9616Z" fill="white"/>
<path d="M112.091 25.4449C111.771 25.4449 111.485 25.4112 111.216 25.327C110.947 25.2427 110.728 25.1079 110.543 24.9394L110.829 24.5686C111.048 24.7372 111.267 24.8383 111.469 24.9057C111.67 24.9731 111.872 25.0068 112.074 25.0068C112.36 25.0068 112.613 24.9562 112.798 24.8383C112.983 24.7203 113.084 24.5686 113.084 24.4001C113.084 24.2316 113.033 24.1473 112.949 24.0799C112.865 24.0125 112.747 23.9451 112.596 23.9114C112.444 23.8777 112.293 23.844 112.125 23.8272C111.956 23.8103 111.771 23.7766 111.603 23.7597C111.435 23.726 111.267 23.6755 111.132 23.6249C110.981 23.5575 110.88 23.4733 110.779 23.3553C110.695 23.2373 110.644 23.0688 110.644 22.8666C110.644 22.6644 110.695 22.479 110.813 22.3273C110.93 22.1757 111.098 22.0577 111.3 21.9566C111.519 21.8723 111.755 21.8218 112.024 21.8218C112.293 21.8218 112.545 21.8555 112.781 21.9229C113.016 21.9903 113.252 22.1083 113.487 22.2599L113.235 22.6475C113.033 22.5127 112.831 22.4116 112.629 22.361C112.428 22.3105 112.226 22.2768 112.007 22.2768C111.788 22.2768 111.536 22.3273 111.368 22.4284C111.199 22.5296 111.115 22.6644 111.115 22.8329C111.115 23.0014 111.166 23.0688 111.25 23.1362C111.334 23.2036 111.452 23.2542 111.603 23.2879C111.755 23.3216 111.906 23.3553 112.091 23.3721C112.259 23.389 112.444 23.4227 112.613 23.4564C112.781 23.4901 112.949 23.5407 113.1 23.6081C113.252 23.6755 113.37 23.7597 113.454 23.8946C113.538 24.0125 113.588 24.181 113.588 24.4001C113.588 24.6192 113.521 24.7877 113.386 24.9562C113.252 25.1247 113.084 25.2596 112.848 25.3438C112.629 25.4449 112.36 25.4955 112.091 25.4955V25.4449Z" fill="white"/>
<path d="M29.7261 35.3876L31.4252 30.332H32.1318L33.8309 35.3876H33.2421L32.7878 33.9889H30.7691L30.3149 35.3876H29.7429H29.7261ZM30.9037 33.5339H32.6364L31.7616 30.8713L30.9037 33.5339Z" fill="white"/>
<path d="M35.0421 35.3875L34.3356 31.8655H34.8066L35.3113 34.6629L36.0179 31.8655H36.4889L37.1955 34.6629L37.6833 31.8655H38.1207L37.4142 35.3875H36.9431L36.2366 32.5564L35.53 35.3875H35.0421Z" fill="white"/>
<path d="M40.7956 35.4549C40.4591 35.4549 40.1563 35.3707 39.8871 35.219C39.618 35.0505 39.3993 34.8314 39.2479 34.5618C39.0964 34.2922 39.0123 33.972 39.0123 33.6349C39.0123 33.2979 39.0796 32.9777 39.231 32.7081C39.3824 32.4385 39.5843 32.2194 39.8367 32.0509C40.089 31.8992 40.375 31.8149 40.6946 31.8149C41.0143 31.8149 41.3171 31.8992 41.5862 32.0509C41.8386 32.2025 42.0573 32.4216 42.1919 32.6912C42.3264 32.9609 42.4106 33.2642 42.4106 33.6012V33.7529H39.517C39.5338 33.9888 39.6011 34.2079 39.7189 34.3933C39.8367 34.5787 39.9881 34.7303 40.1731 34.8483C40.3582 34.9494 40.5769 35.0168 40.7956 35.0168C41.0143 35.0168 41.1993 34.9831 41.3675 34.8988C41.5358 34.8146 41.704 34.7135 41.8218 34.5786L42.1919 34.8988C42.0068 35.0842 41.7881 35.2359 41.5526 35.337C41.3171 35.4381 41.0479 35.4887 40.7787 35.4887L40.7956 35.4549ZM39.5338 33.3485H41.9059C41.8722 33.1294 41.8049 32.944 41.6872 32.7924C41.5694 32.6238 41.4348 32.5059 41.2666 32.4048C41.0984 32.3036 40.9133 32.2699 40.6946 32.2699C40.4759 32.2699 40.3245 32.3205 40.1563 32.4048C39.9881 32.489 39.8535 32.6238 39.7525 32.7924C39.6516 32.9609 39.5675 33.1462 39.5338 33.3653V33.3485Z" fill="white"/>
<path d="M45.1358 35.4549C44.8162 35.4549 44.5302 35.4212 44.2611 35.3201C43.9919 35.2359 43.7732 35.1011 43.5881 34.9325L43.8741 34.5618C44.0928 34.7303 44.3115 34.8314 44.5134 34.8988C44.7153 34.9662 44.9171 34.9999 45.119 34.9999C45.405 34.9999 45.6574 34.9494 45.8424 34.8314C46.0275 34.7135 46.1284 34.5618 46.1284 34.3933C46.1284 34.2248 46.0779 34.1405 45.9938 34.0731C45.9097 34.0057 45.7919 33.9383 45.6405 33.9046C45.4891 33.8709 45.3377 33.8372 45.1695 33.8203C45.0013 33.8035 44.8162 33.7698 44.648 33.7529C44.4797 33.7192 44.3115 33.6686 44.1769 33.6181C44.0255 33.5507 43.9246 33.4664 43.8237 33.3485C43.7395 33.2305 43.6891 33.062 43.6891 32.8598C43.6891 32.6575 43.7395 32.4722 43.8573 32.3205C43.9751 32.1688 44.1433 32.0509 44.3452 31.9498C44.5639 31.8655 44.7994 31.8149 45.0685 31.8149C45.3377 31.8149 45.5901 31.8487 45.8256 31.9161C46.0611 31.9835 46.2966 32.1014 46.5321 32.2531L46.2798 32.6407C46.0779 32.5059 45.8761 32.4048 45.6742 32.3542C45.4723 32.3036 45.2704 32.2699 45.0517 32.2699C44.833 32.2699 44.5807 32.3205 44.4125 32.4216C44.2442 32.5227 44.1601 32.6575 44.1601 32.8261C44.1601 32.9946 44.2106 33.062 44.2947 33.1294C44.3788 33.1968 44.4966 33.2474 44.648 33.2811C44.7994 33.3148 44.9508 33.3485 45.1358 33.3653C45.3209 33.3822 45.4891 33.4159 45.6574 33.4496C45.8256 33.4833 45.9938 33.5338 46.1452 33.6012C46.2966 33.6687 46.4144 33.7529 46.4985 33.8877C46.5826 34.0057 46.6331 34.1742 46.6331 34.3933C46.6331 34.6124 46.5658 34.7809 46.4312 34.9494C46.2966 35.1179 46.1284 35.2527 45.8929 35.337C45.6742 35.4381 45.405 35.4887 45.1358 35.4887V35.4549Z" fill="white"/>
<path d="M49.6276 35.4549C49.3079 35.4549 49.022 35.3707 48.7528 35.219C48.5004 35.0505 48.2986 34.8483 48.1472 34.5618C47.9958 34.2922 47.9285 33.972 47.9285 33.6349C47.9285 33.2979 48.0126 32.9777 48.1472 32.7081C48.2818 32.4385 48.5004 32.2194 48.7528 32.0509C49.0051 31.8992 49.2911 31.8149 49.6276 31.8149C49.964 31.8149 50.2332 31.8992 50.5024 32.0509C50.7547 32.2025 50.9566 32.4216 51.108 32.7081C51.2594 32.9946 51.3267 33.2979 51.3267 33.6349C51.3267 33.972 51.2594 34.2922 51.108 34.5618C50.9566 34.8314 50.7547 35.0505 50.5024 35.219C50.25 35.3875 49.964 35.4549 49.6276 35.4549ZM49.6276 34.9831C49.8631 34.9831 50.065 34.9325 50.2332 34.8146C50.4183 34.6966 50.5528 34.5281 50.6538 34.3259C50.7547 34.1236 50.8052 33.8877 50.8052 33.6349C50.8052 33.3822 50.7547 33.1294 50.6538 32.9272C50.5528 32.7249 50.4183 32.5733 50.2332 32.4553C50.0482 32.3374 49.8463 32.2868 49.6276 32.2868C49.4089 32.2868 49.1902 32.3374 49.022 32.4553C48.8537 32.5733 48.7023 32.7249 48.6014 32.9272C48.5004 33.1294 48.45 33.3653 48.45 33.6349C48.45 33.9046 48.5004 34.1236 48.6014 34.3259C48.7023 34.5281 48.8369 34.6966 49.022 34.8146C49.207 34.9325 49.4089 34.9831 49.6276 34.9831Z" fill="white"/>
<path d="M52.4201 35.3875V31.8655H52.908V32.1688C52.9921 32.0509 53.0931 31.9498 53.194 31.8992C53.2949 31.8486 53.4127 31.8149 53.5473 31.8149C53.6819 31.8149 53.8333 31.8486 53.951 31.9329C54.0688 32.0003 54.1697 32.1183 54.237 32.2531C54.338 32.1014 54.4389 32.0003 54.5735 31.9329C54.7081 31.8655 54.8426 31.8318 55.0109 31.8318C55.2464 31.8318 55.4314 31.9161 55.5829 32.0846C55.7343 32.2531 55.8016 32.489 55.8016 32.7587V35.3875H55.3137V32.8766C55.3137 32.6744 55.2632 32.5059 55.1791 32.3879C55.095 32.2699 54.9604 32.2025 54.809 32.2025C54.6576 32.2025 54.6408 32.2194 54.5567 32.2699C54.4725 32.3036 54.4052 32.3879 54.338 32.5059C54.338 32.5396 54.338 32.5901 54.3548 32.6238C54.3548 32.6575 54.3548 32.7081 54.3548 32.7418V35.3707H53.8669V32.8598C53.8669 32.6575 53.8164 32.489 53.7323 32.3711C53.6482 32.2531 53.5136 32.1857 53.3454 32.1857C53.1772 32.1857 53.1772 32.2025 53.1099 32.2362C53.0258 32.2699 52.9585 32.3374 52.8912 32.4553V35.3538H52.4033L52.4201 35.3875Z" fill="white"/>
<path d="M58.6447 35.4549C58.3082 35.4549 58.0054 35.3707 57.7362 35.219C57.4671 35.0505 57.2484 34.8314 57.097 34.5618C56.9456 34.2922 56.8615 33.972 56.8615 33.6349C56.8615 33.2979 56.9287 32.9777 57.0801 32.7081C57.2316 32.4385 57.4334 32.2194 57.6858 32.0509C57.9381 31.8992 58.2241 31.8149 58.5437 31.8149C58.8634 31.8149 59.1662 31.8992 59.4354 32.0509C59.7045 32.2025 59.9064 32.4216 60.041 32.6912C60.1924 32.9609 60.2597 33.2642 60.2597 33.6012V33.7529H57.3661C57.383 33.9888 57.4503 34.2079 57.568 34.3933C57.6858 34.5787 57.8372 34.7303 58.0222 34.8483C58.2073 34.9494 58.426 35.0168 58.6447 35.0168C58.8634 35.0168 59.0484 34.9831 59.2167 34.8988C59.4017 34.8146 59.5531 34.7135 59.6709 34.5786L60.041 34.8988C59.8559 35.0842 59.6372 35.2359 59.4017 35.337C59.1662 35.4381 58.897 35.4887 58.6279 35.4887L58.6447 35.4549ZM57.3998 33.3485H59.7718C59.7382 33.1294 59.6709 32.944 59.5531 32.7924C59.4354 32.6238 59.3008 32.5059 59.1325 32.4048C58.9643 32.3036 58.7793 32.2699 58.5606 32.2699C58.3419 32.2699 58.1905 32.3205 58.0222 32.4048C57.854 32.489 57.7194 32.6238 57.6185 32.7924C57.5175 32.9609 57.4334 33.1462 57.3998 33.3653V33.3485Z" fill="white"/>
<path d="M63.0187 32.5902C62.8841 32.5902 62.7663 32.5396 62.6822 32.4554C62.5981 32.3711 62.5476 32.2532 62.5476 32.1183C62.5476 31.9835 62.5981 31.8824 62.6822 31.7813C62.7663 31.697 62.8841 31.6465 63.0187 31.6465C63.1532 31.6465 63.271 31.697 63.3551 31.7813C63.4392 31.8656 63.4897 31.9835 63.4897 32.1183C63.4897 32.2532 63.4392 32.3543 63.3551 32.4554C63.271 32.5396 63.1532 32.5902 63.0187 32.5902ZM63.0187 35.455C62.8841 35.455 62.7663 35.4045 62.6822 35.3202C62.5981 35.2359 62.5476 35.118 62.5476 34.9832C62.5476 34.8483 62.5981 34.7472 62.6822 34.6461C62.7663 34.5619 62.8841 34.5113 63.0187 34.5113C63.1532 34.5113 63.271 34.5619 63.3551 34.6461C63.4392 34.7304 63.4897 34.8483 63.4897 34.9832C63.4897 35.118 63.4392 35.2191 63.3551 35.3202C63.271 35.4045 63.1532 35.455 63.0187 35.455Z" fill="white"/>
<path d="M71.6656 35.3876V33.3148L69.9497 30.332H70.5553L71.9516 32.8261L73.3479 30.332H73.9199L72.204 33.3148V35.3707H71.6488L71.6656 35.3876Z" fill="white"/>
<path d="M74.946 35.3876V30.332H78.0919V30.8207H75.4844V32.5902H77.2003V33.0789H75.4844V34.8989H78.1087V35.3876H74.9292H74.946Z" fill="white"/>
<path d="M80.9518 35.4719C80.6154 35.4719 80.2957 35.4045 80.0098 35.2865C79.7069 35.1517 79.4041 34.9663 79.1013 34.6798L79.4378 34.2585C79.7406 34.5282 79.9929 34.7135 80.2285 34.8315C80.464 34.9495 80.6995 35 80.9687 35C81.2378 35 81.3892 34.9663 81.5575 34.8821C81.7257 34.7978 81.8603 34.6798 81.9612 34.5282C82.0622 34.3765 82.1126 34.2248 82.1126 34.0395C82.1126 33.8541 82.0622 33.6687 81.9612 33.5508C81.8603 33.4328 81.7257 33.3317 81.5575 33.2643C81.3892 33.1969 81.2042 33.1295 81.0023 33.0789C80.8004 33.0283 80.5986 32.9778 80.3967 32.9104C80.1948 32.8598 80.0098 32.7756 79.8415 32.6745C79.6733 32.5734 79.5387 32.4385 79.4378 32.27C79.3368 32.1015 79.2864 31.8824 79.2864 31.6128C79.2864 31.3432 79.3537 31.1072 79.4882 30.905C79.6228 30.7028 79.8079 30.5511 80.0434 30.4332C80.2789 30.3152 80.5481 30.2646 80.8677 30.2646C81.1874 30.2646 81.4733 30.3152 81.7425 30.4163C82.0285 30.5174 82.3145 30.6691 82.6341 30.905L82.3481 31.3432C82.079 31.1409 81.8266 30.9893 81.5911 30.8882C81.3388 30.7871 81.1032 30.7365 80.8677 30.7365C80.6322 30.7365 80.3126 30.8208 80.1107 30.9724C79.9088 31.1241 79.8247 31.3263 79.8247 31.5622C79.8247 31.7982 79.8752 31.9498 79.9761 32.0678C80.077 32.1858 80.2116 32.2869 80.3799 32.3711C80.5481 32.4554 80.7331 32.5059 80.935 32.5565C81.1369 32.6071 81.3388 32.6576 81.5406 32.725C81.7425 32.7924 81.9276 32.8598 82.0958 32.9609C82.264 33.0621 82.3986 33.1969 82.4995 33.3654C82.6005 33.5339 82.6509 33.753 82.6509 34.0226C82.6509 34.2922 82.5837 34.545 82.4323 34.7809C82.2808 35 82.079 35.1854 81.8266 35.3034C81.5743 35.4213 81.2715 35.4887 80.9518 35.4887V35.4719Z" fill="white"/>
<path d="M235.74 -35.2722H212.339C205.879 -35.2722 200.647 -30.0313 200.647 -23.5602V-0.119255C200.647 6.35186 205.879 11.5928 212.339 11.5928H235.74C242.2 11.5928 247.432 6.35186 247.432 -0.119255V-23.5602C247.432 -30.0313 242.2 -35.2722 235.74 -35.2722Z" fill="black"/>
<path d="M223.98 0.723283C221.07 0.723283 218.261 -0.304681 216.023 -2.15838C215.67 -2.44487 215.636 -2.95042 215.922 -3.30431C216.208 -3.64135 216.713 -3.6919 217.066 -3.40542C221.709 0.436802 228.573 -0.220421 232.409 -4.85468C233.923 -6.69153 234.798 -8.96653 234.899 -11.3426C234.899 -11.7808 235.269 -12.1347 235.706 -12.1178H235.74C236.194 -12.101 236.53 -11.7134 236.514 -11.2752C236.228 -4.55135 230.71 0.740136 223.997 0.740136L223.98 0.723283Z" fill="#EE0000"/>
</g>
</g>
<defs>
<clipPath id="clip0_910_5083">
<rect width="323" height="182" fill="white" transform="translate(0 -56)"/>
</clipPath>
</defs>
</svg>
