<svg width="322" height="118" viewBox="0 0 322 118" fill="none" xmlns="http://www.w3.org/2000/svg">
<mask id="mask0_910_6560" style="mask-type:alpha" maskUnits="userSpaceOnUse" x="0" y="0" width="322" height="118">
<rect width="322" height="118" fill="#F0F0F0"/>
</mask>
<g mask="url(#mask0_910_6560)">
<path d="M0 -37H326V83H0V-37Z" fill="#F0F0F0"/>
<g clip-path="url(#clip0_910_6560)">
<path d="M324.978 -31.0933H-2.99463V136.205H324.978V-31.0933Z" fill="#151515"/>
<path d="M329.003 -21.0723H-17.533V145.984H329.003V-21.0723Z" fill="url(#paint0_linear_910_6560)"/>
<path d="M18.6375 5.94336V5.18736H20.7615V-1.52064L18.6375 -0.584641V-1.37664L21.0855 -2.45664H21.6255V5.18736H24.0495V5.94336H18.6375Z" fill="#707070"/>
<path d="M18.5175 19.2834V18.6474L21.8775 14.9754C22.1415 14.6874 22.3455 14.4354 22.4895 14.2194C22.6415 13.9954 22.7455 13.7874 22.8015 13.5954C22.8655 13.4034 22.8975 13.1994 22.8975 12.9834C22.8975 12.5594 22.7295 12.2114 22.3935 11.9394C22.0655 11.6594 21.6455 11.5194 21.1335 11.5194C20.7415 11.5194 20.3775 11.5954 20.0415 11.7474C19.7055 11.8994 19.3295 12.1634 18.9135 12.5394L18.4095 11.9394C18.8495 11.5394 19.2935 11.2434 19.7415 11.0514C20.1895 10.8514 20.6575 10.7514 21.1455 10.7514C21.6495 10.7514 22.0975 10.8474 22.4895 11.0394C22.8815 11.2234 23.1895 11.4794 23.4135 11.8074C23.6375 12.1354 23.7495 12.5114 23.7495 12.9354C23.7495 13.2154 23.7135 13.4754 23.6415 13.7154C23.5695 13.9474 23.4415 14.1994 23.2575 14.4714C23.0735 14.7354 22.8095 15.0554 22.4655 15.4314L19.5975 18.5394L23.9295 18.5274V19.2834H18.5175Z" fill="#707070"/>
<path d="M21.0615 32.7553C20.4855 32.7553 19.9455 32.6553 19.4415 32.4553C18.9455 32.2553 18.5055 31.9593 18.1215 31.5673L18.6975 31.0033C19.0495 31.3553 19.4095 31.6113 19.7775 31.7713C20.1535 31.9233 20.5775 31.9993 21.0495 31.9993C21.4575 31.9993 21.8175 31.9273 22.1295 31.7833C22.4495 31.6393 22.6975 31.4393 22.8735 31.1833C23.0495 30.9273 23.1375 30.6353 23.1375 30.3073C23.1375 29.9953 23.0575 29.7193 22.8975 29.4793C22.7455 29.2313 22.5335 29.0393 22.2615 28.9033C21.9895 28.7673 21.6775 28.6993 21.3255 28.6993H20.3295V27.9553H21.2895C21.7455 27.9553 22.1135 27.8153 22.3935 27.5353C22.6815 27.2553 22.8255 26.8913 22.8255 26.4433C22.8255 26.1473 22.7455 25.8793 22.5855 25.6393C22.4255 25.3993 22.2055 25.2113 21.9255 25.0753C21.6535 24.9313 21.3455 24.8593 21.0015 24.8593C20.5695 24.8593 20.1815 24.9393 19.8375 25.0993C19.5015 25.2513 19.1575 25.5113 18.8055 25.8793L18.2295 25.3033C18.6055 24.9033 19.0295 24.6033 19.5015 24.4033C19.9735 24.1953 20.4775 24.0913 21.0135 24.0913C21.5255 24.0913 21.9815 24.1913 22.3815 24.3913C22.7895 24.5913 23.1095 24.8673 23.3415 25.2193C23.5735 25.5633 23.6895 25.9553 23.6895 26.3953C23.6895 26.8353 23.5455 27.2313 23.2575 27.5833C22.9695 27.9273 22.5895 28.1673 22.1175 28.3033C22.6855 28.4313 23.1415 28.6793 23.4855 29.0473C23.8295 29.4153 24.0015 29.8433 24.0015 30.3313C24.0015 30.7953 23.8735 31.2113 23.6175 31.5793C23.3695 31.9473 23.0215 32.2353 22.5735 32.4433C22.1335 32.6513 21.6295 32.7553 21.0615 32.7553Z" fill="#707070"/>
<path d="M22.5135 45.9634V43.7194H17.9775V43.0354L22.4415 37.5634H23.3655V42.9634H24.5295V43.7194H23.3655V45.9634H22.5135ZM18.9855 42.9634H22.5135V38.6074L18.9855 42.9634Z" fill="#707070"/>
<path d="M21.0855 59.4355C19.9815 59.4355 19.0295 59.0555 18.2295 58.2955L18.7695 57.7075C19.1375 58.0515 19.5015 58.3035 19.8615 58.4635C20.2295 58.6155 20.6415 58.6915 21.0975 58.6915C21.5055 58.6915 21.8655 58.6075 22.1775 58.4395C22.4895 58.2715 22.7295 58.0355 22.8975 57.7315C23.0735 57.4275 23.1615 57.0795 23.1615 56.6875C23.1615 56.1275 22.9695 55.6755 22.5855 55.3315C22.2095 54.9875 21.7135 54.8155 21.0975 54.8155C20.7775 54.8155 20.4655 54.8555 20.1615 54.9355C19.8575 55.0075 19.5415 55.1275 19.2135 55.2955L18.6135 55.1035L18.8055 50.9035H23.5815V51.6595H19.5495L19.4175 54.5635C19.7375 54.4035 20.0455 54.2915 20.3415 54.2275C20.6375 54.1555 20.9495 54.1195 21.2775 54.1195C21.8295 54.1195 22.3095 54.2275 22.7175 54.4435C23.1335 54.6515 23.4535 54.9475 23.6775 55.3315C23.9095 55.7075 24.0255 56.1475 24.0255 56.6515C24.0255 57.2035 23.9015 57.6875 23.6535 58.1035C23.4055 58.5195 23.0615 58.8475 22.6215 59.0875C22.1815 59.3195 21.6695 59.4355 21.0855 59.4355Z" fill="#707070"/>
<path d="M21.4815 72.7633C20.8335 72.7633 20.2615 72.5913 19.7655 72.2473C19.2775 71.9033 18.8935 71.4313 18.6135 70.8313C18.3335 70.2233 18.1935 69.5233 18.1935 68.7313C18.1935 67.8033 18.3495 66.9953 18.6615 66.3073C18.9735 65.6113 19.4135 65.0713 19.9815 64.6873C20.5495 64.3033 21.2095 64.1113 21.9615 64.1113C22.3135 64.1113 22.6615 64.1593 23.0055 64.2553C23.3495 64.3513 23.6575 64.4913 23.9295 64.6753L23.4975 65.3473C23.2495 65.2033 22.9895 65.0913 22.7175 65.0113C22.4455 64.9313 22.1695 64.8913 21.8895 64.8913C21.3135 64.8913 20.8135 65.0433 20.3895 65.3473C19.9735 65.6433 19.6495 66.0713 19.4175 66.6313C19.1935 67.1913 19.0735 67.8633 19.0575 68.6473C19.3695 68.2473 19.7415 67.9353 20.1735 67.7113C20.6055 67.4873 21.0535 67.3753 21.5175 67.3753C22.0615 67.3753 22.5455 67.4873 22.9695 67.7113C23.3935 67.9353 23.7255 68.2473 23.9655 68.6473C24.2055 69.0393 24.3255 69.4873 24.3255 69.9913C24.3255 70.5193 24.2015 70.9953 23.9535 71.4193C23.7055 71.8353 23.3655 72.1633 22.9335 72.4033C22.5095 72.6433 22.0255 72.7633 21.4815 72.7633ZM21.3975 68.0833C20.9575 68.0833 20.5335 68.1953 20.1255 68.4193C19.7255 68.6353 19.3775 68.9353 19.0815 69.3193C19.1455 69.8553 19.2815 70.3273 19.4895 70.7353C19.7055 71.1353 19.9815 71.4473 20.3175 71.6713C20.6615 71.8953 21.0455 72.0073 21.4695 72.0073C21.8535 72.0073 22.1935 71.9233 22.4895 71.7553C22.7935 71.5793 23.0295 71.3393 23.1975 71.0353C23.3735 70.7313 23.4615 70.3913 23.4615 70.0153C23.4615 69.6393 23.3735 69.3073 23.1975 69.0193C23.0215 68.7233 22.7775 68.4953 22.4655 68.3353C22.1615 68.1673 21.8055 68.0833 21.3975 68.0833Z" fill="#707070"/>
<path d="M19.1055 85.9834L23.2815 78.3394H18.2415V77.5834H24.2175V78.2554L20.0895 85.9834H19.1055Z" fill="#707070"/>
<path d="M21.2295 99.4552C20.6535 99.4552 20.1415 99.3512 19.6935 99.1432C19.2455 98.9352 18.8895 98.6512 18.6255 98.2912C18.3695 97.9232 18.2415 97.5112 18.2415 97.0552C18.2415 96.7112 18.3255 96.3952 18.4935 96.1072C18.6615 95.8112 18.8935 95.5592 19.1895 95.3512C19.4935 95.1352 19.8375 94.9832 20.2215 94.8952C19.7335 94.7592 19.3335 94.5152 19.0215 94.1632C18.7175 93.8112 18.5655 93.4152 18.5655 92.9752C18.5655 92.5592 18.6815 92.1872 18.9135 91.8592C19.1455 91.5312 19.4615 91.2712 19.8615 91.0792C20.2695 90.8872 20.7255 90.7912 21.2295 90.7912C21.7415 90.7912 22.1975 90.8872 22.5975 91.0792C22.9975 91.2712 23.3135 91.5312 23.5455 91.8592C23.7775 92.1872 23.8935 92.5592 23.8935 92.9752C23.8935 93.4152 23.7415 93.8112 23.4375 94.1632C23.1335 94.5152 22.7335 94.7592 22.2375 94.8952C22.8215 95.0312 23.2975 95.2992 23.6655 95.6992C24.0335 96.0912 24.2175 96.5432 24.2175 97.0552C24.2175 97.5112 24.0895 97.9232 23.8335 98.2912C23.5775 98.6512 23.2215 98.9352 22.7655 99.1432C22.3175 99.3512 21.8055 99.4552 21.2295 99.4552ZM21.2295 94.5352C21.5735 94.5352 21.8815 94.4672 22.1535 94.3312C22.4335 94.1952 22.6535 94.0152 22.8135 93.7912C22.9735 93.5592 23.0535 93.2992 23.0535 93.0112C23.0535 92.7232 22.9735 92.4632 22.8135 92.2312C22.6535 91.9992 22.4335 91.8192 22.1535 91.6912C21.8815 91.5552 21.5735 91.4872 21.2295 91.4872C20.8855 91.4872 20.5735 91.5552 20.2935 91.6912C20.0215 91.8192 19.8055 91.9992 19.6455 92.2312C19.4855 92.4632 19.4055 92.7232 19.4055 93.0112C19.4055 93.2992 19.4855 93.5592 19.6455 93.7912C19.8055 94.0152 20.0215 94.1952 20.2935 94.3312C20.5735 94.4672 20.8855 94.5352 21.2295 94.5352ZM21.2295 98.7592C21.6375 98.7592 22.0015 98.6832 22.3215 98.5312C22.6415 98.3792 22.8935 98.1712 23.0775 97.9072C23.2695 97.6432 23.3655 97.3472 23.3655 97.0192C23.3655 96.6912 23.2695 96.3952 23.0775 96.1312C22.8935 95.8672 22.6415 95.6592 22.3215 95.5072C22.0015 95.3552 21.6375 95.2792 21.2295 95.2792C20.8215 95.2792 20.4575 95.3552 20.1375 95.5072C19.8175 95.6592 19.5615 95.8672 19.3695 96.1312C19.1855 96.3952 19.0935 96.6912 19.0935 97.0192C19.0935 97.3472 19.1855 97.6432 19.3695 97.9072C19.5615 98.1712 19.8175 98.3792 20.1375 98.5312C20.4575 98.6832 20.8215 98.7592 21.2295 98.7592Z" fill="#707070"/>
<path d="M20.9775 104.143C21.6255 104.143 22.1935 104.315 22.6815 104.659C23.1775 105.003 23.5655 105.479 23.8455 106.087C24.1255 106.687 24.2655 107.383 24.2655 108.175C24.2655 109.103 24.1095 109.915 23.7975 110.611C23.4855 111.299 23.0455 111.835 22.4775 112.219C21.9095 112.603 21.2495 112.795 20.4975 112.795C20.1455 112.795 19.7975 112.747 19.4535 112.651C19.1095 112.555 18.8015 112.415 18.5295 112.231L18.9615 111.559C19.2095 111.703 19.4695 111.815 19.7415 111.895C20.0135 111.975 20.2895 112.015 20.5695 112.015C21.1455 112.015 21.6415 111.867 22.0575 111.571C22.4815 111.267 22.8055 110.835 23.0295 110.275C23.2615 109.715 23.3855 109.043 23.4015 108.259C23.0895 108.659 22.7175 108.971 22.2855 109.195C21.8535 109.419 21.4055 109.531 20.9415 109.531C20.3975 109.531 19.9135 109.419 19.4895 109.195C19.0655 108.971 18.7335 108.663 18.4935 108.271C18.2535 107.871 18.1335 107.419 18.1335 106.915C18.1335 106.387 18.2575 105.915 18.5055 105.499C18.7535 105.075 19.0895 104.743 19.5135 104.503C19.9455 104.263 20.4335 104.143 20.9775 104.143ZM21.0615 108.823C21.5015 108.823 21.9215 108.715 22.3215 108.499C22.7295 108.275 23.0815 107.971 23.3775 107.587C23.3135 107.051 23.1735 106.583 22.9575 106.183C22.7495 105.775 22.4735 105.459 22.1295 105.235C21.7935 105.011 21.4135 104.899 20.9895 104.899C20.6055 104.899 20.2615 104.987 19.9575 105.163C19.6615 105.331 19.4255 105.567 19.2495 105.871C19.0815 106.175 18.9975 106.515 18.9975 106.891C18.9975 107.267 19.0855 107.603 19.2615 107.899C19.4375 108.187 19.6775 108.415 19.9815 108.583C20.2935 108.743 20.6535 108.823 21.0615 108.823Z" fill="#707070"/>
<path d="M11.9721 126.003V125.247H14.0961V118.539L11.9721 119.475V118.683L14.4201 117.603H14.9601V125.247H17.3841V126.003H11.9721ZM14.5641 142.135C13.9641 142.135 13.4281 141.959 12.9561 141.607C12.4921 141.255 12.1281 140.755 11.8641 140.107C11.6001 139.459 11.4681 138.691 11.4681 137.803C11.4681 136.907 11.6001 136.139 11.8641 135.499C12.1281 134.851 12.4921 134.351 12.9561 133.999C13.4281 133.647 13.9641 133.471 14.5641 133.471C15.1721 133.471 15.7081 133.647 16.1721 133.999C16.6361 134.351 17.0001 134.851 17.2641 135.499C17.5281 136.139 17.6601 136.907 17.6601 137.803C17.6601 138.691 17.5281 139.459 17.2641 140.107C17.0001 140.755 16.6361 141.255 16.1721 141.607C15.7081 141.959 15.1721 142.135 14.5641 142.135ZM12.3441 137.803C12.3441 138.299 12.3881 138.755 12.4761 139.171C12.5721 139.579 12.7001 139.935 12.8601 140.239L15.7161 134.671C15.3881 134.391 15.0041 134.251 14.5641 134.251C14.1161 134.251 13.7241 134.399 13.3881 134.695C13.0601 134.983 12.8041 135.395 12.6201 135.931C12.4361 136.459 12.3441 137.083 12.3441 137.803ZM14.5641 141.355C15.0121 141.355 15.4001 141.211 15.7281 140.923C16.0641 140.627 16.3241 140.215 16.5081 139.687C16.6921 139.151 16.7841 138.523 16.7841 137.803C16.7841 137.307 16.7361 136.855 16.6401 136.447C16.5521 136.031 16.4281 135.671 16.2681 135.367L13.4121 140.935C13.7401 141.215 14.1241 141.355 14.5641 141.355Z" fill="#707070"/>
<path d="M308.669 107.301C308.669 99.9384 302.696 93.9773 295.338 93.9773C290.283 93.9773 285.678 96.829 283.424 101.356C277.725 100.68 272.541 104.756 271.865 110.459C271.188 116.162 275.262 121.35 280.961 122.027C281.364 122.075 281.782 122.107 282.201 122.107H307.768C307.896 122.107 308.025 122.075 308.154 122.027C312.211 121.334 314.948 117.467 314.256 113.407C313.757 110.475 311.567 108.123 308.669 107.414V107.317V107.301ZM307.027 120.255H282.185C277.435 120.287 273.571 116.468 273.539 111.716C273.507 106.963 277.323 103.096 282.072 103.064C282.652 103.064 283.215 103.112 283.779 103.225C284.197 103.306 284.616 103.08 284.793 102.693C287.305 96.8612 294.067 94.1545 299.895 96.6679C304.129 98.4884 306.866 102.661 306.85 107.269V107.994C306.818 108.477 307.188 108.912 307.671 108.961C310.762 109.347 312.968 112.167 312.582 115.276C312.227 118.08 309.877 120.19 307.075 120.238H307.027V120.255Z" fill="#707070"/>
<path d="M140.408 74.1284C135.787 74.1284 132.181 70.5356 132.181 65.9601C132.181 61.3845 135.804 57.7917 140.408 57.7917C145.013 57.7917 148.667 61.3845 148.667 65.9601C148.667 70.5356 145.013 74.1284 140.408 74.1284ZM140.408 59.9829C137.124 59.9829 134.596 62.5606 134.596 65.9601C134.596 69.3595 137.124 71.9373 140.408 71.9373C143.693 71.9373 146.236 69.3273 146.236 65.9601C146.236 62.5929 143.709 59.9829 140.408 59.9829Z" fill="white"/>
<path d="M150.921 62.3673H153.159V63.479C154.141 62.6251 155.397 62.174 156.685 62.1901C159.953 62.1901 162.497 64.8001 162.497 68.119C162.497 71.4379 159.937 74.064 156.637 74.064C155.397 74.064 154.174 73.6773 153.175 72.9362V78.5751H150.921V62.3673ZM153.191 65.5251V70.729C153.916 71.5668 155.107 72.0823 156.395 72.0823C158.617 72.0823 160.292 70.3907 160.292 68.119C160.292 65.8473 158.601 64.1396 156.395 64.1396C154.19 64.1396 153.932 64.639 153.191 65.5251Z" fill="white"/>
<path d="M170.225 74.0799C166.828 74.0799 164.188 71.4699 164.188 68.1027C164.188 64.7355 166.715 62.1738 169.952 62.1738C173.188 62.1738 175.506 64.7999 175.506 68.1994V68.8599H166.426C166.715 70.7772 168.374 72.1949 170.322 72.1627C171.384 72.1788 172.415 71.8244 173.236 71.1638L174.685 72.5977C173.429 73.6127 171.851 74.1444 170.225 74.0961V74.0799ZM166.442 67.1522H173.268C172.93 65.3799 171.578 64.0749 169.903 64.0749C168.229 64.0749 166.78 65.3155 166.442 67.1522Z" fill="white"/>
<path d="M177.663 62.3672H179.917V63.5272C180.835 62.6088 182.091 62.1094 183.379 62.1416C186.019 62.1416 187.887 63.9783 187.887 66.6527V73.8866H185.633V67.0233C185.633 65.2188 184.522 64.1072 182.783 64.1072C181.64 64.0749 180.561 64.6388 179.934 65.6055V73.8866H177.68V62.3672H177.663Z" fill="white"/>
<path d="M190.785 69.5851C192.508 71.2606 194.263 72.0823 196.243 72.0823C198.223 72.0823 200.091 70.9868 200.091 69.4401C200.091 67.8934 199.189 67.3295 196.887 66.9429L194.246 66.5079C191.348 66.0406 189.932 64.6712 189.932 62.3834C189.932 60.0956 192.234 57.8401 195.776 57.8401C198.078 57.8401 200.316 58.5973 202.152 59.9829L200.847 61.7873C199.125 60.4823 197.434 59.8379 195.663 59.8379C193.892 59.8379 192.218 60.7884 192.218 62.1901C192.218 63.5918 193.007 64.0912 195.051 64.4295L197.595 64.8323C200.944 65.3801 202.457 66.7495 202.457 69.2306C202.457 71.7118 199.93 74.0962 196.146 74.0962C193.586 74.0962 191.155 73.0651 189.368 71.2445L190.817 69.5851H190.785Z" fill="white"/>
<path d="M204.341 58.0334L206.595 57.5339V63.5112C207.513 62.5928 208.769 62.0934 210.057 62.1256C212.697 62.1256 214.565 63.9623 214.565 66.6367V73.8706H212.311V67.0073C212.311 65.2028 211.2 64.0911 209.461 64.0911C208.318 64.0589 207.239 64.6228 206.611 65.5895V73.8706H204.357V58.0334H204.341Z" fill="white"/>
<path d="M216.915 59.0967C216.915 58.3234 217.527 57.6951 218.3 57.6951C219.073 57.7273 219.684 58.3717 219.652 59.1451C219.62 59.8701 219.04 60.4662 218.3 60.4984C217.527 60.4984 216.915 59.8701 216.915 59.0967ZM219.427 73.8867H217.173V62.3673H219.427V73.8867Z" fill="white"/>
<path d="M223.822 62.3672V60.6272C223.822 58.2266 225.207 56.9216 227.734 56.9216C228.282 56.9216 228.829 56.9861 229.361 57.1311V59.0966C228.894 58.9516 228.427 58.8872 227.944 58.8872C226.704 58.8872 226.092 59.4511 226.092 60.6755V62.3672H229.377V64.2683H226.092V73.8866H223.838V64.2683H221.166V62.3672H223.838H223.822Z" fill="white"/>
<path d="M232.79 64.2683H230.343V62.3672H232.79V59.4189L235.028 58.8711V62.3511H238.425V64.2522H235.028V70.4872C235.028 71.6633 235.511 72.0983 236.718 72.0983C237.282 72.0983 237.845 72.0178 238.377 71.8244V73.7255C237.684 73.935 236.96 74.0639 236.235 74.0639C233.997 74.0639 232.79 73.0005 232.79 71.0189V64.2522V64.2683Z" fill="white"/>
<path d="M111.187 44.6128C113.907 44.6128 117.836 44.0489 117.836 40.8106C117.836 40.5528 117.836 40.3111 117.771 40.0695L116.145 33.0289C115.775 31.4822 115.437 30.7734 112.732 29.42C110.623 28.3406 106.018 26.5522 104.666 26.5522C103.314 26.5522 103.024 28.1956 101.527 28.1956C100.029 28.1956 98.9989 26.9711 97.6304 26.9711C96.2619 26.9711 95.473 27.8572 94.8129 29.6939C94.8129 29.6939 92.9775 34.8495 92.7521 35.6067C92.7199 35.7517 92.6877 35.8806 92.7038 36.0256C92.7038 38.0395 100.609 44.6128 111.187 44.6128ZM118.271 42.1156C118.641 43.9039 118.641 44.0811 118.641 44.3228C118.641 47.3678 115.212 49.0595 110.72 49.0595C100.528 49.0595 91.6412 43.0984 91.6412 39.1672C91.6412 38.6195 91.7539 38.0717 91.9632 37.5722C88.3085 37.7495 83.5751 38.41 83.5751 42.5828C83.5751 49.43 99.7878 57.8722 112.636 57.8722C125.483 57.8722 124.968 53.4095 124.968 49.8972C124.968 46.385 122.569 43.9845 118.271 42.1156Z" fill="#EE0000"/>
<path d="M118.255 42.1156C118.625 43.9039 118.625 44.0811 118.625 44.3228C118.625 47.3678 115.196 49.0595 110.704 49.0595C100.528 49.0595 91.6251 43.0984 91.6251 39.1672C91.6251 38.6195 91.7378 38.0717 91.9471 37.5722L92.736 35.6067C92.7038 35.7356 92.6716 35.8806 92.6877 36.0256C92.6877 38.0395 100.593 44.6128 111.171 44.6128C121.748 44.6128 117.82 44.0489 117.82 40.8106C117.82 40.5528 117.82 40.3111 117.755 40.0695L118.238 42.1317L118.255 42.1156Z" fill="black"/>
<path d="M209.525 46.6266C209.525 49.2205 211.087 50.4772 213.921 50.4772C214.79 50.4611 215.66 50.3322 216.513 50.1066V47.11C215.965 47.2872 215.402 47.3678 214.838 47.3678C213.663 47.3678 213.245 46.9972 213.245 45.9016V41.2939H216.626V38.2005H213.245V34.2855L209.542 35.0911V38.2005H207.094V41.2939H209.542V46.6266H209.525ZM197.998 46.6911C197.998 45.8855 198.803 45.4989 200.01 45.4989C200.751 45.4989 201.492 45.5955 202.2 45.7728V47.3355C201.492 47.7222 200.703 47.9155 199.898 47.9155C198.706 47.9155 197.998 47.4644 197.998 46.7072M199.141 50.5255C200.445 50.5255 201.492 50.2516 202.474 49.5911V50.3322H206.128V42.5666C206.128 39.6183 204.148 37.9911 200.831 37.9911C197.515 37.9911 197.145 38.4261 195.18 39.3122L196.501 42.035C197.917 41.4389 199.109 41.0683 200.155 41.0683C201.685 41.0683 202.458 41.6644 202.458 42.8728V43.4689C201.556 43.2433 200.638 43.1144 199.721 43.1305C196.613 43.1305 194.73 44.4355 194.73 46.7716C194.73 49.1078 196.42 50.5255 199.125 50.5255M179.032 50.3161H182.96V44.0328H189.545V50.3H193.474V34.2855H189.545V40.44H182.96V34.2855H179.032V50.3161ZM164.059 44.2583C164.059 42.5183 165.428 41.1972 167.231 41.1972C168.165 41.1811 169.082 41.5194 169.791 42.1316V46.3528C169.098 46.9972 168.181 47.3516 167.231 47.3194C165.444 47.3194 164.059 45.9983 164.059 44.2583ZM169.839 50.3H173.494V33.48L169.791 34.2855V38.845C168.857 38.3133 167.778 38.0394 166.699 38.0394C163.174 38.0394 160.404 40.7622 160.404 44.2422C160.356 47.6416 163.077 50.4289 166.458 50.4772C166.49 50.4772 166.522 50.4772 166.571 50.4772C167.73 50.4772 168.873 50.1066 169.823 49.43V50.3H169.839ZM153.063 41.02C154.222 41.02 155.204 41.7772 155.607 42.9372H150.567C150.938 41.7289 151.855 41.02 153.079 41.02M146.816 44.2744C146.816 47.8028 149.698 50.5416 153.401 50.5416C157.104 50.5416 156.927 49.9939 158.456 48.705L156.009 46.53C155.429 47.1261 154.592 47.4483 153.594 47.4483C152.306 47.4805 151.115 46.7233 150.616 45.5311H159.245V44.6128C159.245 40.7622 156.669 38.0072 153.143 38.0072C149.714 37.9589 146.896 40.6978 146.832 44.1294C146.832 44.1778 146.832 44.2261 146.832 44.2744M140.44 37.6528C141.744 37.6528 142.469 38.4744 142.469 39.4572C142.469 40.44 141.728 41.2616 140.44 41.2616H136.56V37.6528H140.44ZM132.6 50.3161H136.528V44.4839H139.523L142.549 50.3161H146.945L143.419 43.9039C145.254 43.1628 146.446 41.3744 146.43 39.3928C146.43 36.5089 144.159 34.2855 140.778 34.2855H132.6V50.3V50.3161Z" fill="white"/>
</g>
</g>
<defs>
<linearGradient id="paint0_linear_910_6560" x1="155.735" y1="145.984" x2="155.735" y2="-21.0723" gradientUnits="userSpaceOnUse">
<stop stop-opacity="0.9"/>
<stop offset="1" stop-opacity="0"/>
</linearGradient>
<clipPath id="clip0_910_6560">
<rect width="322" height="174" fill="white" transform="translate(0 -28)"/>
</clipPath>
</defs>
</svg>
