<svg width="20" height="16" viewBox="0 0 20 16" fill="none" xmlns="http://www.w3.org/2000/svg">
<path d="M3.75 11H6.75V9.5H4.25V6.5H6.75V5H3.75C3.46667 5 3.22917 5.09583 3.0375 5.2875C2.84583 5.47917 2.75 5.71667 2.75 6V10C2.75 10.2833 2.84583 10.5208 3.0375 10.7125C3.22917 10.9042 3.46667 11 3.75 11ZM7.65 11H10.65C10.9333 11 11.1708 10.9042 11.3625 10.7125C11.5542 10.5208 11.65 10.2833 11.65 10V8.5C11.65 8.21667 11.5542 7.95417 11.3625 7.7125C11.1708 7.47083 10.9333 7.35 10.65 7.35H9.15V6.5H11.65V5H8.65C8.36667 5 8.12917 5.09583 7.9375 5.2875C7.74583 5.47917 7.65 5.71667 7.65 6V7.5C7.65 7.78333 7.74583 8.0375 7.9375 8.2625C8.12917 8.4875 8.36667 8.6 8.65 8.6H10.15V9.5H7.65V11ZM14.25 11H15.75L17.5 5H16L15 8.45L14 5H12.5L14.25 11ZM2 16C1.45 16 0.979167 15.8042 0.5875 15.4125C0.195833 15.0208 0 14.55 0 14V2C0 1.45 0.195833 0.979167 0.5875 0.5875C0.979167 0.195833 1.45 0 2 0H18C18.55 0 19.0208 0.195833 19.4125 0.5875C19.8042 0.979167 20 1.45 20 2V14C20 14.55 19.8042 15.0208 19.4125 15.4125C19.0208 15.8042 18.55 16 18 16H2ZM2 14H18V2H2V14Z" fill="black"/>
</svg>
