<svg width="20" height="20" viewBox="0 0 20 20" fill="none" xmlns="http://www.w3.org/2000/svg">
<g clip-path="url(#clip0_2455_5384)">
<path d="M15 0H5C2.23889 0 0 2.23889 0 5V15C0 17.7611 2.23889 20 5 20H15C17.7611 20 20 17.7611 20 15V5C20 2.23889 17.7611 0 15 0ZM19.3056 15C19.3056 17.3722 17.3722 19.3056 15 19.3056H5C2.62778 19.3056 0.694444 17.3722 0.694444 15V5C0.694444 2.62778 2.62778 0.694444 5 0.694444H15C17.3722 0.694444 19.3056 2.62778 19.3056 5V15Z" fill="#151515"/>
<path d="M10.5556 8.12223C10.7445 8.12223 10.9 7.96667 10.9 7.77778V3.88889C10.9 3.7 10.7445 3.54445 10.5556 3.54445C10.3667 3.54445 10.2111 3.7 10.2111 3.88889V7.77778C10.2111 7.96667 10.3667 8.12223 10.5556 8.12223Z" fill="#151515"/>
<path d="M8.67778 10C8.67778 9.81112 8.52223 9.65556 8.33334 9.65556H4.44445C4.25556 9.65556 4.10001 9.81112 4.10001 10C4.10001 10.1889 4.25556 10.3445 4.44445 10.3445H8.33334C8.52223 10.3445 8.67778 10.1889 8.67778 10Z" fill="#151515"/>
<path d="M10.5556 11.8778C10.3667 11.8778 10.2111 12.0333 10.2111 12.2222V16.1111C10.2111 16.3 10.3667 16.4556 10.5556 16.4556C10.7445 16.4556 10.9 16.3 10.9 16.1111V12.2222C10.9 12.0333 10.7445 11.8778 10.5556 11.8778Z" fill="#151515"/>
<path d="M16.4333 9.86666C16.4333 9.86666 16.4056 9.81666 16.3889 9.79443C16.3778 9.78332 16.3722 9.76666 16.3611 9.74999L15.25 8.63888C15.1167 8.50555 14.8945 8.50555 14.7611 8.63888C14.6278 8.77221 14.6278 8.99443 14.7611 9.12777L15.2778 9.64444H10.0056C9.81667 9.64444 9.66112 9.79999 9.66112 9.98888C9.66112 10.1778 9.81667 10.3333 10.0056 10.3333H15.2778L14.7611 10.85C14.6278 10.9833 14.6278 11.2055 14.7611 11.3389C14.8278 11.4055 14.9167 11.4389 15.0056 11.4389C15.0945 11.4389 15.1833 11.4055 15.25 11.3389L16.3611 10.2278C16.3611 10.2278 16.3778 10.2 16.3889 10.1833C16.4056 10.1611 16.4222 10.1389 16.4333 10.1111C16.45 10.0722 16.4556 10.0333 16.4556 9.99443C16.4556 9.99443 16.4556 9.98332 16.4556 9.97777C16.4556 9.97221 16.4556 9.96666 16.4556 9.9611C16.4556 9.92221 16.45 9.88332 16.4333 9.84443V9.86666Z" fill="#151515"/>
<path d="M8.64444 8.57778C8.71111 8.64445 8.8 8.67778 8.88889 8.67778C8.97778 8.67778 9.06666 8.64445 9.13333 8.57778C9.26666 8.44445 9.26666 8.22223 9.13333 8.08889L6.91111 5.86667C6.77777 5.73334 6.55555 5.73334 6.42222 5.86667C6.28889 6 6.28889 6.22223 6.42222 6.35556L8.64444 8.57778Z" fill="#151515"/>
<path d="M9.13333 11.4222C9 11.2889 8.77778 11.2889 8.64444 11.4222L6.42222 13.6444C6.28889 13.7778 6.28889 14 6.42222 14.1333C6.48889 14.2 6.57778 14.2333 6.66666 14.2333C6.75555 14.2333 6.84444 14.2 6.91111 14.1333L9.13333 11.9111C9.26666 11.7778 9.26666 11.5556 9.13333 11.4222Z" fill="#151515"/>
<path d="M9.22778 5.48333C9.18889 5.29444 9.00556 5.17222 8.81667 5.21666C8.62778 5.25555 8.51112 5.43888 8.55 5.62777L8.78334 6.73888C8.81667 6.89999 8.96112 7.01666 9.12223 7.01666C9.14445 7.01666 9.17223 7.01666 9.19445 7.0111C9.38334 6.97222 9.5 6.78888 9.46112 6.59999L9.22778 5.48888V5.48333Z" fill="#151515"/>
<path d="M6.03888 8.67221L7.15 8.90554C7.15 8.90554 7.2 8.9111 7.22222 8.9111C7.38333 8.9111 7.52777 8.79999 7.56111 8.63332C7.6 8.44443 7.48333 8.2611 7.29444 8.22221L6.18333 7.98888C5.99444 7.94443 5.81111 8.06666 5.77222 8.25554C5.73333 8.44443 5.85 8.62777 6.03888 8.66666V8.67221Z" fill="#151515"/>
<path d="M9.19445 12.9945C9.00556 12.9556 8.82223 13.0722 8.78334 13.2611L8.55 14.3722C8.51112 14.5611 8.62778 14.7445 8.81667 14.7834C8.83889 14.7834 8.86667 14.7889 8.88889 14.7889C9.05 14.7889 9.19445 14.6778 9.22778 14.5111L9.46112 13.4C9.5 13.2111 9.38334 13.0278 9.19445 12.9889V12.9945Z" fill="#151515"/>
<path d="M7.56111 11.3611C7.52222 11.1722 7.33888 11.05 7.15 11.0944L6.03888 11.3277C5.85 11.3666 5.73333 11.55 5.77222 11.7389C5.80555 11.9 5.95 12.0166 6.11111 12.0166C6.13333 12.0166 6.16111 12.0166 6.18333 12.0111L7.29444 11.7777C7.48333 11.7389 7.6 11.5555 7.56111 11.3666V11.3611Z" fill="#151515"/>
<path d="M4.19999 8.02226C4.26666 8.08892 4.35555 8.12781 4.44444 8.12781C4.53333 8.12781 4.62221 8.08892 4.68888 8.02226C4.72221 7.98892 4.74999 7.95559 4.76666 7.91115C4.78333 7.8667 4.79444 7.82226 4.79444 7.77781C4.79444 7.68892 4.75555 7.60003 4.68888 7.53337C4.5611 7.40003 4.32777 7.40559 4.19999 7.53337C4.13333 7.60003 4.09444 7.68892 4.09444 7.77781C4.09444 7.82226 4.10555 7.8667 4.12221 7.91115C4.14444 7.95559 4.16666 7.98892 4.19999 8.02226Z" fill="#151515"/>
<path d="M4.19999 11.9778C4.13333 12.0445 4.09444 12.1334 4.09444 12.2223C4.09444 12.3111 4.13333 12.4056 4.19999 12.4667C4.26666 12.5334 4.35555 12.5723 4.44444 12.5723C4.53333 12.5723 4.62221 12.5334 4.68888 12.4667C4.75555 12.4056 4.79444 12.3111 4.79444 12.2223C4.79444 12.1334 4.75555 12.0445 4.68888 11.9778C4.55555 11.8445 4.32777 11.85 4.19999 11.9778Z" fill="#151515"/>
</g>
<defs>
<clipPath id="clip0_2455_5384">
<rect width="100" height="100" fill="white"/>
</clipPath>
</defs>
</svg>
