<svg width="47" height="47" viewBox="0 0 47 47" fill="none" xmlns="http://www.w3.org/2000/svg">
<circle cx="23.5" cy="23.5" r="22.75" fill="white" stroke="#E0E0E0" stroke-width="1.5"/>
<path d="M24.5067 18.9867C24.0533 18.9867 23.68 18.6133 23.68 18.16V8.82667C23.68 8.37333 24.0533 8 24.5067 8C24.96 8 25.3333 8.37333 25.3333 8.82667V18.16C25.3333 18.6133 24.96 18.9867 24.5067 18.9867Z" fill="#EE0000"/>
<path d="M19.1733 24.3203H9.84C9.38667 24.3203 9.01334 23.947 9.01334 23.4937C9.01334 23.0403 9.38667 22.667 9.84 22.667H19.1733C19.6267 22.667 20 23.0403 20 23.4937C20 23.947 19.6267 24.3203 19.1733 24.3203Z" fill="#EE0000"/>
<path d="M24.5067 38.9867C24.0533 38.9867 23.68 38.6133 23.68 38.16V28.8267C23.68 28.3733 24.0533 28 24.5067 28C24.96 28 25.3333 28.3733 25.3333 28.8267V38.16C25.3333 38.6133 24.96 38.9867 24.5067 38.9867Z" fill="#EE0000"/>
<path d="M38.6133 23.813C38.6533 23.7197 38.6667 23.6263 38.6667 23.533C38.6667 23.533 38.6667 23.5063 38.6667 23.493C38.6667 23.4797 38.6667 23.4663 38.6667 23.453C38.6667 23.3597 38.6533 23.2663 38.6133 23.173C38.5867 23.1063 38.5467 23.053 38.5067 22.9997C38.48 22.973 38.4667 22.933 38.44 22.893L35.7733 20.2263C35.4533 19.9063 34.92 19.9063 34.6 20.2263C34.28 20.5463 34.28 21.0797 34.6 21.3997L35.84 22.6397H23.1867C22.7333 22.6397 22.36 23.013 22.36 23.4663C22.36 23.9197 22.7333 24.293 23.1867 24.293H35.84L34.6 25.533C34.28 25.853 34.28 26.3863 34.6 26.7063C34.76 26.8663 34.9733 26.9463 35.1867 26.9463C35.4 26.9463 35.6133 26.8663 35.7733 26.7063L38.44 24.0397C38.44 24.0397 38.48 23.973 38.5067 23.933C38.5467 23.8797 38.5867 23.8263 38.6133 23.7597V23.813Z" fill="black"/>
<path d="M20.5067 20.3197C20.2933 20.3197 20.08 20.2397 19.92 20.0797L14.5867 14.7463C14.2667 14.4263 14.2667 13.893 14.5867 13.573C14.9067 13.253 15.44 13.253 15.76 13.573L21.0933 18.9063C21.4133 19.2263 21.4133 19.7597 21.0933 20.0797C20.9333 20.2397 20.72 20.3197 20.5067 20.3197Z" fill="black"/>
<path d="M15.1733 33.6537C14.96 33.6537 14.7467 33.5737 14.5867 33.4137C14.2667 33.0937 14.2667 32.5603 14.5867 32.2403L19.92 26.907C20.24 26.587 20.7733 26.587 21.0933 26.907C21.4133 27.227 21.4133 27.7603 21.0933 28.0803L15.76 33.4137C15.6 33.5737 15.3867 33.6537 15.1733 33.6537Z" fill="black"/>
<path d="M21.0667 16.3205C20.68 16.3205 20.3333 16.0538 20.2533 15.6538L19.6933 12.9871C19.6 12.5338 19.88 12.0938 20.3333 12.0005C20.7867 11.8938 21.2267 12.1871 21.32 12.6405L21.88 15.3071C21.9733 15.7605 21.6933 16.2005 21.24 16.2938C21.1867 16.2938 21.12 16.3071 21.0667 16.3071V16.3205Z" fill="#EE0000"/>
<path d="M16.5067 20.8938C16.5067 20.8938 16.3867 20.8938 16.3333 20.8805L13.6667 20.3205C13.2133 20.2271 12.9333 19.7871 13.0267 19.3338C13.12 18.8805 13.56 18.5871 14.0133 18.6938L16.68 19.2538C17.1333 19.3471 17.4133 19.7871 17.32 20.2405C17.24 20.6271 16.8933 20.9071 16.5067 20.9071V20.8938Z" fill="#EE0000"/>
<path d="M20.5067 34.9868C20.5067 34.9868 20.3867 34.9868 20.3333 34.9735C19.88 34.8801 19.6 34.4401 19.6933 33.9868L20.2533 31.3201C20.3467 30.8668 20.7867 30.5735 21.24 30.6801C21.6933 30.7735 21.9733 31.2135 21.88 31.6668L21.32 34.3335C21.24 34.7201 20.8933 35.0001 20.5067 35.0001V34.9868Z" fill="#EE0000"/>
<path d="M13.84 28.3202C13.4533 28.3202 13.1067 28.0536 13.0267 27.6536C12.9333 27.2002 13.2133 26.7602 13.6667 26.6669L16.3333 26.1069C16.7867 26.0002 17.2267 26.2936 17.32 26.7469C17.4133 27.2002 17.1333 27.6402 16.68 27.7336L14.0133 28.2936C14.0133 28.2936 13.8933 28.3069 13.84 28.3069V28.3202Z" fill="#EE0000"/>
<path d="M9.84 18.9996C9.62667 18.9996 9.41333 18.9063 9.25333 18.7463C9.17333 18.6662 9.12 18.5863 9.06667 18.4796C9.02667 18.3729 9 18.2663 9 18.1596C9 17.9463 9.09333 17.7329 9.25333 17.5729C9.56 17.2663 10.12 17.2529 10.4267 17.5729C10.5867 17.7329 10.68 17.9463 10.68 18.1596C10.68 18.2663 10.6533 18.3729 10.6133 18.4796C10.5733 18.5863 10.5067 18.6662 10.4267 18.7463C10.2667 18.9063 10.0533 18.9996 9.84 18.9996Z" fill="black"/>
<path d="M9.84 29.6666C9.62667 29.6666 9.41333 29.5732 9.25333 29.4132C9.09333 29.2666 9 29.0399 9 28.8266C9 28.6132 9.09333 28.3999 9.25333 28.2399C9.56 27.9332 10.1067 27.9199 10.4267 28.2399C10.5867 28.3999 10.68 28.6132 10.68 28.8266C10.68 29.0399 10.5867 29.2666 10.4267 29.4132C10.2667 29.5732 10.0533 29.6666 9.84 29.6666Z" fill="black"/>
</svg>
