<?xml version="1.0" encoding="UTF-8"?>
<svg viewBox="0 0 24 24" xmlns="http://www.w3.org/2000/svg">
<path d="m17.684 0.63159h-11.368c-3.1393 0-5.6842 2.5449-5.6842 5.6842v11.368c0 3.1393 2.5449 5.6842 5.6842 5.6842h11.368c3.1393 0 5.6842-2.5449 5.6842-5.6842v-11.368c0-3.1393-2.5449-5.6842-5.6842-5.6842zm4.8948 17.053c0 2.699-2.1958 4.8948-4.8948 4.8948h-11.368c-2.6989 0-4.8947-2.1958-4.8947-4.8948v-11.368c0-2.699 2.1958-4.8947 4.8947-4.8947h11.368c2.699 0 4.8948 2.1958 4.8948 4.8947v11.368z" fill="#fff"/>
<path d="m12.632 9.8685c0.2177 0 0.3947-0.17702 0.3947-0.39474v-4.421c0-0.21773-0.177-0.39474-0.3947-0.39474-0.2178 0-0.3948 0.17701-0.3948 0.39474v4.421c0 0.21772 0.177 0.39474 0.3948 0.39474z" fill="#fff"/>
<path d="m10.5 12c0-0.2178-0.1771-0.3948-0.3948-0.3948h-4.421c-0.21773 0-0.39474 0.177-0.39474 0.3948 0 0.2177 0.17701 0.3947 0.39474 0.3947h4.421c0.2177 0 0.3948-0.177 0.3948-0.3947z" fill="#fff"/>
<path d="m12.632 14.132c-0.2178 0-0.3948 0.177-0.3948 0.3947v4.4211c0 0.2177 0.177 0.3947 0.3948 0.3947 0.2177 0 0.3947-0.177 0.3947-0.3947v-4.4211c0-0.2177-0.177-0.3947-0.3947-0.3947z" fill="#fff"/>
<path d="m19.312 11.849c-0.0127-0.0303-0.034-0.0548-0.0534-0.0807-0.0114-0.0155-0.0174-0.0335-0.0314-0.0475l-1.2631-1.2632c-0.1542-0.1542-0.4046-0.1542-0.5588 0-0.1536 0.1542-0.1536 0.4046 0 0.5588l0.5894 0.5891h-5.9942c-0.2178 0-0.3948 0.177-0.3948 0.3947s0.177 0.3947 0.3948 0.3947h5.9942l-0.5894 0.5891c-0.1536 0.1542-0.1536 0.4046 0 0.5588 0.0771 0.0771 0.1782 0.1153 0.2794 0.1153 0.1011 0 0.2023-0.0382 0.2794-0.1153l1.2631-1.2632c0.014-0.014 0.02-0.032 0.0314-0.0475 0.0193-0.0259 0.0407-0.0504 0.0533-0.0807 0.0177-0.0427 0.025-0.0881 0.0271-0.1335 3e-4 -0.0063 0.0036-0.0115 0.0036-0.0177s-0.0033-0.0114-0.0036-0.0176c-0.0021-0.0455-0.0094-0.0909-0.027-0.1336z" fill="#fff"/>
<path d="m10.457 10.385c0.0771 0.0771 0.1783 0.1153 0.2794 0.1153 0.1012 0 0.2023-0.0382 0.2794-0.1153 0.1536-0.1542 0.1536-0.4046 0-0.5588l-2.5263-2.5263c-0.15419-0.15419-0.4046-0.15419-0.5588 0-0.15358 0.1542-0.15358 0.40461 0 0.55881l2.5263 2.5263z" fill="#fff"/>
<path d="m11.016 13.615c-0.1542-0.1542-0.4046-0.1542-0.5588 0l-2.5263 2.5263c-0.15358 0.1542-0.15358 0.4046 0 0.5588 0.0771 0.0771 0.17825 0.1154 0.2794 0.1154 0.10114 0 0.2023-0.0383 0.2794-0.1154l2.5263-2.5263c0.1536-0.1542 0.1536-0.4046 0-0.5588z" fill="#fff"/>
<path d="m11.123 6.8654c-0.045-0.2134-0.2541-0.35156-0.4681-0.30407-0.2134 0.04502-0.3491 0.25473-0.3041 0.46813l0.2683 1.2632c0.0395 0.18565 0.2035 0.31271 0.3855 0.31271 0.0271 0 0.0549-0.00247 0.0826-0.00864 0.2134-0.04502 0.3491-0.25473 0.3041-0.46813l-0.2683-1.2632z" fill="#fff"/>
<path d="m7.4969 10.491 1.2632 0.2683c0.02776 0.0062 0.05551 0.0086 0.08265 0.0086 0.18195 0 0.34601-0.127 0.38548-0.3127 0.04503-0.2134-0.09066-0.4231-0.30407-0.4681l-1.2632-0.2683c-0.21402-0.04872-0.42249 0.09067-0.46813 0.3041-0.04503 0.2134 0.09066 0.4231 0.30407 0.4681z" fill="#fff"/>
<path d="m11.087 15.404c-0.2146-0.0469-0.4225 0.0906-0.4681 0.304l-0.2683 1.2632c-0.045 0.2134 0.0907 0.4231 0.3041 0.4681 0.0277 0.0062 0.0555 0.0087 0.0826 0.0087 0.182 0 0.346-0.1271 0.3855-0.3127l0.2683-1.2632c0.045-0.2134-0.0907-0.4231-0.3041-0.4681z" fill="#fff"/>
<path d="m9.2282 13.544c-0.04502-0.2134-0.25288-0.3522-0.46813-0.304l-1.2632 0.2683c-0.2134 0.045-0.34909 0.2547-0.30407 0.4681 0.03947 0.1856 0.20353 0.3127 0.38548 0.3127 0.02714 0 0.05489-0.0025 0.08265-0.0086l1.2632-0.2683c0.2134-0.0451 0.34909-0.2548 0.30407-0.4682z" fill="#fff"/>
<path d="m5.406 9.7512c0.07586 0.07586 0.17701 0.12027 0.27816 0.12027 0.10116 0 0.20169-0.04441 0.27755-0.12027 0.03824-0.03763 0.06969-0.07587 0.08881-0.12583 0.01851-0.05057 0.03146-0.10115 0.03146-0.15172 0-0.10116-0.04441-0.2023-0.12028-0.27817-0.14494-0.15172-0.41015-0.14494-0.55571 0-0.07587 0.07587-0.11965 0.17701-0.11965 0.27817 0 0.05058 0.01233 0.10115 0.03145 0.15172 0.02529 0.04996 0.05058 0.0882 0.08821 0.12583z" fill="#fff"/>
<path d="m5.406 14.248c-0.07587 0.0759-0.11965 0.177-0.11965 0.2782 0 0.1011 0.04379 0.2085 0.11965 0.2775 0.07587 0.0759 0.17701 0.1203 0.27817 0.1203 0.10115 0 0.20168-0.0444 0.27754-0.1203 0.07587-0.069 0.12027-0.1764 0.12027-0.2775 0-0.1012-0.0444-0.2023-0.12027-0.2782-0.15111-0.1517-0.41015-0.1449-0.55571 0z" fill="#fff"/>
</svg>
