<svg width="47" height="47" viewBox="0 0 47 47" fill="none" xmlns="http://www.w3.org/2000/svg">
<g clip-path="url(#clip0_2263_6157)">
<circle cx="23.5" cy="23.5" r="22.75" fill="white" stroke="#E0E0E0" stroke-width="1.5"/>
<path d="M24.5067 18.9867C24.0533 18.9867 23.68 18.6133 23.68 18.16V8.82667C23.68 8.37333 24.0533 8 24.5067 8C24.96 8 25.3333 8.37333 25.3333 8.82667V18.16C25.3333 18.6133 24.96 18.9867 24.5067 18.9867Z" fill="#EE0000"/>
<path d="M19.1733 24.32H9.84C9.38667 24.32 9.01334 23.9467 9.01334 23.4933C9.01334 23.04 9.38667 22.6667 9.84 22.6667H19.1733C19.6267 22.6667 20 23.04 20 23.4933C20 23.9467 19.6267 24.32 19.1733 24.32Z" fill="#EE0000"/>
<path d="M24.5067 38.9867C24.0533 38.9867 23.68 38.6133 23.68 38.16V28.8267C23.68 28.3733 24.0533 28 24.5067 28C24.96 28 25.3333 28.3733 25.3333 28.8267V38.16C25.3333 38.6133 24.96 38.9867 24.5067 38.9867Z" fill="#EE0000"/>
<path d="M38.6133 23.8133C38.6533 23.72 38.6667 23.6267 38.6667 23.5333C38.6667 23.5333 38.6667 23.5067 38.6667 23.4933C38.6667 23.48 38.6667 23.4667 38.6667 23.4533C38.6667 23.36 38.6533 23.2667 38.6133 23.1733C38.5867 23.1067 38.5467 23.0533 38.5067 23C38.48 22.9733 38.4667 22.9333 38.44 22.8933L35.7733 20.2267C35.4533 19.9067 34.92 19.9067 34.6 20.2267C34.28 20.5467 34.28 21.08 34.6 21.4L35.84 22.64H23.1867C22.7333 22.64 22.36 23.0133 22.36 23.4667C22.36 23.92 22.7333 24.2933 23.1867 24.2933H35.84L34.6 25.5333C34.28 25.8533 34.28 26.3867 34.6 26.7067C34.76 26.8667 34.9733 26.9467 35.1867 26.9467C35.4 26.9467 35.6133 26.8667 35.7733 26.7067L38.44 24.04C38.44 24.04 38.48 23.9733 38.5067 23.9333C38.5467 23.88 38.5867 23.8267 38.6133 23.76V23.8133Z" fill="black"/>
<path d="M20.5067 20.32C20.2933 20.32 20.08 20.24 19.92 20.08L14.5867 14.7467C14.2667 14.4267 14.2667 13.8933 14.5867 13.5733C14.9067 13.2533 15.44 13.2533 15.76 13.5733L21.0933 18.9067C21.4133 19.2267 21.4133 19.76 21.0933 20.08C20.9333 20.24 20.72 20.32 20.5067 20.32Z" fill="black"/>
<path d="M15.1733 33.6533C14.96 33.6533 14.7467 33.5733 14.5867 33.4133C14.2667 33.0933 14.2667 32.56 14.5867 32.24L19.92 26.9067C20.24 26.5867 20.7733 26.5867 21.0933 26.9067C21.4133 27.2267 21.4133 27.76 21.0933 28.08L15.76 33.4133C15.6 33.5733 15.3867 33.6533 15.1733 33.6533Z" fill="black"/>
<path d="M21.0667 16.32C20.68 16.32 20.3333 16.0533 20.2533 15.6533L19.6933 12.9867C19.6 12.5333 19.88 12.0933 20.3333 12C20.7867 11.8933 21.2267 12.1867 21.32 12.64L21.88 15.3067C21.9733 15.76 21.6933 16.2 21.24 16.2933C21.1867 16.2933 21.12 16.3067 21.0667 16.3067V16.32Z" fill="#EE0000"/>
<path d="M16.5067 20.8933C16.5067 20.8933 16.3867 20.8933 16.3333 20.88L13.6667 20.32C13.2133 20.2267 12.9333 19.7867 13.0267 19.3333C13.12 18.88 13.56 18.5867 14.0133 18.6933L16.68 19.2533C17.1333 19.3467 17.4133 19.7867 17.32 20.24C17.24 20.6267 16.8933 20.9067 16.5067 20.9067V20.8933Z" fill="#EE0000"/>
<path d="M20.5067 34.9867C20.5067 34.9867 20.3867 34.9867 20.3333 34.9733C19.88 34.88 19.6 34.44 19.6933 33.9867L20.2533 31.32C20.3467 30.8667 20.7867 30.5733 21.24 30.68C21.6933 30.7733 21.9733 31.2133 21.88 31.6667L21.32 34.3333C21.24 34.72 20.8933 35 20.5067 35V34.9867Z" fill="#EE0000"/>
<path d="M13.84 28.32C13.4533 28.32 13.1067 28.0533 13.0267 27.6533C12.9333 27.2 13.2133 26.76 13.6667 26.6667L16.3333 26.1067C16.7867 26 17.2267 26.2933 17.32 26.7467C17.4133 27.2 17.1333 27.64 16.68 27.7333L14.0133 28.2933C14.0133 28.2933 13.8933 28.3067 13.84 28.3067V28.32Z" fill="#EE0000"/>
<path d="M9.84 19C9.62667 19 9.41333 18.9067 9.25333 18.7467C9.17333 18.6667 9.12 18.5867 9.06667 18.48C9.02667 18.3733 9 18.2667 9 18.16C9 17.9467 9.09333 17.7333 9.25333 17.5733C9.56 17.2667 10.12 17.2533 10.4267 17.5733C10.5867 17.7333 10.68 17.9467 10.68 18.16C10.68 18.2667 10.6533 18.3733 10.6133 18.48C10.5733 18.5867 10.5067 18.6667 10.4267 18.7467C10.2667 18.9067 10.0533 19 9.84 19Z" fill="black"/>
<path d="M9.84 29.6667C9.62667 29.6667 9.41333 29.5733 9.25333 29.4133C9.09333 29.2667 9 29.04 9 28.8267C9 28.6133 9.09333 28.4 9.25333 28.24C9.56 27.9333 10.1067 27.92 10.4267 28.24C10.5867 28.4 10.68 28.6133 10.68 28.8267C10.68 29.04 10.5867 29.2667 10.4267 29.4133C10.2667 29.5733 10.0533 29.6667 9.84 29.6667Z" fill="black"/>
</g>
<defs>
<clipPath id="clip0_2263_6157">
<rect width="47" height="47" fill="white"/>
</clipPath>
</defs>
</svg>
