<svg width="48" height="48" viewBox="0 0 48 48" fill="none" xmlns="http://www.w3.org/2000/svg">
<circle cx="24" cy="24" r="24" fill="#29233B"/>
<path d="M36 17H25V14H26.75C27.4395 14 28 13.4395 28 12.75V8.25C28 7.56055 27.4395 7 26.75 7H21.25C20.5605 7 20 7.56055 20 8.25V12.75C20 13.4395 20.5605 14 21.25 14H23V17H12C10.3457 17 9 18.3457 9 20V32C9 33.6543 10.3457 35 12 35H36C37.6543 35 39 33.6543 39 32V20C39 18.3457 37.6543 17 36 17ZM22 9H26V12H22V9ZM37 32C37 32.5518 36.5518 33 36 33H12C11.4487 33 11 32.5518 11 32V20C11 19.4487 11.4487 19 12 19H36C36.5518 19 37 19.4487 37 20V32ZM16.75 23V25C16.75 25.4141 16.4141 25.75 16 25.75H14C13.5859 25.75 13.25 25.4141 13.25 25V23C13.25 22.5859 13.5859 22.25 14 22.25H16C16.4141 22.25 16.75 22.5859 16.75 23ZM34.75 23V25C34.75 25.4141 34.4141 25.75 34 25.75H32C31.5859 25.75 31.25 25.4141 31.25 25V23C31.25 22.5859 31.5859 22.25 32 22.25H34C34.4141 22.25 34.75 22.5859 34.75 23ZM27.6992 27.4746C27.9902 27.8613 27.9121 28.4092 27.5254 28.6992C26.502 29.4688 25.2832 29.875 24 29.875C22.7168 29.875 21.4976 29.4688 20.4741 28.6992C20.0874 28.4092 20.0098 27.8613 20.2998 27.4746C20.5903 27.0869 21.1396 27.0088 21.5249 27.3008C22.9614 28.3789 25.0371 28.3789 26.4746 27.3008C26.8613 27.0078 27.4102 27.0879 27.6992 27.4746Z" fill="#B2A3D6"/>
</svg>
