<svg width="48" height="48" viewBox="0 0 48 48" fill="none" xmlns="http://www.w3.org/2000/svg">
<circle cx="24" cy="24" r="24" fill="white"/>
<path fill-rule="evenodd" clip-rule="evenodd" d="M24.0625 23.5C27.7908 23.5 30.8125 20.4783 30.8125 16.75C30.8125 13.0217 27.7908 10 24.0625 10C20.3342 10 17.3125 13.0217 17.3125 16.75C17.3125 20.4783 20.3342 23.5 24.0625 23.5ZM33.3437 36.9999C34.7412 36.9999 35.8749 35.8661 35.8749 34.4687V32.275C35.8749 28.3621 32.7003 25.1875 28.7874 25.1875H27.9068C26.7361 25.7254 25.4336 26.0312 24.0625 26.0312C22.6914 26.0312 21.3941 25.7254 20.2181 25.1875H19.3375C15.4246 25.1875 12.25 28.3621 12.25 32.275V34.4687C12.25 35.8661 13.3838 36.9999 14.7812 36.9999H33.3437Z" fill="#1F1F1F"/>
</svg>
