<svg width="266" height="329" viewBox="0 0 266 329" fill="none" xmlns="http://www.w3.org/2000/svg">
<g clip-path="url(#clip0_1727_2153)">
<path d="M202.44 151.064C194.45 144.653 185.877 138.75 178.805 131.177C161.691 112.811 161.508 87.6774 145.312 68.8344C130.188 51.2735 107.503 40.9277 83.99 40.9277C53.6197 40.9277 27.1682 57.4451 13.6363 81.7442C6.22739 99.9909 -4.12055 117.075 -16.9789 132.191C-28.8576 146.174 -44.8388 156.192 -56.595 170.264C-89.1084 209.203 -62.1058 272.827 -10.6722 277.538C11.9831 279.625 34.3628 271.635 56.9874 271.307C73.7952 271.068 90.7254 272.708 106.798 277.717C122.749 282.696 136.128 289.762 153.456 289.613C197.572 289.226 232.811 254.461 232.688 211.498C232.627 195.249 227.3 179.268 217.503 166.09C213.247 160.276 208.012 155.536 202.44 151.064Z" fill="#38A3A3"/>
<path d="M48.4152 78.1685C48.4152 78.1685 49.7622 77.3635 51.0787 77.5126L50.8338 79.0033L48.4152 78.1685Z" fill="#38A3A3"/>
<path d="M52.5777 84.043C52.5777 84.043 51.4449 85.802 53.0675 86.3089L52.5777 84.043Z" fill="#38A3A3"/>
<path d="M52.5777 84.043C52.5777 84.043 51.4449 85.802 53.0675 86.3089" stroke="#FDCA90" stroke-width="0.240741" stroke-miterlimit="10" stroke-linecap="round"/>
<path d="M109.645 209.707V242.503C109.645 243.397 109.43 244.262 109.002 245.037L94.4595 271.453" fill="#38A3A3"/>
<path d="M109.645 209.707V242.503C109.645 243.397 109.43 244.262 109.002 245.037L94.4595 271.453" stroke="#9AD8D8" stroke-width="0.962963" stroke-linecap="round" stroke-linejoin="round"/>
<path d="M106.525 249.512H123.608" stroke="#9AD8D8" stroke-width="0.962963" stroke-linecap="round" stroke-linejoin="round"/>
<path d="M104.87 276.586L106.615 272.054C107.104 271.19 108.023 270.623 109.064 270.623H122.014" fill="#38A3A3"/>
<path d="M104.87 276.586L106.615 272.054C107.104 271.19 108.023 270.623 109.064 270.623H122.014" stroke="#9AD8D8" stroke-width="0.962963" stroke-linecap="round" stroke-linejoin="round"/>
<path d="M94.4595 273.96V271.456" stroke="#9AD8D8" stroke-width="0.962963" stroke-linecap="round" stroke-linejoin="round"/>
<path d="M154.957 239.376L142.895 251.242C142.466 251.689 142.038 252.107 141.578 252.524C141.548 253.18 141.548 253.806 141.517 254.462V288.242" fill="#38A3A3"/>
<path d="M154.957 239.376L142.895 251.242C142.466 251.689 142.038 252.107 141.578 252.524C141.548 253.18 141.548 253.806 141.517 254.462V288.242" stroke="#9AD8D8" stroke-width="0.722222" stroke-linecap="round" stroke-linejoin="round"/>
<path d="M154.557 264.149L141.699 276.821" stroke="#9AD8D8" stroke-width="0.962963" stroke-linecap="round" stroke-linejoin="round"/>
<path d="M178.04 258.691L177.948 247.54V246.348H179.112C186.367 246.288 216.554 246.229 223.81 246.169" fill="#38A3A3"/>
<path d="M178.04 258.691L177.948 247.54V246.348H179.112C186.367 246.288 216.554 246.229 223.81 246.169" stroke="#9AD8D8" stroke-width="0.962963" stroke-linecap="round" stroke-linejoin="round"/>
<path d="M109.644 211.287C110.743 211.287 111.634 210.419 111.634 209.349C111.634 208.279 110.743 207.411 109.644 207.411C108.545 207.411 107.654 208.279 107.654 209.349C107.654 210.419 108.545 211.287 109.644 211.287Z" fill="#9AD8D8"/>
<path d="M123.607 251.448C124.706 251.448 125.597 250.581 125.597 249.51C125.597 248.44 124.706 247.572 123.607 247.572C122.508 247.572 121.617 248.44 121.617 249.51C121.617 250.581 122.508 251.448 123.607 251.448Z" fill="#9AD8D8"/>
<path d="M123.607 272.557C124.706 272.557 125.597 271.689 125.597 270.619C125.597 269.549 124.706 268.681 123.607 268.681C122.508 268.681 121.617 269.549 121.617 270.619C121.617 271.689 122.508 272.557 123.607 272.557Z" fill="#9AD8D8"/>
<path d="M154.957 241.487C156.056 241.487 156.947 240.619 156.947 239.549C156.947 238.478 156.056 237.611 154.957 237.611C153.858 237.611 152.967 238.478 152.967 239.549C152.967 240.619 153.858 241.487 154.957 241.487Z" fill="#9AD8D8"/>
<path d="M154.984 266.089C156.083 266.089 156.974 265.221 156.974 264.151C156.974 263.081 156.083 262.213 154.984 262.213C153.885 262.213 152.994 263.081 152.994 264.151C152.994 265.221 153.885 266.089 154.984 266.089Z" fill="#9AD8D8"/>
<path d="M178.039 260.627C179.138 260.627 180.029 259.76 180.029 258.689C180.029 257.619 179.138 256.751 178.039 256.751C176.94 256.751 176.049 257.619 176.049 258.689C176.049 259.76 176.94 260.627 178.039 260.627Z" fill="#9AD8D8"/>
<path d="M167.63 221.484L167.538 232.635V233.768C167.936 233.768 168.334 233.797 168.732 233.797C184.56 233.827 213.185 233.857 229.013 233.887" fill="#38A3A3"/>
<path d="M167.63 221.484L167.538 232.635V233.768C167.936 233.768 168.334 233.797 168.732 233.797C184.56 233.827 213.185 233.857 229.013 233.887" stroke="#9AD8D8" stroke-width="0.962963" stroke-linecap="round" stroke-linejoin="round"/>
<path d="M167.629 223.421C168.728 223.421 169.619 222.553 169.619 221.483C169.619 220.413 168.728 219.545 167.629 219.545C166.53 219.545 165.639 220.413 165.639 221.483C165.639 222.553 166.53 223.421 167.629 223.421Z" fill="#9AD8D8"/>
<path d="M-30.119 242.824C-30.119 242.824 -65.1367 218.898 -58.683 173.725H-62.8773V157.923H-42.9774V106.642H13.1709V79.1525H60.5327V98.1446H68.8906V75.0381H96.077V114.423H152.776V88.3653H173.809V131.507H218.385V147.846H233.141V168.329L214.855 168.475L214.668 185.323H201.88L-20.6221 239.908L-30.119 242.824Z" fill="#B9E5E5"/>
<path d="M125.182 45.666H96.3118V73.7814H125.182V45.666Z" fill="#B9E5E5"/>
<path d="M-22.5676 89.6143H9.97635L26.478 113.257H-7.29064L-22.5676 89.6143Z" fill="#DBF2F2"/>
<path d="M-7.29063 113.26H26.4779L10.8336 144.327H-22.935L-7.29063 113.26Z" fill="#38A3A3"/>
<path d="M-22.5676 89.6143H9.97634L26.478 113.257" stroke="#9AD8D8" stroke-width="0.481481" stroke-linecap="round" stroke-linejoin="round"/>
<path d="M26.478 113.257H-7.29064L-22.5676 89.6143" stroke="#9AD8D8" stroke-width="0.481481" stroke-linecap="round" stroke-linejoin="round"/>
<path d="M180.013 58.0695L208.363 57.8608L222.905 78.3138L193.515 78.5523L180.013 58.0695Z" fill="#DBF2F2"/>
<path d="M193.517 78.5555L180.016 58.0728L109.784 199.067L134.154 198.888L193.517 78.5555Z" fill="#9AD8D8"/>
<path d="M193.517 78.5525L222.908 78.314L163.545 198.647L134.154 198.885L193.517 78.5525Z" fill="#38A3A3"/>
<path d="M180.013 58.0695L208.363 57.8608L222.905 78.3138" stroke="#9AD8D8" stroke-width="0.481481" stroke-linecap="round" stroke-linejoin="round"/>
<path d="M222.905 78.317L193.515 78.5555L180.013 58.0728" stroke="#DBF2F2" stroke-width="0.481481" stroke-linecap="round" stroke-linejoin="round"/>
<path d="M173.706 118.679L137.519 191.993" stroke="#38A3A3" stroke-width="0.481481" stroke-linecap="round" stroke-linejoin="round"/>
<path d="M189.78 86.0923L180.411 105.114" stroke="#38A3A3" stroke-width="0.481481" stroke-linecap="round" stroke-linejoin="round"/>
<path d="M106.66 127.504H135.01L149.368 148.077H119.978L106.66 127.504Z" fill="#DBF2F2"/>
<path d="M119.98 148.077L106.662 127.504L35.2673 267.932L61.6331 268.675L119.98 148.077Z" fill="#9AD8D8"/>
<mask id="mask0_1727_2153" style="mask-type:luminance" maskUnits="userSpaceOnUse" x="58" y="148" width="92" height="127">
<path d="M119.978 148.081H149.368L89.0259 274.731H58.129L119.978 148.081Z" fill="white"/>
</mask>
<g mask="url(#mask0_1727_2153)">
<path d="M202.44 151.063C194.45 144.653 185.877 138.749 178.805 131.176C161.691 112.81 161.508 87.6764 145.312 68.8334C130.188 51.2725 107.502 40.9268 83.99 40.9268C53.6197 40.9268 27.1681 57.4442 13.6362 81.7432C6.22733 99.9899 -4.12061 117.074 -16.979 132.19C-28.8577 146.173 -44.8388 156.191 -56.5951 170.263C-89.1084 209.202 -62.1058 272.826 -10.6723 277.537C11.983 279.624 34.3627 271.634 56.9874 271.306C73.7951 271.067 90.7253 272.707 106.798 277.716C122.749 282.695 136.128 289.761 153.456 289.612C197.572 289.225 232.811 254.46 232.688 211.497C232.627 195.248 227.3 179.268 217.503 166.089C213.247 160.275 208.012 155.535 202.44 151.063Z" fill="#9AD8D8"/>
<path d="M109.645 209.706V242.502C109.645 243.396 109.43 244.261 109.002 245.036L94.4595 271.452" fill="#9AD8D8"/>
<path d="M109.645 209.706V242.502C109.645 243.396 109.43 244.261 109.002 245.036L94.4595 271.452" stroke="#9AD8D8" stroke-width="0.962963" stroke-linecap="round" stroke-linejoin="round"/>
<path d="M106.524 249.511H123.608" stroke="#9AD8D8" stroke-width="0.962963" stroke-linecap="round" stroke-linejoin="round"/>
<path d="M104.869 276.586L106.614 272.054C107.104 271.189 108.023 270.623 109.064 270.623H122.014" fill="#9AD8D8"/>
<path d="M104.869 276.586L106.614 272.054C107.104 271.189 108.023 270.623 109.064 270.623H122.014" stroke="#9AD8D8" stroke-width="0.962963" stroke-linecap="round" stroke-linejoin="round"/>
<path d="M94.4595 273.96V271.455" stroke="#B9E5E5" stroke-width="0.962963" stroke-linecap="round" stroke-linejoin="round"/>
<path d="M154.957 239.375L142.895 251.241C142.466 251.689 142.037 252.106 141.578 252.523C141.548 253.179 141.548 253.805 141.517 254.461V288.241" fill="#9AD8D8"/>
<path d="M154.957 239.375L142.895 251.241C142.466 251.689 142.037 252.106 141.578 252.523C141.548 253.179 141.548 253.805 141.517 254.461V288.241" stroke="#9AD8D8" stroke-width="0.722222" stroke-linecap="round" stroke-linejoin="round"/>
<path d="M154.557 264.148L141.699 276.82" stroke="#9AD8D8" stroke-width="0.962963" stroke-linecap="round" stroke-linejoin="round"/>
<path d="M109.647 211.286C110.747 211.286 111.637 210.418 111.637 209.348C111.637 208.278 110.747 207.41 109.647 207.41C108.548 207.41 107.657 208.278 107.657 209.348C107.657 210.418 108.548 211.286 109.647 211.286Z" fill="#9AD8D8"/>
<path d="M123.607 251.447C124.706 251.447 125.597 250.58 125.597 249.509C125.597 248.439 124.706 247.571 123.607 247.571C122.508 247.571 121.617 248.439 121.617 249.509C121.617 250.58 122.508 251.447 123.607 251.447Z" fill="#9AD8D8"/>
<path d="M123.607 272.556C124.706 272.556 125.597 271.688 125.597 270.618C125.597 269.548 124.706 268.68 123.607 268.68C122.508 268.68 121.617 269.548 121.617 270.618C121.617 271.688 122.508 272.556 123.607 272.556Z" fill="#9AD8D8"/>
</g>
<path d="M106.66 127.504H135.01L149.368 148.077" stroke="#9AD8D8" stroke-width="0.481481" stroke-linecap="round" stroke-linejoin="round"/>
<path d="M149.368 148.077H119.978L106.66 127.504" stroke="#DBF2F2" stroke-width="0.481481" stroke-linecap="round" stroke-linejoin="round"/>
<path d="M100.261 188.064L64.3587 262.211" stroke="#38A3A3" stroke-width="0.481481" stroke-linecap="round" stroke-linejoin="round"/>
<path d="M116.398 155.355L106.876 174.287" stroke="#38A3A3" stroke-width="0.481481" stroke-linecap="round" stroke-linejoin="round"/>
<path d="M184.731 118.563H213.081L227.439 139.166H198.048L184.731 118.563Z" fill="#DBF2F2"/>
<path d="M198.046 139.166L184.061 118.563L114.123 250.792H139.479L198.046 139.166Z" fill="#9AD8D8"/>
<path d="M198.046 139.166H227.437L168.309 250.793H139.479L198.046 139.166Z" fill="#38A3A3"/>
<path d="M184.731 118.563H213.081L227.439 139.166" stroke="#9AD8D8" stroke-width="0.481481" stroke-linecap="round" stroke-linejoin="round"/>
<path d="M227.439 139.166H198.048L184.731 118.563" stroke="#DBF2F2" stroke-width="0.481481" stroke-linecap="round" stroke-linejoin="round"/>
<path d="M179.299 174.377L141.517 246.169" stroke="#38A3A3" stroke-width="0.481481" stroke-linecap="round" stroke-linejoin="round"/>
<path d="M194.252 145.86L184.244 164.822" stroke="#38A3A3" stroke-width="0.481481" stroke-linecap="round" stroke-linejoin="round"/>
<path d="M115.844 182.424H158.338L179.83 213.252H135.774L115.844 182.424Z" fill="#DBF2F2"/>
<mask id="mask1_1727_2153" style="mask-type:luminance" maskUnits="userSpaceOnUse" x="115" y="182" width="65" height="32">
<path d="M115.844 182.251H158.338L179.83 213.11H135.774L115.844 182.251Z" fill="white"/>
</mask>
<g mask="url(#mask1_1727_2153)">
<path d="M123.527 197.787C123.588 197.817 123.649 197.817 123.71 197.817C123.833 197.817 123.894 197.757 123.894 197.638L123.741 186.726L131.609 186.368C131.977 186.755 132.558 186.994 133.017 186.994C133.599 186.964 133.813 186.517 133.477 185.98C133.14 185.444 132.405 185.056 131.823 185.086C131.364 185.116 131.119 185.414 131.211 185.801L123.68 186.129L123.649 184.311C123.649 183.863 123.496 183.386 123.19 182.909L113.76 167.525C114.097 167.376 114.189 167.018 113.944 166.571C113.638 166.034 112.903 165.647 112.322 165.676C111.74 165.706 111.526 166.153 111.862 166.69C112.107 167.108 112.658 167.465 113.148 167.555L122.547 182.939C122.792 183.327 122.914 183.714 122.914 184.072L123.098 197.399C123.159 197.548 123.312 197.727 123.527 197.787Z" fill="#38A3A3"/>
<path d="M139.479 197.369C140.061 197.339 140.275 196.892 139.969 196.356C139.632 195.819 138.897 195.431 138.316 195.461C137.856 195.491 137.611 195.789 137.703 196.177L130.937 196.475C130.264 196.505 129.866 196.862 129.866 197.399L129.958 208.58C129.958 208.729 130.111 208.908 130.325 208.967C130.386 208.997 130.447 208.997 130.509 208.997C130.631 208.997 130.723 208.937 130.692 208.818L130.6 197.638C130.6 197.28 130.845 197.071 131.274 197.041L138.04 196.743C138.407 197.131 138.989 197.399 139.479 197.369Z" fill="#38A3A3"/>
<path d="M156.836 193.017C157.173 192.719 156.928 192.123 156.346 191.676C156.071 191.467 155.795 191.348 155.489 191.288L152.581 186.726L152.397 186.428H152.703C154.632 186.339 158.643 186.13 162.531 185.951C166.419 185.772 170.429 185.564 172.358 185.474C172.542 185.474 172.603 185.325 172.481 185.176C172.389 185.027 172.144 184.878 171.96 184.908C170.062 184.997 166.021 185.206 162.163 185.385C158.306 185.564 154.265 185.772 152.336 185.862L151.693 185.892C151.509 185.892 151.448 186.041 151.54 186.19L154.816 191.318C154.754 191.348 154.693 191.377 154.663 191.407C154.326 191.705 154.571 192.302 155.152 192.749C155.734 193.196 156.5 193.345 156.836 193.017Z" fill="#38A3A3"/>
<path d="M192.015 205.212L184.544 193.674C184.514 193.614 184.453 193.555 184.391 193.525L183.687 192.988C183.565 192.899 183.442 192.839 183.32 192.869C182.187 192.899 177.687 193.108 173.339 193.286C169.819 193.436 166.237 193.585 164.369 193.644C164.002 193.316 163.451 193.078 163.022 193.108C162.44 193.137 162.226 193.585 162.563 194.121C162.9 194.658 163.634 195.046 164.247 195.016C164.736 194.986 164.981 194.658 164.828 194.241C166.696 194.181 170.278 194.032 173.737 193.883C177.87 193.704 182.156 193.525 183.534 193.495L183.993 193.823L191.219 204.974L172.176 205.809C171.809 205.421 171.196 205.183 170.737 205.183C170.155 205.212 169.941 205.66 170.278 206.196C170.615 206.733 171.349 207.121 171.962 207.091C172.451 207.061 172.666 206.763 172.574 206.375L191.617 205.54L195.841 212.07C195.933 212.219 196.178 212.368 196.362 212.338C196.546 212.308 196.607 212.189 196.515 212.04L192.015 205.212Z" fill="#38A3A3"/>
<path d="M145.143 204.731C144.469 204.493 143.887 204.672 143.887 205.119C143.887 205.179 143.887 205.268 143.918 205.328L138.805 205.596L138.162 205.626C137.979 205.626 137.917 205.775 138.009 205.924L138.377 206.491C139.479 208.22 140.856 210.426 142.204 212.543C143.551 214.66 144.928 216.836 146.03 218.566C146.122 218.715 146.367 218.864 146.551 218.834C146.735 218.834 146.796 218.685 146.704 218.536C145.602 216.806 144.224 214.63 142.877 212.513C141.53 210.396 140.152 208.19 139.05 206.461L138.866 206.192L144.285 205.894C144.5 206.103 144.775 206.282 145.081 206.401C145.755 206.64 146.337 206.461 146.337 206.014C146.367 205.566 145.816 205 145.143 204.731Z" fill="#38A3A3"/>
<path d="M160.817 199.544C160.48 199.842 160.725 200.438 161.307 200.886C161.582 201.065 161.858 201.214 162.133 201.273L171.532 216.091L171.716 216.389H171.41C167.124 216.598 164.521 216.717 161.888 216.837C160.786 216.896 159.684 216.926 158.459 216.986L147.407 199.246L150.132 193.313C150.377 193.402 150.622 193.462 150.867 193.462C151.449 193.432 151.663 192.985 151.326 192.448C150.989 191.911 150.255 191.524 149.673 191.554C149.091 191.583 148.877 192.031 149.214 192.567C149.275 192.687 149.367 192.776 149.459 192.866L146.917 198.411L140.488 188.065L139.998 187.26L140.274 186.664L142.723 181.268C142.937 181.327 143.152 181.387 143.335 181.387C143.917 181.357 144.131 180.91 143.795 180.373C143.458 179.836 142.723 179.449 142.141 179.479C141.56 179.508 141.346 179.956 141.682 180.492C141.774 180.641 141.897 180.761 142.019 180.88L139.57 186.306L139.264 186.992C139.233 187.052 139.264 187.111 139.294 187.201L139.876 188.125L157.878 217.045C156.347 217.105 154.602 217.194 152.428 217.284C152.336 217.284 152.275 217.314 152.245 217.373C152.214 217.433 152.245 217.522 152.275 217.582L157.051 225.006C157.143 225.155 157.388 225.274 157.572 225.274C157.755 225.274 157.816 225.125 157.725 224.976L153.132 217.85C157.204 217.671 159.776 217.552 162.317 217.433C164.95 217.314 167.552 217.194 171.838 216.986L172.481 216.956C172.573 216.956 172.634 216.926 172.665 216.866C172.695 216.807 172.665 216.717 172.634 216.658L172.267 216.091L162.868 201.273C162.929 201.243 162.99 201.214 163.052 201.154C163.388 200.856 163.144 200.26 162.562 199.812C161.98 199.365 161.154 199.246 160.817 199.544Z" fill="#38A3A3"/>
</g>
<path d="M135.775 213.252L115.844 182.424L94.8114 222.107L115.293 253.771L135.775 213.252Z" fill="#38A3A3"/>
<path d="M135.777 213.256H179.833L159.443 253.774H115.388L135.777 213.256Z" fill="#9AD8D8"/>
<path d="M115.844 182.424H158.338L179.83 213.252" stroke="white" stroke-width="0.481481" stroke-linecap="round" stroke-linejoin="round"/>
<path d="M130.357 224.079L135.776 213.256" stroke="white" stroke-width="0.481481" stroke-linecap="round" stroke-linejoin="round"/>
<path d="M65.79 83.499C65.79 83.499 64.994 86.5401 66.6472 88.1799C68.3004 89.7899 67.78 93.0099 66.5553 93.6062C65.3307 94.1727 63.2489 92.8907 63.2489 92.8907L64.0143 83.6183L65.79 83.499Z" fill="black"/>
<path d="M69.0672 95.5713L61.9032 96.3763" stroke="#EE0000" stroke-width="0.722222" stroke-miterlimit="10"/>
<path d="M12.4333 166.587C12.4333 166.587 11.9435 203.689 11.3924 205.978L71.6431 219.55L66.959 132.172C66.959 132.172 54.8048 124.176 51.4065 123.409C48.0082 122.643 31.7515 123.609 31.7515 123.609L29.088 125.27L27.7409 126.662L18.7094 131.805L12.4333 166.584V166.587Z" fill="#EE0000"/>
<mask id="mask2_1727_2153" style="mask-type:luminance" maskUnits="userSpaceOnUse" x="11" y="127" width="61" height="92">
<path d="M12.3669 169.595C12.3669 169.595 11.8893 204.553 11.3383 206.792L71.6992 218.223L66.8926 136.45C66.8926 136.45 54.7384 128.74 51.3401 128.003C47.9418 127.267 31.6851 128.194 31.6851 128.194L12.3669 169.592V169.595Z" fill="white"/>
</mask>
<g mask="url(#mask2_1727_2153)">
<path d="M12.7651 174.585C12.7651 174.585 50.6667 218.574 73.9649 192.853L73.5669 223.246L14.0203 206.738C14.0203 206.738 15.7041 199.123 12.7651 174.585Z" fill="#A60000"/>
<path d="M74.5473 148.703C74.5473 148.703 64.8729 159.579 40.8706 191.604L70.6592 176.407L85.1096 137.186L74.5473 148.703Z" fill="#A60000"/>
</g>
<path d="M32.8783 104.701C32.8783 104.701 34.0417 121.725 32.1435 123.991L29.6331 125.78C29.6331 125.78 32.266 132.488 44.2365 132.935C56.2071 133.383 55.7172 125.81 55.7172 125.81C55.7172 125.81 51.9209 124.408 51.3086 123.544C50.6963 122.679 51.7985 114.45 51.7985 114.45L34.5315 103.687L32.8783 104.701Z" fill="#A66552"/>
<path d="M51.064 124.228C51.064 124.228 51.217 125.838 51.6763 126.703" stroke="#40251D" stroke-width="0.481481" stroke-miterlimit="10" stroke-linecap="round"/>
<mask id="mask3_1727_2153" style="mask-type:luminance" maskUnits="userSpaceOnUse" x="29" y="103" width="27" height="37">
<path d="M32.8776 104.934C32.8776 104.934 33.5818 125.685 31.6836 128.488L29.2038 130.038C29.2038 130.038 32.2959 139.37 44.2665 139.936C56.237 140.503 55.7472 131.081 55.7472 131.081C55.7472 131.081 51.9509 129.322 51.3386 128.249C50.7263 127.176 51.3386 116.949 51.3386 116.949L34.5308 103.682L32.8776 104.934Z" fill="white"/>
</mask>
<g mask="url(#mask3_1727_2153)">
<path d="M31.5936 106.905L34.7776 104.282L54.0958 119.547C54.1264 119.547 33.7979 121.604 31.5936 106.905Z" fill="#724335"/>
</g>
<path d="M34.3193 104.937C34.3193 104.937 34.1356 109.559 35.1765 110.96C36.2481 112.391 47.1471 121.455 58.7809 118.086C58.7809 118.086 63.8018 116.535 64.9345 102.135C64.9345 102.135 64.9345 87.764 64.261 84.8422L54.7397 73.1846L37.9625 83.7986C37.9625 83.7986 30.523 88.1218 30.4312 88.6286C30.3393 89.1355 34.3193 104.937 34.3193 104.937Z" fill="#A66552"/>
<path d="M34.3179 106.012C34.3179 106.012 33.9812 109.172 34.9608 110.633C36.4916 112.929 42.4922 117.699 51.0644 118.832" stroke="#40251D" stroke-width="0.481481" stroke-miterlimit="10" stroke-linecap="round"/>
<path d="M60.0943 98.7905C60.0943 98.7905 62.0536 101.504 62.7884 102.488C63.5232 103.471 60.7372 105.439 59.7269 104.724C58.7166 104.008 57.6144 104.426 57.2777 104.664C56.2061 105.409 54.3692 103.71 56.4817 102.488" stroke="#40251D" stroke-width="0.481481" stroke-miterlimit="10" stroke-linecap="round"/>
<path d="M21.123 130.579C21.123 130.579 17.7247 131.205 10.1933 137.347C0.396463 145.337 8.7238 172.826 11.0812 173.214C13.4385 173.601 28.9911 167.907 32.8792 160.006C32.8792 160.006 26.3888 149.273 26.1439 144.92C25.8989 140.567 21.123 130.579 21.123 130.579Z" fill="#EE0000"/>
<path d="M29.3585 147.812C29.3585 147.812 39.4615 162.034 35.4816 164.031" stroke="#A60000" stroke-width="0.481481" stroke-miterlimit="10" stroke-linecap="round"/>
<path d="M27.8581 128.76C27.8581 128.76 31.2258 135.737 44.574 136.274" stroke="#A60000" stroke-width="0.481481" stroke-miterlimit="10" stroke-linecap="round"/>
<path d="M46.5048 95.9033C46.5048 95.9033 51.2501 90.9839 53.2095 95.2474" stroke="black" stroke-width="0.481481" stroke-miterlimit="10" stroke-linecap="round"/>
<path d="M61.6287 95.2477C61.6287 95.2477 63.435 93.3396 64.8739 94.9198" stroke="black" stroke-width="0.459815" stroke-miterlimit="10" stroke-linecap="round"/>
<path d="M50.91 96.1706C51.6878 96.1706 52.3183 95.57 52.3183 94.829C52.3183 94.088 51.6878 93.4873 50.91 93.4873C50.1322 93.4873 49.5017 94.088 49.5017 94.829C49.5017 95.57 50.1322 96.1706 50.91 96.1706Z" fill="black"/>
<path d="M63.4021 95.9918C63.8756 95.9918 64.2594 95.6314 64.2594 95.1868C64.2594 94.7422 63.8756 94.3818 63.4021 94.3818C62.9287 94.3818 62.5449 94.7422 62.5449 95.1868C62.5449 95.6314 62.9287 95.9918 63.4021 95.9918Z" fill="black"/>
<path d="M44.912 91.3085C44.912 91.3085 48.7083 88.3568 52.9639 88.6549C53.9435 88.7146 54.8008 89.2512 55.0151 89.9966C55.1069 90.3842 55.0151 90.742 54.3109 90.8911C51.4331 91.3979 42.8302 93.3657 44.912 91.3085Z" fill="black"/>
<path d="M61.4726 91.0744C61.4726 91.0744 58.6866 90.0011 61.1358 89.7626C63.1564 89.5539 64.9321 90.1502 64.5035 91.1937C64.0749 92.2372 61.4726 91.0744 61.4726 91.0744Z" fill="black"/>
<path d="M33.7346 112.002C33.7346 112.002 32.7549 112.271 32.3875 110.75C32.0202 109.229 32.0508 111.018 30.7955 111.644C29.5403 112.271 25.4379 111.227 26.9993 106.308C26.9993 106.308 24.8562 106.874 23.9071 105.115C22.9581 103.356 25.0705 104.548 25.0705 104.519C25.0705 104.489 27.2136 104.578 26.2033 101.984C25.193 99.4203 23.5091 101.239 21.9171 100.822C20.3251 100.404 19.7741 96.3196 22.4682 95.3059C22.4682 95.3059 20.2027 95.0972 19.8659 93.6959C19.8047 93.4275 20.019 93.2188 20.2639 93.2785C20.5701 93.3679 20.9987 93.3977 21.4273 93.0996C22.1621 92.5629 22.3458 90.8933 21.2436 90.3864C20.1415 89.8796 15.7635 83.2607 26.4482 78.9375C26.4482 78.9375 28.0708 77.5362 26.5706 74.9722C26.5706 74.9722 28.132 74.1374 29.2648 76.2244C29.2648 76.2244 27.8565 71.4242 33.7346 69.3074C39.5821 67.1905 40.5924 70.1422 41.4803 70.5894C42.3681 71.0366 45.3684 71.1559 46.1032 67.6079C46.8379 64.06 47.389 67.6377 47.2665 68.6216C47.2665 68.6216 50.0831 63.9705 56.6348 65.819C63.1864 67.6675 62.4211 69.4862 62.4517 71.8416C62.4823 74.197 63.0946 76.1051 66.5847 77.417C70.0749 78.699 70.1973 86.7788 65.6663 84.9601C65.6663 84.9601 66.248 86.0335 65.2683 85.8546C64.2886 85.6757 62.7578 84.9899 62.1761 82.8433C62.1761 82.8433 61.6557 84.2744 60.1861 84.9005C60.0025 84.9899 59.8188 84.7812 59.9106 84.6024C60.2474 83.857 60.5841 82.3961 58.9922 80.9948C58.9922 80.9948 57.4002 82.6346 55.0428 82.6346C53.2977 82.6346 51.3996 80.1599 50.5424 78.8779C50.3281 78.5499 49.8688 78.5499 49.6239 78.8481C49.2259 79.3848 48.583 80.0407 47.7564 80.2494C46.4399 80.5774 47.0522 81.7998 47.9401 81.7103C48.0931 81.7103 48.185 81.8594 48.0931 81.9787C47.7258 82.6048 46.6848 83.7079 44.6336 82.3066C44.6336 82.3066 41.5415 89.8498 34.7755 86.2124C34.7755 86.2124 39.3372 95.3059 34.8061 95.5742C34.8061 95.5742 33.7652 96.7668 36.0614 97.9296C36.0614 97.9296 34.102 98.7942 33.4591 96.3494C32.7855 93.9046 33.704 112.002 33.7346 112.002Z" fill="black"/>
<path d="M34.2889 83.8854C34.2889 83.8854 41.5754 86.4196 42.9837 81.7983" stroke="#292929" stroke-width="0.481481" stroke-miterlimit="10" stroke-linecap="round"/>
<path d="M31.5934 93.756C31.5934 93.756 33.9508 95.5151 35.2979 94.084C36.5531 92.7721 34.808 88.6875 34.808 88.6875" stroke="#292929" stroke-width="0.481481" stroke-miterlimit="10" stroke-linecap="round"/>
<path d="M53.2063 80.4271C53.2063 80.4271 55.5024 83.4384 60.4009 79.0557" stroke="#292929" stroke-width="0.481481" stroke-miterlimit="10" stroke-linecap="round"/>
<path d="M27.0625 80.0415C27.0625 80.0415 20.1129 82.6652 21.2763 87.2865C22.4396 91.9078 24.9501 91.0432 25.0726 92.8917C25.1644 94.3228 22.9601 94.9489 21.4293 94.2334" stroke="#292929" stroke-width="0.481481" stroke-miterlimit="10" stroke-linecap="round"/>
<path d="M34.7452 82.2799C34.7452 82.2799 37.5925 83.2936 39.46 81.6538" stroke="#292929" stroke-width="0.481481" stroke-miterlimit="10" stroke-linecap="round"/>
<path d="M24.0916 95.7843C24.0916 95.7843 29.6942 96.321 28.5308 92.2363" stroke="#292929" stroke-width="0.481481" stroke-miterlimit="10" stroke-linecap="round"/>
<path d="M63.4616 166.68C63.4616 166.68 64.7781 190.263 71.6971 194.02C71.6971 194.02 78.31 193.96 80.7898 189.398C83.2697 184.837 78.6161 161.879 78.6161 161.879L63.4616 166.68Z" fill="#A66552"/>
<mask id="mask4_1727_2153" style="mask-type:luminance" maskUnits="userSpaceOnUse" x="63" y="161" width="19" height="34">
<path d="M63.4616 166.683C63.4616 166.683 64.7781 190.267 71.6971 194.023C71.6971 194.023 78.31 193.964 80.7898 189.402C83.2697 184.84 78.6161 161.883 78.6161 161.883L63.4616 166.683Z" fill="white"/>
</mask>
<g mask="url(#mask4_1727_2153)">
<path d="M69.9538 192.528C69.9538 192.528 63.1266 174.937 77.9444 173.089L75.8013 167.305L60.6774 173.089C60.6774 173.089 66.3106 191.246 69.9538 192.528Z" fill="#724335"/>
</g>
<path d="M76.6286 169.666C76.6286 169.666 77.6083 172.2 77.9144 173.095" stroke="#40251D" stroke-width="0.481481" stroke-miterlimit="10" stroke-linecap="round"/>
<path d="M51.2543 101.357C54.3887 100.671 56.3283 97.5102 55.5866 94.2971C54.8448 91.0841 51.7027 89.0357 48.5683 89.7219C45.434 90.4081 43.4943 93.5691 44.2361 96.7821C44.9778 99.9952 48.12 102.044 51.2543 101.357Z" stroke="#A60000" stroke-width="0.722222" stroke-miterlimit="10"/>
<path d="M65.9177 100.549C68.1943 100.051 69.5617 97.5763 68.9721 95.0219C68.3824 92.4675 66.0589 90.8008 63.7824 91.2992C61.5058 91.7976 60.1384 94.2724 60.728 96.8268C61.3177 99.3812 63.6412 101.048 65.9177 100.549Z" stroke="#A60000" stroke-width="0.722222" stroke-miterlimit="10"/>
<path d="M55.7469 95.7839C55.7469 95.7839 58.2574 93.3987 60.7985 94.9789" stroke="#A60000" stroke-width="0.722222" stroke-miterlimit="10"/>
<path d="M44.0826 95.7856L32.1427 97.1869" stroke="#A60000" stroke-width="0.722222" stroke-miterlimit="10"/>
<path d="M51.7691 101.333C48.6464 102.019 45.493 99.9912 44.7583 96.7712C44.0235 93.5512 45.9523 90.3908 49.1056 89.7349" stroke="#EE0000" stroke-width="0.722222" stroke-miterlimit="10" stroke-linecap="round"/>
<path d="M66.3421 131.653H92.1813C93.6509 131.653 94.1713 132.786 94.9979 133.978L77.8228 168.236C77.1799 169.547 75.8328 170.412 74.3327 170.412L49.7793 171.336C48.126 171.336 46.6565 168.742 47.3913 167.282L64.444 132.845C64.7807 132.1 65.5155 131.653 66.3421 131.653Z" fill="#292929"/>
<path d="M67.2613 132.636H93.1005C94.5701 132.636 95.5498 134.126 94.9375 135.438L78.742 169.189C78.0991 170.501 76.752 171.335 75.2519 171.335H50.3005C48.6472 171.335 47.5757 169.666 48.3105 168.235L65.3632 133.799C65.6999 133.083 66.4347 132.636 67.2613 132.636Z" fill="black"/>
<path d="M83.4561 145.002C83.4561 145.002 85.2624 138.83 82.109 138.979C82.109 138.979 80.6395 137.131 79.1087 138.055C77.5779 138.979 76.9962 141.275 76.9962 141.275C76.9962 141.275 75.8635 139.069 74.2409 140.798C73.4143 141.693 72.0978 144.436 71.0569 146.91C70.5977 147.685 63.3419 155.795 63.4949 157.047C63.648 158.24 65.9135 167.84 65.7298 169.689L65.4237 171.358L74.6389 171.418C74.5777 169.987 76.0472 167.989 76.0472 167.989C78.8944 166.588 83.8847 148.908 84.2521 147.059C84.6807 145.151 83.4561 145.002 83.4561 145.002Z" fill="#292929"/>
<path d="M93.0696 132.636C94.5391 132.636 95.5188 134.126 94.9065 135.438L78.7111 169.189C78.0681 170.501 76.7211 171.335 75.2209 171.335H50.2695C48.6163 171.335 47.5448 169.666 48.2795 168.235" stroke="#383838" stroke-width="0.240741" stroke-miterlimit="10" stroke-linecap="round"/>
<path d="M48.3378 168.235L65.3598 133.799C65.6966 133.083 66.4314 132.636 67.258 132.636H93.0972" stroke="white" stroke-width="0.240741" stroke-miterlimit="10" stroke-linecap="round"/>
<path d="M56.5745 110.809C56.5745 110.809 58.5338 111.405 60.1258 110.809" stroke="#40251D" stroke-width="0.481481" stroke-miterlimit="10" stroke-linecap="round"/>
<path d="M52.5953 108.395C52.5953 108.395 54.2179 109.051 57.1876 108.693C60.1573 108.335 61.2594 108.842 61.8717 108.246" stroke="#40251D" stroke-width="0.52" stroke-miterlimit="10" stroke-linecap="round"/>
<path d="M77.054 165.852C80.2074 164.54 86.2386 147.546 86.7897 145.578C87.3408 143.61 86.0549 143.372 86.0549 143.372C86.0549 143.372 88.5041 136.842 85.0752 136.783C85.0752 136.783 83.6363 134.696 81.9219 135.56C80.2074 136.425 79.4114 138.87 79.4114 138.87C79.4114 138.87 78.3399 136.395 76.503 138.124C74.6661 139.854 70.3493 149.007 70.3493 149.007C70.3493 149.007 71.8495 144.177 70.4718 143.491C67.9919 142.239 67.349 146.979 66.7979 147.784C66.2163 148.56 62.0526 155.834 62.1444 157.176C62.2363 158.518 63.4915 163.169 62.9098 164.362" fill="#A66552"/>
<path d="M62.9711 164.092C62.4507 165.195 43.1325 185.081 41.9997 186.602C41.9997 186.602 39.4587 184.634 39.0301 182.368C38.6014 180.102 35.3868 166.179 33.5805 163.793C33.5805 163.793 16.9871 158.785 12.0274 172.648C11.905 173.006 24.5184 199.035 26.4166 202.225C28.3147 205.385 33.9785 210.782 41.9997 211.11C50.0209 211.438 66.0939 178.761 71.1148 171.307C71.1148 171.307 73.8702 168.981 76.9623 165.881" fill="#A66552"/>
<path d="M79.1384 139.556C79.1384 139.556 73.2296 151.303 72.8622 152.555" stroke="#724335" stroke-width="0.587407" stroke-miterlimit="10" stroke-linecap="round"/>
<path d="M83.5751 138.42C83.5139 138.658 77.2684 151.717 77.0541 152.999" stroke="#724335" stroke-width="0.587407" stroke-miterlimit="10" stroke-linecap="round"/>
<path d="M85.1692 143.908C84.9855 144.087 81.679 151.243 81.3116 153.509" stroke="#724335" stroke-width="0.587407" stroke-miterlimit="10" stroke-linecap="round"/>
<path d="M70.1045 148.77C70.1045 148.77 68.6962 151.035 68.2064 151.453" stroke="#724335" stroke-width="0.587407" stroke-miterlimit="10" stroke-linecap="round"/>
<path d="M41.7257 187.257C41.7257 187.257 37.8682 191.043 36.613 192.653" stroke="#724335" stroke-width="0.52" stroke-miterlimit="10" stroke-linecap="round"/>
<mask id="mask5_1727_2153" style="mask-type:luminance" maskUnits="userSpaceOnUse" x="12" y="162" width="65" height="50">
<path d="M62.9711 164.101C62.4507 165.204 43.1325 185.091 41.9997 186.611C41.9997 186.611 39.4587 184.643 39.0301 182.377C38.6014 180.111 35.3868 166.188 33.5805 163.803C33.5805 163.803 16.9871 158.794 12.0274 172.658C11.905 173.016 24.5184 199.044 26.4166 202.234C28.3147 205.424 33.9785 210.791 41.9997 211.119C50.0209 211.447 62.5732 181.871 67.594 174.417C67.594 174.417 74.0845 167.112 76.9623 165.89" fill="white"/>
</mask>
<g mask="url(#mask5_1727_2153)">
<path d="M13.7744 176.556C13.7744 176.556 22.0099 205.894 55.5336 196.443L53.0231 202.376L19.7138 200.915L13.7744 176.556Z" fill="#724335"/>
</g>
<path d="M33.8908 98.3204C33.8908 98.3204 31.8396 94.534 28.8393 96.3825C26.0533 98.1117 28.1351 103.598 31.6865 106.102C32.2988 106.549 33.156 106.609 33.7989 106.162C34.1663 105.923 34.5643 105.506 34.8399 104.85" fill="#A66552"/>
<path d="M31.8375 98.7603C31.8375 98.7603 28.6842 97.6869 29.6332 100.967C29.8169 101.652 30.7354 101.921 31.2558 101.384L31.2864 101.354C32.0212 100.579 32.7254 101.175 32.5417 101.772C32.358 102.338 31.0415 102.219 30.9497 102.875C30.8578 103.531 31.5926 103.65 32.1437 103.59" stroke="#40251D" stroke-width="0.481481" stroke-miterlimit="10" stroke-linecap="round"/>
<path d="M59.3317 94.4434C59.3317 94.4434 60.0352 94.5327 60.3716 94.8306" stroke="#EE0000" stroke-width="0.722222" stroke-miterlimit="10" stroke-linecap="round"/>
<path d="M4.6792 189.972H61.1643L89.7589 230.997H31.192L4.6792 189.972Z" fill="#DBF2F2"/>
<mask id="mask6_1727_2153" style="mask-type:luminance" maskUnits="userSpaceOnUse" x="5" y="190" width="86" height="42">
<path d="M5.01562 190.386H61.5007L90.1259 231.411H31.5284L5.01562 190.386Z" fill="white"/>
</mask>
<g mask="url(#mask6_1727_2153)">
<path d="M0.0258961 223.218C0.117743 223.248 0.178978 223.248 0.270824 223.248C0.423901 223.248 0.515741 223.159 0.515741 223.039L-0.280256 208.907L10.2514 208.728C10.7718 209.235 11.5372 209.593 12.1801 209.563C12.9761 209.563 13.2211 208.967 12.7618 208.281C12.3026 207.595 11.2923 207.029 10.4963 207.059C9.85339 207.059 9.57785 207.446 9.73092 207.953L-0.310863 208.132L-0.46394 205.776C-0.494555 205.21 -0.739483 204.584 -1.16809 203.958L-14.6082 183.714C-14.1489 183.535 -14.0571 183.058 -14.4245 182.491C-14.8837 181.805 -15.894 181.239 -16.6594 181.269C-17.4248 181.269 -17.7003 181.865 -17.2105 182.551C-16.8431 183.117 -16.1083 183.564 -15.4348 183.743L-1.9947 203.988C-1.65793 204.494 -1.47425 205.001 -1.44363 205.449L-0.46394 222.711C-0.494555 222.89 -0.24964 223.129 0.0258961 223.218Z" fill="#38A3A3"/>
<path d="M21.3325 223.246C22.1284 223.246 22.3734 222.65 21.9141 221.964C21.4549 221.278 20.4446 220.712 19.6486 220.741C19.0057 220.741 18.7302 221.129 18.8832 221.636L9.85174 221.785C8.9639 221.785 8.44344 222.232 8.47406 222.948L9.20882 237.408C9.20882 237.587 9.45375 237.825 9.72928 237.915C9.82113 237.945 9.88236 237.945 9.9742 237.945C10.1273 237.945 10.2191 237.855 10.2191 237.736L9.45375 223.276C9.42313 222.828 9.7599 222.56 10.3416 222.53L19.3731 222.381C19.8935 222.888 20.6895 223.246 21.3325 223.246Z" fill="#38A3A3"/>
<path d="M50.938 217.494C51.3666 217.106 51.0298 216.331 50.2032 215.765C49.8359 215.496 49.4378 215.317 49.0399 215.258L44.9068 209.235L44.6619 208.877H45.0599C47.6316 208.818 52.9892 208.698 58.1632 208.579C63.3372 208.46 84.9209 208.37 87.4619 208.281C87.7069 208.281 87.7681 208.102 87.615 207.893C87.4619 207.685 87.1558 207.506 86.9109 207.506C84.3392 207.565 62.8167 207.685 57.6121 207.804C52.4381 207.923 47.0499 208.013 44.5088 208.102L43.6516 208.132C43.4066 208.132 43.3454 208.311 43.4985 208.52L48.1826 215.288C48.0908 215.317 48.0295 215.347 47.9683 215.407C47.5397 215.794 47.8765 216.57 48.7031 217.136C49.5297 217.732 50.54 217.881 50.938 217.494Z" fill="#38A3A3"/>
<path d="M29.601 194.749C29.7235 194.808 29.8766 194.838 29.999 194.868L34.5607 201.636C34.6219 201.725 34.7444 201.844 34.8669 201.904C34.9893 201.964 35.1424 202.023 35.2649 202.023L69.7376 201.487C69.9825 201.487 70.0437 201.308 69.8907 201.099C69.7376 200.89 69.4314 200.711 69.1865 200.711L35.6016 201.248H35.2036L30.9175 194.868C31.1624 194.778 31.3155 194.599 31.3155 194.331C31.3155 193.735 30.5807 192.96 29.6929 192.602C28.7744 192.244 28.0397 192.453 28.0397 193.049C27.9784 193.616 28.6826 194.391 29.601 194.749Z" fill="#38A3A3"/>
<path d="M100.139 234.492L89.4852 219.316C89.4239 219.257 89.3627 219.167 89.3015 219.108L88.3218 218.392C88.1687 218.273 87.985 218.213 87.8319 218.213C86.3012 218.213 80.3006 218.303 74.4837 218.392C69.7996 218.452 64.9624 218.511 62.5132 218.541C61.9927 218.094 61.2579 217.766 60.6762 217.796C59.8803 217.796 59.6353 218.392 60.1252 219.078C60.615 219.764 61.6253 220.33 62.4213 220.3C63.0949 220.3 63.3704 219.883 63.1561 219.316C65.6665 219.287 70.4119 219.227 75.0654 219.167C80.6068 219.078 86.3012 219.018 88.1381 218.988L88.7504 219.436L99.0677 234.134L73.6265 234.552C73.106 234.045 72.31 233.687 71.6671 233.717C70.8711 233.717 70.6262 234.313 71.0854 234.999C71.5753 235.685 72.5856 236.251 73.3816 236.221C74.0245 236.221 74.3 235.834 74.1469 235.327L99.6188 234.91L105.65 243.526C105.803 243.735 106.109 243.914 106.354 243.914C106.599 243.914 106.66 243.735 106.538 243.526L100.139 234.492Z" fill="#38A3A3"/>
<path d="M36.7051 187.562C36.8276 187.622 36.9807 187.651 37.1031 187.681L41.6954 194.449C41.7566 194.539 41.8791 194.658 42.0016 194.718C42.124 194.777 42.2771 194.837 42.3996 194.837H43.2568C48.8594 194.747 52.2883 194.688 55.7172 194.658C59.1461 194.598 62.5444 194.568 68.1163 194.479C68.3613 194.479 68.4225 194.3 68.2694 194.091C68.1163 193.883 67.8102 193.704 67.5653 193.704C61.9933 193.793 58.5644 193.853 55.1661 193.883C51.7372 193.942 48.3083 193.972 42.7057 194.062H42.3077L37.991 187.681C38.2359 187.592 38.389 187.413 38.389 187.145C38.389 186.548 37.6542 185.773 36.7358 185.415C35.8173 185.058 35.0825 185.266 35.0825 185.863C35.0519 186.429 35.7867 187.204 36.7051 187.562Z" fill="#38A3A3"/>
<path d="M11.2623 200.142C10.8949 199.576 10.1602 199.099 9.48665 198.949C9.48665 198.92 9.45603 198.92 9.45603 198.89L-6.06589 176.29C-6.21896 176.082 -6.52511 175.903 -6.73942 175.932C-6.98434 175.932 -7.04557 176.111 -6.8925 176.32L8.62942 198.92C8.62942 198.949 8.66004 198.949 8.66004 198.979C8.20081 199.158 8.10896 199.635 8.47634 200.202C8.93557 200.887 9.94587 201.454 10.7419 201.424C11.4766 201.424 11.7522 200.828 11.2623 200.142Z" fill="#38A3A3"/>
<path d="M18.4255 197.219C19.1909 197.219 19.4664 196.623 18.9766 195.937C18.6092 195.371 17.8744 194.924 17.1703 194.745C17.1703 194.715 17.1397 194.715 17.1397 194.685L4.22004 176.14C4.06696 175.932 3.76081 175.753 3.51589 175.783C3.27097 175.783 3.20974 175.961 3.36281 176.17L16.2824 194.745C16.2824 194.775 16.313 194.775 16.313 194.804C15.8538 194.983 15.762 195.46 16.1294 196.027C16.6192 196.683 17.6295 197.249 18.4255 197.219Z" fill="#38A3A3"/>
<path d="M54.5826 226.943C54.154 227.331 54.4908 228.106 55.3174 228.672C55.6848 228.941 56.0828 229.12 56.4501 229.179L69.8596 248.678L70.1045 249.036H69.6759C63.9509 249.155 60.4607 249.215 56.9706 249.274C55.5011 249.304 54.0315 249.334 52.4089 249.364L36.6115 225.989L39.9179 218.476C40.2547 218.625 40.5915 218.714 40.8976 218.684C41.6936 218.684 41.9385 218.088 41.4793 217.402C41.0201 216.717 39.9792 216.15 39.2138 216.18C38.4484 216.21 38.1729 216.776 38.6321 217.462C38.7239 217.611 38.8464 217.73 38.9689 217.85L35.8767 224.946L26.6922 211.35L25.988 210.277L26.3248 209.502L29.2945 202.614C29.57 202.734 29.8761 202.793 30.1211 202.763C30.9171 202.763 31.162 202.167 30.6721 201.481C30.2129 200.796 29.172 200.229 28.4066 200.259C27.6412 200.259 27.3657 200.855 27.8555 201.541C27.978 201.72 28.1311 201.899 28.3148 202.048L25.3451 208.965L24.9777 209.859C24.9471 209.919 24.9777 210.038 25.0389 210.128L25.8656 211.35L51.5823 249.424C49.5311 249.453 47.2044 249.513 44.3265 249.573C44.2041 249.573 44.1122 249.632 44.0816 249.692C44.051 249.781 44.0816 249.871 44.1428 249.96L50.9394 259.739C51.0925 259.948 51.3986 260.127 51.6436 260.097C51.8885 260.097 51.9497 259.918 51.8272 259.71L45.3062 250.318C50.7557 250.229 54.154 250.139 57.5829 250.079C61.073 250.02 64.5938 249.93 70.2882 249.841L71.1454 249.811C71.2679 249.811 71.3597 249.752 71.3904 249.692C71.421 249.632 71.3904 249.513 71.3291 249.424L70.8087 248.678L57.3992 229.179C57.4911 229.149 57.5523 229.09 57.6135 229.06C58.0421 228.672 57.7054 227.897 56.8788 227.331C56.0215 226.734 55.0112 226.556 54.5826 226.943Z" fill="#38A3A3"/>
</g>
<path d="M4.6792 189.972H61.1643L89.7589 230.997" stroke="white" stroke-width="0.481481" stroke-linecap="round" stroke-linejoin="round"/>
<path d="M31.193 230.997L4.68021 189.972L-23.2715 242.744L3.97606 284.873L31.193 230.997Z" fill="#B9E5E5"/>
<path d="M31.1933 230.996H89.7602L62.6351 284.871H4.06824L31.1933 230.996Z" fill="#9AD8D8"/>
<path d="M89.7589 230.997H31.192L4.6792 189.972" stroke="white" stroke-width="0.481481" stroke-linecap="round" stroke-linejoin="round"/>
<path d="M19.4983 253.956L4.06824 284.456" stroke="#DBF2F2" stroke-width="0.481481" stroke-linecap="round" stroke-linejoin="round"/>
</g>
<defs>
<clipPath id="clip0_1727_2153">
<path d="M0 16C0 7.16344 7.16344 0 16 0H250C258.837 0 266 7.16344 266 16V313C266 321.837 258.837 329 250 329H16C7.16345 329 0 321.837 0 313V16Z" fill="white"/>
</clipPath>
</defs>
</svg>
