<svg width="249" height="200" viewBox="0 0 249 200" fill="none" xmlns="http://www.w3.org/2000/svg">
<g clip-path="url(#clip0_905_3545)">
<path d="M121.232 7.78198H25.1334V76.1088H121.232V7.78198Z" fill="white"/>
<path d="M75.4781 42.4124C62.1722 51.0505 48.555 56.2645 33.9263 61.2451C21.0872 65.6031 4.82438 75.3307 0.855942 89.105C-3.1125 102.957 5.99157 129.494 42.9525 129.961C84.9713 130.506 106.37 144.903 128.935 151.984C151.579 159.144 171.888 161.868 191.419 153.074C217.797 141.089 233.671 110.895 233.126 83.2684C232.659 59.0661 215.541 38.2101 194.998 26.5369C177.646 16.7315 157.103 12.9182 137.261 15.4863C102.79 20.0778 85.2047 36.1867 75.4781 42.4124Z" fill="#E0F0FF"/>
<path d="M118.82 10.2722H22.7213V78.5991H118.82V10.2722Z" fill="#0066CC"/>
<path d="M137.028 158.91C137.028 158.91 129.169 165.525 116.719 161.401C104.269 157.276 104.191 145.914 104.191 145.914C104.191 145.914 91.5075 145.447 85.6716 134.942C80.5359 125.681 85.5938 114.63 85.5938 114.63C85.5938 114.63 78.6684 112.996 75.0113 105.447C71.3541 97.8987 74.7 90.8948 74.7 90.8948C74.7 90.8948 66.6075 83.3462 69.7978 73.7742C72.9881 64.2022 80.7694 62.4902 80.7694 62.4902C80.7694 62.4902 81.2363 52.0621 89.64 44.0466C97.4213 36.6536 110.027 38.2878 110.027 38.2878C110.027 38.2878 111.505 27.4707 121.777 25.7586C132.048 24.0466 136.95 31.2061 136.95 31.2061L137.028 158.91Z" fill="#E0F0FF"/>
<mask id="mask0_905_3545" style="mask-type:luminance" maskUnits="userSpaceOnUse" x="69" y="25" width="69" height="138">
<path d="M137.028 158.91C137.028 158.91 129.169 165.525 116.719 161.401C104.269 157.276 104.191 145.914 104.191 145.914C104.191 145.914 91.5075 145.447 85.6716 134.942C80.5359 125.681 85.5938 114.63 85.5938 114.63C85.5938 114.63 78.6684 112.996 75.0113 105.447C71.3541 97.8987 74.7 90.8948 74.7 90.8948C74.7 90.8948 66.6075 83.3462 69.7978 73.7742C72.9881 64.2022 80.7694 62.4902 80.7694 62.4902C80.7694 62.4902 81.2363 52.0621 89.64 44.0466C97.4213 36.6536 110.027 38.2878 110.027 38.2878C110.027 38.2878 111.505 27.4707 121.777 25.7586C132.048 24.0466 136.95 31.2061 136.95 31.2061L137.028 158.91Z" fill="white"/>
</mask>
<g mask="url(#mask0_905_3545)">
<path d="M118.82 11.9844H22.7213V78.5992H118.82V11.9844Z" fill="#0066CC"/>
</g>
<path d="M121.232 7.78198H25.1335V76.1088H121.232V7.78198Z" fill="white"/>
<path d="M121.465 76.4202H24.8222V7.54858H121.465V76.4202ZM25.3669 75.8754H120.998V8.01551H25.3669V75.8754Z" fill="#EE0000"/>
<path d="M69.8756 73.6963C73.0659 64.1243 80.8472 62.4123 80.8472 62.4123C80.8472 62.4123 81.314 51.9843 89.7178 43.9687C97.499 36.5757 110.105 38.2099 110.105 38.2099C110.105 38.2099 111.505 27.8598 121.154 25.8364V18.8325C97.0322 25.3695 83.5706 37.2761 75.4781 42.4901C62.1722 51.0504 48.555 56.2644 33.9262 61.245C31.0472 62.2566 28.0903 63.424 25.0556 64.9804V76.1866H69.3309C69.4087 75.3306 69.6422 74.4745 69.8756 73.6963Z" fill="#FFE8CC"/>
<path d="M110.105 38.1323C110.105 38.1323 97.4991 36.4203 89.7179 43.8911C81.3141 51.9845 80.8472 62.3347 80.8472 62.3347C80.8472 62.3347 73.066 64.0467 69.8757 73.6187C69.5644 74.4747 69.4088 75.253 69.2532 76.109H121.154V25.7588C111.505 27.7821 110.105 38.1323 110.105 38.1323Z" fill="#FCCB8F"/>
<path d="M137.028 158.91C137.028 158.91 144.887 165.525 157.337 161.401C169.787 157.276 169.865 145.914 169.865 145.914C169.865 145.914 182.548 145.447 188.384 134.942C193.52 125.681 188.462 114.63 188.462 114.63C188.462 114.63 195.387 112.996 199.044 105.447C202.702 97.8987 199.356 90.8948 199.356 90.8948C199.356 90.8948 207.448 83.3462 204.258 73.7742C201.068 64.2022 193.286 62.4902 193.286 62.4902C193.286 62.4902 192.819 52.0621 184.416 44.0466C176.634 36.6536 164.029 38.2878 164.029 38.2878C164.029 38.2878 162.55 27.4707 152.279 25.7586C142.008 24.0466 137.106 31.2061 137.106 31.2061L137.028 158.91Z" fill="white"/>
<path d="M95.3204 108.405C96.1369 108.405 96.7988 107.743 96.7988 106.926C96.7988 106.109 96.1369 105.448 95.3204 105.448C94.5038 105.448 93.8419 106.109 93.8419 106.926C93.8419 107.743 94.5038 108.405 95.3204 108.405Z" fill="#EE0000"/>
<path d="M37.1165 35.4084H31.5919V49.1828H37.1165V35.4084Z" fill="#F5921B"/>
<path d="M46.9209 24.3579H41.3962V49.1828H46.9209V24.3579Z" fill="#92C5F9"/>
<path d="M56.8031 27.8599H51.2784V49.1828H56.8031V27.8599Z" fill="#FCCB8F"/>
<path d="M204.413 73.6187C201.457 64.8249 194.687 62.5681 193.442 62.179C193.364 60.7004 192.275 51.2062 184.493 43.7354C177.335 36.8871 165.896 37.7432 164.107 37.8988C163.795 36.2646 161.617 26.9261 152.123 25.3696C142.942 23.8132 137.962 29.3385 136.95 30.6615C135.938 29.3385 130.958 23.891 121.777 25.3696C112.283 26.9261 110.105 36.2646 109.793 37.8988C108.004 37.7432 96.6431 36.8871 89.4065 43.7354C81.6253 51.2062 80.6137 60.7782 80.4581 62.179C79.2909 62.4903 72.4434 64.8249 69.4865 73.6187C66.5297 82.5681 73.2994 89.8054 74.3109 90.8949C73.844 91.9844 71.354 98.5992 74.7 105.525C77.9681 112.218 83.804 114.319 85.1269 114.786C84.4265 116.576 80.6915 126.615 85.2825 135.097C90.6515 144.825 102.012 146.07 103.802 146.226C103.88 147.004 104.113 149.416 105.436 152.296C106.914 155.409 110.027 159.611 116.485 161.712C119.442 162.724 122.166 163.035 124.5 163.035C131.425 163.035 135.938 159.922 136.794 159.222C137.65 159.922 142.163 163.035 149.089 163.035C151.501 163.035 154.224 162.646 157.103 161.712C168.542 157.899 169.709 147.86 169.787 146.226C171.577 146.07 182.937 144.903 188.306 135.097C192.975 126.693 189.24 116.576 188.462 114.786C189.785 114.397 195.698 112.296 198.889 105.525C202.235 98.5992 199.745 91.9844 199.278 90.8949C200.601 89.8054 207.37 82.5681 204.413 73.6187ZM136.794 154.553C136.561 154.163 136.327 153.852 136.016 153.541L130.18 147.704C129.247 146.77 128.78 145.603 128.78 144.358V136.965C129.558 136.809 130.102 136.187 130.102 135.409C130.102 134.553 129.402 133.852 128.546 133.852C127.69 133.852 126.99 134.553 126.99 135.409C126.99 136.187 127.535 136.887 128.313 136.965V144.358C128.313 145.759 128.857 147.082 129.869 148.093L135.705 153.93C136.405 154.63 136.794 155.564 136.794 156.576V158.755C135.861 159.455 128.313 164.981 116.797 161.167C104.658 157.121 104.424 145.992 104.424 145.914V142.257C104.424 141.167 105.28 140.311 106.37 140.311H108.237C108.393 141.089 109.015 141.634 109.793 141.634C110.649 141.634 111.35 140.934 111.35 140.078C111.35 139.222 110.649 138.521 109.793 138.521C109.015 138.521 108.315 139.066 108.237 139.844H106.37C105.592 139.844 104.891 140.233 104.424 140.856V125.292C104.424 124.28 104.813 123.346 105.514 122.646L113.606 114.553C113.84 114.708 114.151 114.864 114.54 114.864C115.396 114.864 116.096 114.163 116.096 113.307C116.096 112.451 115.396 111.751 114.54 111.751C113.684 111.751 112.984 112.451 112.984 113.307C112.984 113.619 113.062 114.008 113.295 114.241L105.202 122.335C104.891 122.646 104.658 122.957 104.424 123.346V118.054C104.424 116.654 103.88 115.331 102.868 114.319L95.4759 106.926L95.0869 107.315L102.479 114.708C103.413 115.642 103.88 116.809 103.88 118.054V130.661C103.646 130.272 103.413 129.961 103.102 129.65L99.2887 125.837C99.4444 125.603 99.6 125.292 99.6 124.903C99.6 124.047 98.8997 123.346 98.0437 123.346C97.1878 123.346 96.4875 124.047 96.4875 124.903C96.4875 125.759 97.1878 126.459 98.0437 126.459C98.355 126.459 98.744 126.381 98.9775 126.148L102.79 129.961C103.491 130.661 103.88 131.595 103.88 132.607V145.759C102.09 145.603 91.0406 144.358 85.8272 134.864C80.8472 125.837 85.7494 114.864 85.7494 114.786C85.7494 114.708 85.7494 114.63 85.7494 114.553C85.7494 114.475 85.6715 114.475 85.5937 114.397C85.5159 114.397 78.7462 112.685 75.1669 105.37C71.5875 97.9766 74.8556 91.0506 74.8556 90.9727C74.9334 90.8949 74.8556 90.7393 74.7778 90.6615C74.7 90.5836 66.8409 83.1128 69.9534 73.7743C72.9881 64.6692 80.2247 62.7237 80.6915 62.6459H89.7178C91.4297 62.6459 93.0637 61.9455 94.2309 60.7782L103.491 51.5175C103.724 51.6731 104.035 51.8288 104.424 51.8288C105.28 51.8288 105.981 51.1284 105.981 50.2724C105.981 49.4163 105.28 48.7159 104.424 48.7159C103.568 48.7159 102.868 49.4163 102.868 50.2724C102.868 50.5836 102.946 50.9727 103.179 51.2062L93.9197 60.4669C92.8303 61.5564 91.3519 62.179 89.7178 62.179H80.925C81.0806 60.5447 82.17 51.3619 89.7178 44.1245C95.0091 39.0661 102.635 38.2879 106.837 38.2879C108.626 38.2879 109.793 38.4436 109.871 38.4436C110.027 38.4436 110.105 38.3657 110.182 38.2101C110.182 38.1323 111.739 27.5486 121.777 25.8366C131.27 24.2801 136.094 30.428 136.639 31.1284L136.794 154.553ZM198.811 105.292C195.232 112.685 188.462 114.319 188.384 114.319C188.306 114.319 188.228 114.397 188.228 114.475C188.228 114.553 188.228 114.63 188.228 114.708C188.306 114.786 193.131 125.759 188.151 134.786C182.937 144.28 171.888 145.525 170.098 145.681V138.288C170.098 137.276 170.487 136.342 171.187 135.642L175.156 131.673C175.389 131.829 175.701 131.907 176.012 131.907C176.79 131.907 177.49 131.284 177.49 130.428C177.49 129.572 176.868 128.949 176.012 128.949C175.156 128.949 174.533 129.572 174.533 130.428C174.533 130.739 174.611 131.051 174.767 131.284L170.798 135.253C170.487 135.564 170.254 135.875 170.02 136.265V126.381C170.02 124.981 170.565 123.58 171.577 122.568L175.623 118.521C175.856 118.677 176.167 118.755 176.479 118.755C177.257 118.755 177.957 118.132 177.957 117.276C177.957 116.42 177.335 115.798 176.479 115.798C175.701 115.798 175 116.42 175 117.276C175 117.588 175.078 117.899 175.234 118.132L171.187 122.179C170.098 123.268 169.476 124.747 169.476 126.303V130.117C169.32 129.728 169.009 129.416 168.697 129.105L164.029 124.436C164.184 124.202 164.262 123.891 164.262 123.58C164.262 122.802 163.64 122.101 162.784 122.101C161.928 122.101 161.305 122.724 161.305 123.58C161.305 124.436 161.928 125.058 162.784 125.058C163.095 125.058 163.406 124.981 163.64 124.825L168.308 129.494C169.009 130.195 169.398 131.128 169.398 132.14V145.837C169.398 145.837 169.32 148.716 167.842 151.984C166.441 155.019 163.406 159.066 157.103 161.167C145.665 164.981 138.039 159.455 137.106 158.755V154.241V152.062C137.106 151.051 137.495 150.117 138.195 149.416L143.175 144.436C144.109 143.502 145.276 143.035 146.521 143.035H148.233C148.388 143.735 148.933 144.28 149.711 144.28C150.489 144.28 151.19 143.658 151.19 142.802C151.19 141.946 150.567 141.323 149.711 141.323C149.011 141.323 148.388 141.868 148.233 142.568H146.521C145.12 142.568 143.797 143.113 142.786 144.124L137.806 149.105C137.495 149.416 137.261 149.728 137.028 150.117V145.681V142.335C137.028 141.323 137.417 140.389 138.117 139.689L145.12 132.685C145.976 131.829 147.066 131.44 148.233 131.44H153.913C154.069 132.14 154.613 132.685 155.392 132.685C156.17 132.685 156.87 132.062 156.87 131.206C156.87 130.428 156.247 129.728 155.392 129.728C154.691 129.728 154.069 130.272 153.913 130.973H148.233C147.688 130.973 147.143 131.051 146.677 131.206L151.501 126.381C152.279 125.603 152.746 124.514 152.746 123.424V113.23C153.446 113.074 153.991 112.529 153.991 111.751C153.991 110.973 153.368 110.272 152.512 110.272C151.657 110.272 151.034 110.895 151.034 111.751C151.034 112.451 151.579 113.074 152.279 113.23V123.424C152.279 124.436 151.89 125.37 151.19 126.07L144.887 132.374L143.72 133.541L137.884 139.377C137.572 139.689 137.339 140.078 137.106 140.389V74.3969V69.8833C137.106 68.8716 137.495 67.9377 138.195 67.2373L144.031 61.4008L144.809 60.6226L145.198 60.2334C145.898 59.5331 146.832 59.144 147.844 59.144H150.178C150.178 59.9222 150.878 60.6226 151.657 60.6226C152.435 60.6226 153.135 60 153.135 59.144C153.135 58.2879 152.512 57.6654 151.657 57.6654C151.034 57.6654 150.489 58.0545 150.256 58.677H147.844C147.143 58.677 146.521 58.8327 145.898 59.144C146.287 58.4436 146.443 57.5875 146.443 56.7315V52.8405C147.143 52.7626 147.766 52.1401 147.766 51.3618C147.766 50.5836 147.143 49.8833 146.287 49.8833C145.432 49.8833 144.809 50.5058 144.809 51.3618C144.809 52.0622 145.276 52.607 145.976 52.7626V56.6537C145.976 57.9766 145.432 59.2218 144.498 60.1556L137.806 66.8482C137.495 67.1595 137.261 67.4708 137.028 67.8599V31.1284C137.495 30.428 142.397 24.2801 151.89 25.8366C160.994 27.3152 163.095 36.3424 163.406 37.8988C161.461 38.2101 159.905 39.9222 159.905 42.0233V42.8015H153.446C153.291 42.1012 152.746 41.5564 151.968 41.5564C151.19 41.5564 150.489 42.179 150.489 43.035C150.489 43.8132 151.112 44.5136 151.968 44.5136C152.668 44.5136 153.291 43.9689 153.446 43.2685H159.905V47.1595C159.905 48.249 160.372 49.3385 161.15 50.1167L168.075 57.0428C167.919 57.2762 167.842 57.5875 167.842 57.8988C167.842 58.677 168.464 59.3774 169.32 59.3774C170.098 59.3774 170.798 58.7548 170.798 57.8988C170.798 57.1206 170.176 56.4202 169.32 56.4202C169.009 56.4202 168.697 56.498 168.464 56.6537L161.539 49.7276C160.838 49.0272 160.449 48.0934 160.449 47.0817V42.0233C160.449 40.1556 161.928 38.5214 163.717 38.3657H163.795C163.951 38.3657 176.401 36.8093 183.949 44.0467C191.419 51.2062 192.586 60.2334 192.742 62.0233C191.886 61.8677 191.03 61.712 190.252 61.712C190.174 61.712 190.018 61.712 189.94 61.712H189.084C188.073 61.712 187.061 61.3229 186.361 60.5447L180.681 54.7082C180.836 54.4747 180.992 54.1634 180.992 53.8521C180.992 53.0739 180.369 52.3735 179.513 52.3735C178.657 52.3735 178.035 52.9961 178.035 53.8521C178.035 54.6303 178.657 55.3307 179.513 55.3307C179.825 55.3307 180.136 55.2529 180.369 55.0973L186.05 60.9338C186.594 61.4786 187.295 61.8677 188.073 62.1012C187.372 62.3346 186.672 62.8015 186.127 63.3463L178.191 71.284C177.957 71.1284 177.646 71.0506 177.335 71.0506C176.557 71.0506 175.856 71.6731 175.856 72.5292C175.856 73.3852 176.479 74.0078 177.335 74.0078C178.191 74.0078 178.813 73.3852 178.813 72.5292C178.813 72.2179 178.735 71.9066 178.58 71.6731L186.517 63.7354C187.528 62.7237 188.929 62.179 190.329 62.2568C191.185 62.3346 192.119 62.4124 193.131 62.6459C193.131 62.6459 195.076 63.1128 197.332 64.6692C199.433 66.1478 202.235 68.8716 203.869 73.7743C206.981 83.1128 199.122 90.5836 199.044 90.6615C198.967 90.7393 198.967 90.8171 198.967 90.9727C199.122 90.9727 202.39 97.8988 198.811 105.292Z" fill="#EE0000"/>
<path d="M131.503 44.1245C130.647 44.1245 129.947 44.8249 129.947 45.6809C129.947 46.537 130.647 47.2374 131.503 47.2374C132.359 47.2374 133.059 46.537 133.059 45.6809C133.059 44.8249 132.359 44.1245 131.503 44.1245Z" fill="#EE0000"/>
<path d="M136.794 53.3072V56.9648H137.261V53.3072C137.261 51.9065 136.717 50.5835 135.705 49.6497L131.581 45.5251L131.192 45.9143L135.316 50.0388C136.328 50.8948 136.794 52.0621 136.794 53.3072Z" fill="#EE0000"/>
<path d="M118.82 93.6963V93.3072C118.82 83.2683 126.99 75.0971 137.028 75.0971C144.887 75.0971 151.968 80.2332 154.38 87.7041L149.789 86.6924L149.633 87.3928L155.314 88.6379L156.714 82.1009L156.014 81.9453L154.925 86.848C152.279 79.3772 145.12 74.3188 137.106 74.3188C126.757 74.3188 118.353 82.6457 118.197 92.9181H34.6266V93.6963H118.508H118.82Z" fill="#EE0000"/>
<path d="M245.187 89.4941H219.587C217.642 89.4941 216.007 90.9727 215.852 92.9183H155.547H155.158V93.3074C155.158 103.346 146.988 111.517 136.95 111.517C129.091 111.517 122.01 106.381 119.598 98.9105L124.189 99.9222L124.344 99.2218L118.664 97.9766L117.263 104.514L117.964 104.669L119.053 99.7665C121.699 107.237 128.857 112.296 136.872 112.296C147.221 112.296 155.625 103.969 155.781 93.6965H215.696C215.852 95.642 217.486 97.1206 219.431 97.1206H245.032C247.132 97.1206 248.844 95.4085 248.844 93.3074C249 91.2062 247.288 89.4941 245.187 89.4941Z" fill="#EE0000"/>
<path d="M239.896 78.21H219.665C217.564 78.21 215.852 79.922 215.852 82.0232C215.852 84.1244 217.564 85.8364 219.665 85.8364H239.896C241.997 85.8364 243.709 84.1244 243.709 82.0232C243.631 79.922 241.919 78.21 239.896 78.21Z" fill="#F5921B"/>
<path d="M219.665 101.245H239.896C241.763 101.245 243.32 102.802 243.32 104.669C243.32 106.537 241.763 108.093 239.896 108.093H219.665C217.797 108.093 216.241 106.537 216.241 104.669C216.241 102.724 217.719 101.245 219.665 101.245Z" fill="white"/>
<path d="M239.896 108.405H219.665C217.564 108.405 215.852 106.692 215.852 104.591C215.852 102.49 217.564 100.778 219.665 100.778H239.896C241.997 100.778 243.709 102.49 243.709 104.591C243.709 106.692 241.919 108.405 239.896 108.405ZM219.665 101.556C218.031 101.556 216.63 102.879 216.63 104.591C216.63 106.303 217.953 107.626 219.665 107.626H239.896C241.53 107.626 242.931 106.303 242.931 104.591C242.931 102.879 241.608 101.556 239.896 101.556H219.665Z" fill="#EE0000"/>
<path d="M239.896 112.14H219.665C217.564 112.14 215.852 113.852 215.852 115.953C215.852 118.054 217.564 119.766 219.665 119.766H239.896C241.997 119.766 243.709 118.054 243.709 115.953C243.631 113.852 241.919 112.14 239.896 112.14Z" fill="#0066CC"/>
<path d="M24.9 7.54858V76.4202H121.465V7.54858H24.9ZM25.3669 75.8754V15.3307H120.998V75.8754H25.3669Z" fill="#EE0000"/>
<path d="M116.33 12.996C117.146 12.996 117.808 12.334 117.808 11.5174C117.808 10.7008 117.146 10.0388 116.33 10.0388C115.513 10.0388 114.851 10.7008 114.851 11.5174C114.851 12.334 115.513 12.996 116.33 12.996Z" fill="white"/>
<path d="M8.48155 89.8833H34.0819C35.9494 89.8833 37.5056 91.4397 37.5056 93.3074C37.5056 95.1751 35.9494 96.7316 34.0819 96.7316H8.48155C6.61405 96.7316 5.0578 95.1751 5.0578 93.3074C5.0578 91.4397 6.61405 89.8833 8.48155 89.8833Z" fill="white"/>
<path d="M34.0819 97.1206H8.48157C6.38064 97.1206 4.66876 95.4085 4.66876 93.3074C4.66876 91.2062 6.38064 89.4941 8.48157 89.4941H34.0819C36.1828 89.4941 37.8947 91.2062 37.8947 93.3074C37.8169 95.4085 36.105 97.1206 34.0819 97.1206ZM8.48157 90.2724C6.84751 90.2724 5.44689 91.5953 5.44689 93.3074C5.44689 95.0194 6.7697 96.3424 8.48157 96.3424H34.0819C35.7159 96.3424 37.1166 95.0194 37.1166 93.3074C37.1166 91.5953 35.7938 90.2724 34.0819 90.2724H8.48157Z" fill="#EE0000"/>
<path d="M115.707 125.447V124.747H117.03V121.634C116.952 121.712 116.952 121.79 116.797 121.868C116.641 121.945 116.563 122.023 116.485 122.101C116.33 122.179 116.252 122.179 116.096 122.257C115.941 122.257 115.785 122.334 115.629 122.334V121.556C115.785 121.556 115.941 121.556 116.096 121.478C116.252 121.401 116.408 121.401 116.485 121.323C116.641 121.245 116.719 121.167 116.797 121.089C116.874 121.012 116.952 120.856 117.03 120.778H117.964V124.747H119.053V125.447H115.707Z" fill="#EE0000"/>
<path d="M114.151 130.272C114.151 130.739 114.073 131.051 113.995 131.362C113.918 131.673 113.762 131.907 113.606 132.14C113.451 132.296 113.295 132.451 113.062 132.529C112.828 132.607 112.595 132.685 112.361 132.685C112.128 132.685 111.894 132.607 111.661 132.529C111.428 132.451 111.272 132.296 111.116 132.14C110.961 131.984 110.883 131.673 110.805 131.362C110.727 131.051 110.649 130.661 110.649 130.272C110.649 129.805 110.727 129.416 110.805 129.105C110.883 128.794 111.038 128.56 111.116 128.327C111.272 128.171 111.428 128.015 111.661 127.938C111.894 127.86 112.128 127.86 112.361 127.86C112.595 127.86 112.828 127.86 113.062 127.938C113.295 128.015 113.451 128.171 113.606 128.327C113.762 128.482 113.84 128.794 113.995 129.105C114.151 129.416 114.151 129.805 114.151 130.272ZM113.217 130.272C113.217 129.961 113.217 129.65 113.217 129.494C113.217 129.261 113.139 129.105 113.062 128.949C112.984 128.794 112.906 128.716 112.828 128.716C112.75 128.716 112.595 128.638 112.517 128.638C112.361 128.638 112.283 128.638 112.206 128.716C112.128 128.794 112.05 128.872 111.972 128.949C111.894 129.105 111.894 129.261 111.817 129.494C111.817 129.728 111.817 129.961 111.817 130.272C111.817 130.584 111.817 130.817 111.817 131.051C111.817 131.284 111.894 131.44 111.972 131.595C112.05 131.751 112.128 131.829 112.206 131.907C112.283 131.984 112.439 131.984 112.517 131.984C112.673 131.984 112.75 131.984 112.828 131.907C112.906 131.829 112.984 131.751 113.062 131.595C113.139 131.44 113.139 131.284 113.217 131.051C113.139 130.817 113.217 130.584 113.217 130.272Z" fill="#EE0000"/>
<path d="M127.768 119.066C127.768 119.533 127.69 119.844 127.613 120.156C127.535 120.467 127.379 120.7 127.223 120.934C127.068 121.089 126.912 121.245 126.679 121.323C126.445 121.401 126.212 121.478 125.978 121.478C125.745 121.478 125.512 121.401 125.278 121.323C125.045 121.245 124.889 121.089 124.733 120.934C124.578 120.778 124.5 120.467 124.422 120.156C124.344 119.844 124.267 119.455 124.267 119.066C124.267 118.599 124.344 118.21 124.422 117.899C124.5 117.587 124.656 117.354 124.733 117.12C124.889 116.965 125.045 116.809 125.278 116.731C125.512 116.654 125.745 116.654 125.978 116.654C126.212 116.654 126.445 116.654 126.679 116.731C126.912 116.809 127.068 116.965 127.223 117.12C127.379 117.276 127.457 117.587 127.613 117.899C127.69 118.21 127.768 118.599 127.768 119.066ZM126.757 119.066C126.757 118.755 126.757 118.443 126.757 118.288C126.757 118.054 126.679 117.899 126.601 117.743C126.523 117.587 126.445 117.51 126.368 117.51C126.29 117.51 126.134 117.432 126.056 117.432C125.901 117.432 125.823 117.432 125.745 117.51C125.667 117.587 125.589 117.665 125.512 117.743C125.434 117.899 125.434 118.054 125.356 118.288C125.356 118.521 125.356 118.755 125.356 119.066C125.356 119.377 125.356 119.611 125.356 119.844C125.356 120.078 125.434 120.233 125.512 120.389C125.589 120.545 125.667 120.622 125.745 120.7C125.823 120.778 125.978 120.778 126.056 120.778C126.134 120.778 126.29 120.778 126.368 120.7C126.445 120.622 126.523 120.545 126.601 120.389C126.679 120.233 126.679 120.078 126.757 119.844C126.757 119.689 126.757 119.377 126.757 119.066Z" fill="#EE0000"/>
<path d="M168.464 71.3619V70.6615H169.787V67.5487C169.709 67.6265 169.709 67.7043 169.553 67.7821C169.476 67.8599 169.32 67.9378 169.242 68.0156C169.087 68.0934 169.009 68.0934 168.853 68.1712C168.697 68.1712 168.542 68.249 168.386 68.249V67.4708C168.542 67.4708 168.697 67.4708 168.853 67.393C169.009 67.3152 169.164 67.3152 169.242 67.2374C169.398 67.1596 169.476 67.0817 169.553 67.0039C169.631 66.9261 169.709 66.7704 169.787 66.6926H170.721V70.6615H171.81V71.3619H168.464Z" fill="#EE0000"/>
<path d="M176.323 88.0933V87.3929H177.646V84.2801C177.568 84.3579 177.568 84.4357 177.413 84.5136C177.335 84.5914 177.179 84.6692 177.101 84.747C176.946 84.8249 176.868 84.8249 176.712 84.9027C176.557 84.9027 176.401 84.9805 176.245 84.9805V84.2023C176.401 84.2023 176.557 84.2023 176.712 84.1245C176.868 84.0466 177.023 84.0466 177.101 83.9688C177.257 83.891 177.335 83.8132 177.413 83.7354C177.49 83.6575 177.568 83.5019 177.646 83.4241H178.58V87.3929H179.669V88.0933H176.323Z" fill="#EE0000"/>
<path d="M164.262 76.8094C164.262 77.2763 164.184 77.5876 164.107 77.8989C164.029 78.2102 163.873 78.4437 163.717 78.6771C163.562 78.8328 163.406 78.9884 163.173 79.0662C162.939 79.1441 162.706 79.2219 162.472 79.2219C162.239 79.2219 162.006 79.1441 161.772 79.0662C161.539 78.9884 161.383 78.8328 161.227 78.6771C161.072 78.5215 160.994 78.2102 160.916 77.8989C160.838 77.5876 160.761 77.1985 160.761 76.8094C160.761 76.3425 160.838 75.9534 160.916 75.6421C160.994 75.3308 161.15 75.0974 161.227 74.8639C161.383 74.7083 161.539 74.5526 161.772 74.4748C162.006 74.397 162.239 74.397 162.472 74.397C162.706 74.397 162.939 74.397 163.173 74.4748C163.406 74.5526 163.562 74.7083 163.717 74.8639C163.873 75.0195 163.951 75.3308 164.107 75.6421C164.184 75.9534 164.262 76.3425 164.262 76.8094ZM163.251 76.8094C163.251 76.4981 163.251 76.1869 163.251 76.0312C163.251 75.7977 163.173 75.6421 163.095 75.4865C163.017 75.3308 162.939 75.253 162.862 75.253C162.784 75.1752 162.628 75.1752 162.55 75.1752C162.395 75.1752 162.317 75.1752 162.239 75.253C162.161 75.3308 162.083 75.4086 162.006 75.4865C161.928 75.6421 161.928 75.7977 161.85 76.0312C161.85 76.2647 161.85 76.4981 161.85 76.8094C161.85 77.1207 161.85 77.3542 161.85 77.5876C161.85 77.8211 161.928 77.9767 162.006 78.1324C162.083 78.288 162.161 78.3658 162.239 78.4437C162.317 78.5215 162.472 78.5215 162.55 78.5215C162.706 78.5215 162.784 78.5215 162.862 78.4437C162.939 78.3658 163.017 78.288 163.095 78.1324C163.173 77.9767 163.173 77.8211 163.251 77.5876C163.251 77.3542 163.251 77.1207 163.251 76.8094Z" fill="#EE0000"/>
<path d="M193.831 100.467C193.831 100.934 193.753 101.401 193.675 101.79C193.597 102.179 193.442 102.412 193.286 102.646C193.131 102.879 192.897 103.035 192.664 103.113C192.43 103.191 192.197 103.268 191.886 103.268C191.574 103.268 191.341 103.191 191.107 103.113C190.874 103.035 190.641 102.879 190.485 102.646C190.329 102.412 190.174 102.179 190.096 101.79C190.018 101.401 189.94 101.012 189.94 100.467C189.94 99.9221 190.018 99.4552 190.096 99.1439C190.174 98.7548 190.329 98.5213 190.485 98.2879C190.641 98.0544 190.874 97.8987 191.107 97.8209C191.341 97.7431 191.574 97.6653 191.886 97.6653C192.197 97.6653 192.43 97.7431 192.664 97.8209C192.897 97.8987 193.131 98.0544 193.286 98.2879C193.442 98.5213 193.597 98.7548 193.675 99.1439C193.753 99.533 193.753 99.9221 193.831 100.467ZM192.664 100.467C192.664 100.078 192.664 99.7665 192.586 99.533C192.508 99.2995 192.508 99.0661 192.43 98.9882C192.352 98.8326 192.275 98.7548 192.197 98.677C192.119 98.5991 191.963 98.5991 191.808 98.5991C191.652 98.5991 191.497 98.5991 191.419 98.677C191.341 98.7548 191.263 98.8326 191.185 98.9882C191.107 99.1439 191.107 99.2995 191.03 99.533C191.03 99.7665 190.952 100.078 190.952 100.467C190.952 100.856 190.952 101.089 191.03 101.401C191.03 101.634 191.107 101.868 191.185 101.945C191.263 102.101 191.341 102.179 191.419 102.257C191.497 102.335 191.652 102.335 191.808 102.335C191.963 102.335 192.041 102.335 192.197 102.257C192.275 102.179 192.352 102.101 192.43 101.945C192.508 101.79 192.508 101.634 192.586 101.401C192.664 101.167 192.664 100.856 192.664 100.467Z" fill="#EE0000"/>
<path d="M29.4909 93.3074C29.4909 93.6187 29.4909 93.93 29.4131 94.1634C29.3353 94.3969 29.2575 94.6304 29.1018 94.7082C28.9462 94.8638 28.8684 94.9416 28.7128 95.0195C28.5572 95.0973 28.4015 95.0973 28.1681 95.0973C28.0125 95.0973 27.779 95.0973 27.6234 95.0195C27.4678 94.9416 27.3122 94.8638 27.2343 94.7082C27.1565 94.5525 27.0009 94.3969 27.0009 94.1634C27.0009 93.93 26.9231 93.6187 26.9231 93.3074C26.9231 92.9961 26.9231 92.6848 27.0009 92.3735C27.0787 92.1401 27.1565 91.9066 27.2343 91.8288C27.39 91.6732 27.4678 91.5953 27.6234 91.5175C27.779 91.4397 27.9347 91.4397 28.1681 91.4397C28.3237 91.4397 28.5572 91.4397 28.7128 91.5175C28.8684 91.5953 29.024 91.6732 29.1018 91.8288C29.1797 91.9844 29.3353 92.1401 29.3353 92.3735C29.3353 92.607 29.4909 92.9183 29.4909 93.3074ZM28.7128 93.3074C28.7128 93.0739 28.7128 92.8405 28.7128 92.6848C28.7128 92.5292 28.635 92.3735 28.635 92.2957C28.5572 92.2179 28.5572 92.1401 28.4793 92.0623C28.4015 91.9844 28.3237 91.9844 28.2459 91.9844C28.1681 91.9844 28.0903 91.9844 28.0125 92.0623C27.9347 92.1401 27.8568 92.1401 27.8568 92.2957C27.779 92.3735 27.779 92.5292 27.779 92.6848C27.779 92.8405 27.779 93.0739 27.779 93.3074C27.779 93.5409 27.779 93.7743 27.779 93.93C27.779 94.0856 27.8568 94.2413 27.8568 94.3191C27.9347 94.3969 27.9347 94.4747 28.0125 94.5525C28.0903 94.6304 28.1681 94.6304 28.2459 94.6304C28.3237 94.6304 28.4015 94.6304 28.4793 94.5525C28.5572 94.4747 28.635 94.4747 28.635 94.3191C28.635 94.1634 28.7128 94.0856 28.7128 93.93C28.7128 93.7743 28.7906 93.5409 28.7128 93.3074Z" fill="#EE0000"/>
<path d="M22.5656 95.0973V94.5526H23.5772V92.1401C23.5772 92.218 23.4994 92.2958 23.4216 92.3736C23.3437 92.4514 23.2659 92.5293 23.1881 92.5293C23.1103 92.6071 22.9547 92.6071 22.8769 92.6071C22.799 92.6071 22.6434 92.6849 22.5656 92.6849V92.1401C22.7212 92.1401 22.7991 92.1401 22.9547 92.0623C23.1103 91.9845 23.1881 91.9845 23.2659 91.9067C23.3437 91.8289 23.4216 91.751 23.4994 91.751C23.5772 91.751 23.655 91.5954 23.655 91.5176H24.3553V94.5526H25.2112V95.0973H22.5656Z" fill="#EE0000"/>
<path d="M31.514 95.0973V94.5526H32.5256V92.1401C32.5256 92.218 32.4478 92.2958 32.37 92.3736C32.2922 92.4514 32.2143 92.5293 32.1365 92.5293C32.0587 92.6071 31.9031 92.6071 31.8253 92.6071C31.7475 92.6071 31.5919 92.6849 31.514 92.6849V92.1401C31.6697 92.1401 31.7475 92.1401 31.9031 92.0623C31.9809 92.0623 32.1365 91.9845 32.2144 91.9067C32.2922 91.8289 32.37 91.751 32.4478 91.751C32.5256 91.6732 32.6034 91.5954 32.6034 91.5176H33.3037V94.5526H34.1597V95.0973H31.514Z" fill="#EE0000"/>
<path d="M20.6203 93.3074C20.6203 93.6187 20.6203 93.93 20.5425 94.1634C20.4647 94.3969 20.3869 94.6304 20.2312 94.7082C20.0756 94.8638 19.9978 94.9416 19.8422 95.0195C19.6866 95.0973 19.5309 95.0973 19.2975 95.0973C19.0641 95.0973 18.9084 95.0973 18.7528 95.0195C18.5972 94.9416 18.4416 94.8638 18.3637 94.7082C18.2859 94.5525 18.1303 94.3969 18.1303 94.1634C18.1303 93.93 18.0525 93.6187 18.0525 93.3074C18.0525 92.9961 18.0525 92.6848 18.1303 92.3735C18.2081 92.1401 18.2859 91.9066 18.3637 91.8288C18.5194 91.6732 18.5972 91.5953 18.7528 91.5175C18.9084 91.4397 19.0641 91.4397 19.2975 91.4397C19.4531 91.4397 19.6866 91.4397 19.8422 91.5175C19.9978 91.5953 20.1534 91.6732 20.2312 91.8288C20.3091 91.9844 20.4647 92.1401 20.4647 92.3735C20.4647 92.607 20.6203 92.9183 20.6203 93.3074ZM19.8422 93.3074C19.8422 93.0739 19.8422 92.8405 19.8422 92.6848C19.8422 92.5292 19.7644 92.3735 19.7644 92.2957C19.6866 92.2179 19.6866 92.1401 19.6087 92.0623C19.5309 91.9844 19.4531 91.9844 19.3753 91.9844C19.2975 91.9844 19.2197 91.9844 19.1419 92.0623C19.0641 92.1401 18.9862 92.1401 18.9862 92.2957C18.9084 92.3735 18.9084 92.5292 18.9084 92.6848C18.9084 92.8405 18.9084 93.0739 18.9084 93.3074C18.9084 93.5409 18.9084 93.7743 18.9084 93.93C18.9084 94.0856 18.9862 94.2413 18.9862 94.3191C18.9862 94.3969 19.0641 94.4747 19.1419 94.5525C19.2197 94.6304 19.2975 94.6304 19.3753 94.6304C19.4531 94.6304 19.5309 94.6304 19.6087 94.5525C19.6866 94.4747 19.7644 94.4747 19.7644 94.3191C19.8422 94.2413 19.8422 94.0856 19.8422 93.93C19.8422 93.7743 19.8422 93.5409 19.8422 93.3074Z" fill="#EE0000"/>
<path d="M13.695 95.0973V94.5526H14.7066V92.1401C14.7066 92.218 14.6288 92.2958 14.5509 92.3736C14.4731 92.4514 14.3953 92.5293 14.3175 92.5293C14.2397 92.6071 14.0841 92.6071 14.0063 92.6071C13.9284 92.6071 13.7728 92.6849 13.695 92.6849V92.1401C13.8506 92.1401 13.9284 92.1401 14.0841 92.0623C14.2397 91.9845 14.3175 91.9845 14.3953 91.9067C14.4731 91.8289 14.5509 91.751 14.6288 91.751C14.7066 91.751 14.7844 91.5954 14.7844 91.5176H15.4847V94.5526H16.3406V95.0973H13.695Z" fill="#EE0000"/>
<path d="M11.6719 93.3074C11.6719 93.6187 11.6719 93.93 11.5941 94.1634C11.5163 94.3969 11.4384 94.6304 11.2828 94.7082C11.1272 94.8638 11.0494 94.9416 10.8938 95.0195C10.7381 95.0973 10.5825 95.0973 10.3491 95.0973C10.1934 95.0973 9.96 95.0973 9.80438 95.0195C9.64875 94.9416 9.49313 94.8638 9.41532 94.7082C9.3375 94.5525 9.18188 94.3969 9.18188 94.1634C9.10407 93.93 9.10406 93.6187 9.10406 93.3074C9.10406 92.9961 9.10407 92.6848 9.18188 92.3735C9.25969 92.1401 9.3375 91.9066 9.41532 91.8288C9.57094 91.6732 9.64875 91.5953 9.80438 91.5175C9.96 91.4397 10.1156 91.4397 10.3491 91.4397C10.5047 91.4397 10.7381 91.4397 10.8938 91.5175C11.0494 91.5953 11.205 91.6732 11.2828 91.8288C11.3606 91.9844 11.5163 92.1401 11.5163 92.3735C11.6719 92.6848 11.6719 92.9183 11.6719 93.3074ZM10.8938 93.3074C10.8938 93.0739 10.8938 92.8405 10.8938 92.6848C10.8938 92.5292 10.8159 92.3735 10.8159 92.2957C10.7381 92.2179 10.7381 92.1401 10.6603 92.0623C10.5825 91.9844 10.5047 91.9844 10.4269 91.9844C10.3491 91.9844 10.2713 91.9844 10.1934 92.0623C10.1156 92.1401 10.0378 92.1401 10.0378 92.2957C9.96 92.3735 9.96 92.5292 9.96 92.6848C9.96 92.8405 9.96 93.0739 9.96 93.3074C9.96 93.5409 9.96 93.7743 9.96 93.93C9.96 94.0856 10.0378 94.2413 10.0378 94.3191C10.1156 94.3969 10.1156 94.4747 10.1934 94.5525C10.2713 94.6304 10.3491 94.6304 10.4269 94.6304C10.5047 94.6304 10.5825 94.6304 10.6603 94.5525C10.7381 94.4747 10.8159 94.4747 10.8159 94.3191C10.8938 94.2413 10.8938 94.0856 10.8938 93.93C10.8938 93.7743 10.8938 93.5409 10.8938 93.3074Z" fill="#EE0000"/>
<path d="M30.1913 173.463C30.1913 173.463 27.001 176.654 25.1335 175.876C25.1335 175.876 24.4331 178.366 26.3006 180.934C28.246 183.502 29.88 183.346 29.88 183.346C29.88 183.346 29.2575 181.712 30.5025 179.922C31.7475 178.21 33.226 177.121 33.226 177.121L30.1913 173.463Z" fill="#F7C8BB"/>
<mask id="mask1_905_3545" style="mask-type:luminance" maskUnits="userSpaceOnUse" x="25" y="173" width="9" height="11">
<path d="M30.1913 173.463C30.1913 173.463 27.001 176.654 25.1335 175.876C25.1335 175.876 24.4331 178.366 26.3006 180.934C28.246 183.502 29.88 183.346 29.88 183.346C29.88 183.346 29.2575 181.712 30.5025 179.922C31.7475 178.21 33.226 177.121 33.226 177.121L30.1913 173.463Z" fill="white"/>
</mask>
<g mask="url(#mask1_905_3545)">
<path d="M25.6003 177.666C27.1566 176.887 29.1019 175.798 29.1019 175.798C29.1019 175.798 31.5919 177.121 33.2259 177.354C34.86 177.666 33.4594 177.354 33.4594 177.354L29.6466 172.918L25.2891 175.02L23.9662 177.354" fill="#E8A997"/>
</g>
<path d="M20.3091 179.377C19.92 181.09 17.1188 183.813 17.1188 183.813C17.1188 183.813 16.7297 184.436 17.7413 185.292C18.5972 185.992 18.9085 185.992 19.2975 185.759C19.2975 185.759 21.3206 183.658 21.7875 183.035C22.41 182.335 22.9547 183.191 22.9547 183.191C22.9547 183.191 23.1881 182.179 22.0988 180.7C21.0872 179.377 20.3091 179.377 20.3091 179.377Z" fill="#292929"/>
<path d="M25.756 175.331C25.756 175.331 26.3007 175.097 26.4563 175.487C26.8454 176.498 25.8338 178.21 26.8454 180C27.7791 181.79 29.8022 181.634 30.5025 181.634C30.5025 181.634 30.1913 184.747 29.88 186.771C29.6466 188.794 29.1797 189.261 30.5804 190.117C31.981 190.973 32.37 191.596 32.0588 192.918C31.9032 193.385 31.5141 194.164 31.2807 194.397C31.2807 194.397 29.5688 194.397 27.7013 193.463C26.4563 192.841 24.9779 191.985 24.4332 190.662C24.0441 189.65 24.1997 188.638 24.2775 187.627C24.4332 186.226 24.1997 184.903 23.266 183.813C21.3207 181.557 20.2313 180.856 20.1535 179.533C20.1535 179.533 19.8422 178.599 21.5541 177.432C22.9547 176.498 23.3438 176.887 25.756 175.331Z" fill="black"/>
<path d="M31.2807 193.308H31.2029C31.0472 193.23 31.0472 193.074 31.0472 192.996C31.2807 192.529 31.2807 192.062 31.0472 191.751C30.736 191.362 29.8022 190.739 29.4132 190.584C29.2575 190.506 29.2575 190.35 29.3354 190.272C29.4132 190.117 29.5688 190.117 29.6466 190.195C29.8022 190.272 31.0472 190.973 31.4363 191.518C31.7475 191.985 31.7475 192.607 31.5141 193.23C31.4363 193.308 31.3585 193.308 31.2807 193.308Z" fill="#707070"/>
<path d="M48.3216 180.467C48.3216 180.467 47.9325 185.058 45.676 185.681C45.676 185.681 46.8431 188.171 50.3447 188.872C53.8463 189.65 55.1691 188.483 55.1691 188.483C55.1691 188.483 53.4572 187.549 53.2238 185.37C52.9903 183.191 53.535 181.401 53.535 181.401L48.3216 180.467Z" fill="#F7C8BB"/>
<mask id="mask2_905_3545" style="mask-type:luminance" maskUnits="userSpaceOnUse" x="45" y="180" width="11" height="10">
<path d="M48.3216 180.467C48.3216 180.467 47.9325 185.058 45.676 185.681C45.676 185.681 46.8431 188.171 50.3447 188.872C53.8463 189.65 55.1691 188.483 55.1691 188.483C55.1691 188.483 53.4572 187.549 53.2238 185.37C52.9903 183.191 53.535 181.401 53.535 181.401L48.3216 180.467Z" fill="white"/>
</mask>
<g mask="url(#mask2_905_3545)">
<path d="M47.9325 186.848C47.9325 186.848 49.411 184.747 49.7222 183.269C49.7222 183.269 52.2122 183.269 53.3794 182.879L47.9325 181.323L45.9094 186.537" fill="#E8A997"/>
</g>
<path d="M44.0419 191.518C44.8979 193.152 44.3532 197.121 44.3532 197.121C44.3532 197.121 44.5088 197.899 45.9094 197.899C47.1544 197.899 47.3879 197.665 47.6213 197.276C47.6213 197.276 47.8547 194.241 47.9326 193.541C48.0104 192.607 49.0219 192.918 49.0219 192.918C49.0219 192.918 48.4772 191.907 46.5319 191.518C44.6644 191.051 44.0419 191.518 44.0419 191.518Z" fill="#292929"/>
<path d="M45.9094 184.825C45.9094 184.825 46.2985 184.28 46.6875 184.514C47.7769 185.058 48.0882 187.082 50.1891 187.86C52.29 188.638 53.9241 187.315 54.5466 186.771C54.5466 186.771 56.4919 189.494 57.6591 191.284C58.8263 193.074 59.2932 194.008 61.1607 194.086C63.0282 194.164 63.7285 194.553 64.1175 195.876C64.2732 196.343 64.2732 197.276 64.1953 197.588C64.1953 197.588 62.4835 198.444 60.1491 198.444C58.5928 198.444 56.9588 198.444 55.5582 197.665C54.5466 197.121 53.9241 196.265 53.2238 195.331C52.3678 194.086 51.2785 193.152 49.6444 192.841C46.3763 192.218 44.8978 192.374 43.8863 191.362C43.8863 191.362 42.9525 190.817 43.6528 188.872C44.2753 187.471 44.8978 187.627 45.9094 184.825Z" fill="black"/>
<path d="M63.4172 196.809C63.2616 196.809 63.1838 196.732 63.1838 196.576C63.106 196.031 62.8725 195.564 62.4835 195.409C62.0166 195.175 60.6938 195.097 60.2269 195.097C60.0713 195.097 59.9935 195.019 59.9935 194.864C59.9935 194.708 60.1491 194.63 60.2269 194.63C60.3047 194.63 62.0166 194.63 62.6391 195.019C63.1838 195.253 63.495 195.798 63.6507 196.576C63.7285 196.654 63.6507 196.732 63.4172 196.809C63.495 196.809 63.495 196.809 63.4172 196.809Z" fill="#707070"/>
<path d="M49.4888 141.323C49.4888 144.28 48.7107 147.782 47.3879 149.961C46.065 152.218 41.3185 157.899 38.3616 161.634C35.4047 165.37 32.5257 168.638 31.9032 171.595C31.9032 171.595 31.5919 172.14 30.8916 172.763C30.1913 173.385 29.0241 174.086 29.0241 174.086C29.0241 174.086 28.7128 174.475 30.8916 176.031C33.0703 177.588 33.3038 177.432 33.3038 177.432C33.3038 177.432 35.3269 175.642 36.7275 175.253C36.7275 175.253 41.7075 172.996 45.1313 170.584C48.555 168.171 53.0682 163.191 57.6591 157.821C62.25 152.452 61.2385 152.374 62.8725 148.638C64.5066 144.903 61.5497 141.012 58.126 139.922C54.7022 138.833 49.5666 139.455 49.5666 139.455C49.5666 139.455 49.4888 139.455 49.4888 141.323Z" fill="black"/>
<path d="M36.105 175.331C33.3816 174.63 32.1366 172.763 32.1366 172.685C32.0587 172.607 32.0587 172.451 32.2144 172.374C32.2922 172.296 32.4478 172.296 32.5256 172.451C32.5256 172.451 33.6928 174.241 36.1828 174.942C36.3384 174.942 36.4162 175.097 36.3384 175.253C36.3384 175.253 36.2606 175.331 36.105 175.331Z" fill="#292929"/>
<path d="M78.2794 80.078C79.8357 79.0663 81.3919 77.5099 82.0922 76.9652C82.7925 76.3426 84.5044 72.8407 85.2047 72.2959C85.905 71.7512 86.1385 77.7434 85.7494 78.8329C85.4382 79.9224 83.7263 80.4671 83.7263 80.4671C83.7263 80.4671 81.8588 81.9457 80.536 83.4243C79.1354 84.8251 78.2794 80.078 78.2794 80.078Z" fill="#E8A997"/>
<path d="M95.0868 74.9417C95.6315 75.0195 95.9428 75.1751 95.865 75.5642C95.7872 75.9533 95.2425 76.1868 94.6978 76.1868C94.1531 76.109 93.0637 75.4864 93.0637 75.4864" fill="#BE00F3"/>
<path d="M62.7169 57.6654C61.005 57.0428 57.1922 62.7238 56.4919 68.8716C55.8694 75.0195 52.29 65.2919 52.29 65.2919L55.4804 57.432L60.2269 53.3853" fill="#009C6D"/>
<path d="M67.5413 51.2063C68.3578 51.2063 69.0197 49.9868 69.0197 48.4825C69.0197 46.9782 68.3578 45.7588 67.5413 45.7588C66.7248 45.7588 66.0629 46.9782 66.0629 48.4825C66.0629 49.9868 66.7248 51.2063 67.5413 51.2063Z" fill="white"/>
<path d="M67.4635 47.9377C67.8526 48.9494 68.086 49.3385 68.3972 49.6498C68.7085 49.9611 68.9419 50.1946 68.9419 50.6615C68.9419 50.8949 68.6307 51.2841 68.2416 51.5953C67.7747 51.9066 66.7632 52.0623 66.7632 52.0623" fill="#F7C8BB"/>
<path d="M91.1185 81.4787L78.9797 77.5877C78.5129 77.432 77.9682 76.2647 78.2794 75.72L90.4182 58.5993C90.7294 58.1324 91.4297 57.8211 91.8966 57.9768L104.347 61.4787C104.58 61.79 104.736 62.646 104.424 63.113L92.5969 80.8561C92.2857 81.4009 91.6632 81.6344 91.1185 81.4787Z" fill="black"/>
<path d="M91.2741 80.6229C91.1963 80.6229 91.1184 80.6229 91.0406 80.6229L78.8241 76.654C78.6685 76.5762 78.5128 76.4984 78.5128 76.3428C78.435 76.1871 78.5128 75.8758 78.6684 75.6424L90.496 57.8992C90.7294 57.5101 91.1963 57.2766 91.5853 57.2766C91.6631 57.2766 91.7409 57.2766 91.8188 57.2766L104.035 61.2455C104.191 61.3233 104.347 61.4011 104.347 61.5568C104.424 61.7124 104.347 62.0237 104.191 62.2572L92.3634 80.0003C92.13 80.3895 91.6631 80.6229 91.2741 80.6229Z" fill="white"/>
<path d="M91.5075 57.4324C91.5854 57.4324 91.6632 57.4324 91.741 57.4324L103.958 61.4012C104.113 61.4791 104.191 61.4791 104.191 61.6347C104.269 61.7904 104.191 61.946 104.035 62.1795L92.2079 79.9226C91.9744 80.2339 91.5854 80.4674 91.2741 80.4674C91.1963 80.4674 91.1185 80.4674 91.0407 80.4674L78.8241 76.4985C78.6685 76.4207 78.5907 76.4207 78.5907 76.2651C78.5129 76.1094 78.5907 75.9538 78.7463 75.7203L90.5738 57.9771C90.7294 57.6658 91.1185 57.4324 91.5075 57.4324ZM91.5075 57.1211C91.0407 57.1211 90.5738 57.3546 90.3404 57.8215L78.5129 75.5647C78.2016 76.0316 78.2794 76.5763 78.8241 76.732L91.0407 80.7009C91.1185 80.7009 91.1963 80.7787 91.3519 80.7787C91.8188 80.7787 92.2857 80.5452 92.5191 80.0783L104.269 62.3351C104.58 61.8682 104.502 61.3234 103.958 61.1678L91.8188 57.1989C91.6632 57.1211 91.5854 57.1211 91.5075 57.1211Z" fill="#292929"/>
<path d="M103.569 63.4243L89.5623 58.9107L90.3404 57.7434C90.6516 57.2764 91.2741 56.9652 91.741 57.1208L104.035 61.0897C104.502 61.2453 104.658 61.7122 104.269 62.257L103.569 63.4243Z" fill="#292929"/>
<path d="M95.441 71.153C96.2617 70.6021 96.5969 69.6637 96.1897 69.0571C95.7826 68.4504 94.7872 68.4052 93.9666 68.9561C93.1459 69.507 92.8106 70.4454 93.2178 71.0521C93.6249 71.6587 94.6203 71.7039 95.441 71.153Z" fill="#EE0000"/>
<path d="M91.3394 69.5652C91.946 69.158 92.2048 68.4807 91.9174 68.0525C91.63 67.6243 90.9052 67.6072 90.2986 68.0144C89.6921 68.4216 89.4333 69.0989 89.7207 69.5271C90.0081 69.9553 90.7328 69.9724 91.3394 69.5652Z" fill="#EE0000"/>
<path d="M87.7711 68.1535C88.1279 67.914 88.2813 67.5173 88.1137 67.2675C87.946 67.0177 87.5208 67.0094 87.164 67.2489C86.8072 67.4884 86.6538 67.8851 86.8215 68.1349C86.9891 68.3847 87.4143 68.393 87.7711 68.1535Z" fill="#EE0000"/>
<path d="M65.7516 85.8367C66.9188 85.7589 75.7894 81.6344 79.291 78.9106C79.291 78.9106 80.3025 78.9106 80.8472 79.611C81.3919 80.2336 81.8588 81.0896 81.8588 82.4904C81.8588 83.8912 77.9681 88.4048 77.9681 88.4048C77.9681 88.4048 71.6653 92.7628 69.2531 93.2297C66.841 93.7745 65.7516 85.8367 65.7516 85.8367Z" fill="#A60000"/>
<path d="M67.5412 51.4398C66.5297 51.4398 65.8293 50.1168 65.8293 48.4826C65.8293 46.8483 66.6075 45.5254 67.5412 45.5254C68.5528 45.5254 69.2531 46.8483 69.2531 48.4826C69.2531 50.1168 68.5528 51.4398 67.5412 51.4398ZM67.5412 45.9923C66.8409 45.9923 66.2962 47.1596 66.2962 48.4826C66.2962 49.8055 66.8409 50.9729 67.5412 50.9729C68.2415 50.9729 68.7862 49.8055 68.7862 48.4826C68.7862 47.1596 68.2415 45.9923 67.5412 45.9923Z" fill="#EE0000"/>
<path d="M68.1638 45.9922C68.2416 46.8482 67.3857 47.7821 67.6191 48.4047C67.6191 48.4047 68.3194 49.8054 68.0082 51.5175C67.7747 52.7626 67.5413 53.2296 66.841 54.3191C65.6738 56.2646 65.7516 57.2762 64.6622 57.8988C63.1838 58.7548 61.005 56.3424 60.0713 57.1206C60.0713 57.1206 57.6591 58.8327 55.4025 60.7782C53.146 62.8015 52.5235 65.3696 52.5235 65.3696L48.4772 63.8132C48.4772 63.8132 49.4888 54.786 49.8 53.6965C50.1891 52.607 50.8894 49.8054 50.5004 47.0039C50.1113 44.2023 50.3447 38.4436 56.1029 37.1206C61.861 35.7977 65.4404 39.0661 66.6075 40.5447C67.7747 42.1012 68.1638 45.9922 68.1638 45.9922Z" fill="#F7C8BB"/>
<mask id="mask3_905_3545" style="mask-type:luminance" maskUnits="userSpaceOnUse" x="48" y="36" width="21" height="35">
<path d="M68.1638 45.9923C68.1638 45.9923 67.7747 42.0234 66.6075 40.5448C65.4404 38.9884 61.861 35.7199 56.1029 37.1207C50.3447 38.4437 50.0335 44.2024 50.5004 47.004C50.8894 49.8055 50.1891 52.6071 49.8 53.6966C49.411 54.7861 48.4772 63.8133 48.4772 63.8133L52.29 65.2919C52.29 65.2919 55.8694 75.0195 56.4919 68.8717C57.1144 63.1907 60.4604 57.8211 62.3279 57.5876C63.106 57.9767 64.0397 58.288 64.74 57.8989C65.7516 57.2764 65.6738 56.2647 66.9188 54.3192C67.5413 53.2297 67.8525 52.7627 68.086 51.5176C68.3972 49.8055 67.6969 48.4048 67.6969 48.4048C67.3857 47.7822 68.3194 46.9262 68.1638 45.9923Z" fill="white"/>
</mask>
<g mask="url(#mask3_905_3545)">
<path d="M62.7169 52.2959C63.0282 52.6072 62.9504 54.6305 62.9504 55.5644C62.9504 56.4982 63.4173 57.8212 63.8841 57.899C64.351 57.9768 64.5844 57.9768 64.5844 57.9768C64.5844 57.9768 64.5066 58.5216 63.2616 58.6772C62.0166 58.8328 60.616 59.8445 60.1491 60.7005C59.6823 61.4787 58.3594 63.4243 58.3594 63.4243L57.3479 65.0585L55.5582 62.1791L55.1691 59.6889L56.5697 56.9651L58.3594 54.397L60.616 50.6616L62.3279 50.3503L62.8726 50.8951L63.2616 51.4398" fill="#E8A997"/>
</g>
<path d="M46.4541 84.4359C47.0766 86.6927 47.8547 89.4165 48.2438 91.7511C48.7106 94.864 47.8547 98.5215 47.8547 98.5215C47.8547 98.5215 49.5666 98.9885 56.025 98.9885C62.4834 98.9885 64.5066 98.4437 64.5066 98.4437C64.5066 98.4437 64.5844 94.0857 64.3509 91.2064C64.1175 88.327 63.6506 84.7472 63.8841 83.2686C64.1175 81.79 65.5959 79.8445 65.1291 77.1986C64.6622 74.5527 62.25 72.9962 61.4719 71.362C60.6938 69.7278 58.2037 64.2803 54.9356 64.2025C51.5897 64.1247 47.1544 64.5916 44.7422 70.1169C43.0303 73.9301 44.1975 76.1091 45.3647 80.4671C45.6759 81.5566 45.9872 82.7239 46.2984 83.8134C46.3763 83.969 46.3763 84.2025 46.4541 84.4359Z" fill="#EE0000"/>
<mask id="mask4_905_3545" style="mask-type:luminance" maskUnits="userSpaceOnUse" x="43" y="64" width="23" height="35">
<path d="M46.4541 84.4359C47.0766 86.6927 47.8547 89.4165 48.2438 91.7511C48.7106 94.864 47.8547 98.5215 47.8547 98.5215C47.8547 98.5215 49.5666 98.9885 56.025 98.9885C62.4834 98.9885 64.5066 98.4437 64.5066 98.4437C64.5066 98.4437 64.5844 94.0857 64.3509 91.2064C64.1175 88.327 63.6506 84.7472 63.8841 83.2686C64.1175 81.79 65.5959 79.8445 65.1291 77.1986C64.6622 74.5527 62.25 72.9962 61.4719 71.362C60.6938 69.7278 58.2037 64.2803 54.9356 64.2025C51.5897 64.1247 47.1544 64.5916 44.7422 70.1169C43.0303 73.9301 44.1975 76.1091 45.3647 80.4671C45.6759 81.5566 45.9872 82.7239 46.2984 83.8134C46.3763 83.969 46.3763 84.2025 46.4541 84.4359Z" fill="white"/>
</mask>
<g mask="url(#mask4_905_3545)">
<path d="M51.8231 72.218C51.8231 72.218 54.3909 75.9534 54.4687 84.6694C54.6244 93.3853 54.8578 98.2102 58.9041 102.257C62.9503 106.304 62.0166 94.7083 62.0166 94.7083L58.515 75.6422L56.025 71.2842" fill="#A60000"/>
<path d="M58.3594 62.1012C58.3594 62.1012 58.1259 63.8132 52.7569 67.7043C47.3878 71.5954 45.8315 78.7549 48.4772 86.1479C51.1228 93.5409 51.045 94.8638 50.9672 101.712C50.8894 108.56 44.5087 100.623 44.5087 100.623L41.5519 88.5603L40.6181 78.3658L41.8631 74.0078L45.3647 69.0273L48.2437 65.9144L51.2784 62.8016L53.1459 60.1557L54.7022 58.7549" fill="#A60000"/>
</g>
<path d="M77.7347 83.4242C80.1469 81.5565 81.3919 79.6888 81.9366 79.0663C82.4813 78.4437 82.8704 77.5877 83.1038 76.8095C83.3372 76.0313 85.516 76.4982 86.2941 77.1986C87.0722 77.899 86.3719 80.0779 86.3719 80.0779C86.3719 80.0779 85.0491 80.7783 84.271 81.9457C81.3919 86.0702 79.7579 89.7277 78.5907 90.3503" fill="#F7C8BB"/>
<path d="M81.4697 79.611C81.9366 78.8328 83.415 75.0974 83.5707 74.1636C83.7263 73.3075 83.5707 72.9962 84.271 72.4515C84.9713 71.9067 85.9829 71.1285 86.5275 70.8172C87.0722 70.506 87.6169 70.1947 88.4729 69.7278C89.3288 69.2608 89.9513 68.7939 90.1847 68.7161C90.4182 68.6383 90.496 68.5604 90.6516 68.7161C90.8072 68.7939 90.885 69.0274 90.4182 69.6499C89.8735 70.2725 88.3172 71.1285 87.6169 71.9067C87.6169 71.9067 87.8504 71.7511 88.2394 71.8289C88.6285 71.9067 88.8619 72.1402 88.9397 72.2958C89.0175 72.4515 88.8619 72.685 88.8619 72.685C88.8619 72.685 89.251 72.6071 89.5622 72.685C89.8735 72.7628 90.1069 72.9962 90.1069 73.3075C90.1069 73.6188 90.0291 74.0079 90.0291 74.0079C90.0291 74.0079 90.2625 73.9301 90.496 74.0857C90.7294 74.2414 90.885 74.6305 90.8072 75.0974C90.7294 75.5643 90.5738 76.2647 90.4182 76.4982C90.2625 76.7316 89.64 77.1207 89.251 77.432C88.9397 77.6655 88.5507 77.3542 88.5507 77.2764C88.5507 77.1986 88.5507 76.7316 88.5507 76.7316C88.5507 76.7316 87.8504 77.5099 87.5391 78.3659C87.2279 79.2219 86.3719 80.0001 85.9829 80.4671C85.5938 80.8562 84.1932 81.6344 83.8041 82.3348" fill="#F7C8BB"/>
<path d="M48.1659 96.4981C48.0103 98.4436 44.8978 103.813 43.7306 108.638C42.6412 113.074 44.0419 118.911 45.8316 124.358C46.6097 126.848 49.2553 134.397 49.5666 139.533C49.8 143.58 48.7884 149.494 53.4572 149.961C58.1259 150.428 64.9734 146.459 65.3625 139.377C65.8294 132.296 65.7516 124.591 65.2069 118.599C64.6622 112.685 63.3394 104.591 63.495 102.802C63.5728 101.012 63.4172 96.6537 63.4172 96.6537C63.4172 96.6537 50.7337 94.9416 48.1659 96.4981Z" fill="#003366"/>
<path d="M49.5666 146.226C49.5666 148.872 46.9988 158.055 46.1429 162.724C45.3647 167.393 46.1429 176.031 48.0104 178.288L47.5435 181.946C47.5435 181.946 47.2322 182.49 50.2669 182.802C53.3016 183.113 53.8463 182.88 53.8463 182.88C53.8463 180.623 54.9357 178.288 54.9357 178.288C56.5697 175.798 58.9041 170.895 59.8379 168.094C63.4172 157.977 64.6622 145.059 65.0513 140.545C65.3625 136.265 59.5266 136.031 55.636 136.031C51.7454 136.031 48.7107 134.786 48.7107 134.786C48.7107 134.786 49.6444 138.988 49.5666 146.226Z" fill="#003366"/>
<path d="M52.2122 179.533C50.1891 179.533 48.6328 178.911 48.4772 178.911C48.3216 178.833 48.3216 178.755 48.3216 178.599C48.3994 178.444 48.4772 178.444 48.6328 178.444C48.6328 178.444 51.3563 179.533 54.0797 178.833C54.2353 178.833 54.3132 178.911 54.391 178.988C54.391 179.144 54.3132 179.222 54.2353 179.3C53.535 179.455 52.8347 179.533 52.2122 179.533Z" fill="black"/>
<path d="M63.4172 102.802C63.495 101.012 63.3394 96.6538 63.3394 96.6538C63.3394 96.6538 59.8379 96.1868 56.1807 95.9534C52.8347 95.7977 49.3332 95.7977 48.0882 96.4981C48.0882 97.1207 47.6991 97.9767 47.31 99.144C46.2985 101.712 44.5088 105.292 43.6529 108.716C42.5635 113.152 43.9641 118.988 45.7538 124.436C46.2207 125.837 47.3101 129.027 48.166 132.374C47.5435 126.615 46.6097 121.556 45.9872 118.444C44.5088 110.895 46.6097 107.938 47.6213 105.603C48.3216 104.125 49.5666 101.167 50.2669 98.8328C52.1344 98.6771 54.7022 98.6771 57.6591 98.9884C59.2154 101.245 61.3941 103.502 63.495 104.825C63.4172 103.891 63.4172 103.191 63.4172 102.802Z" fill="black"/>
<path d="M69.6422 46.926H63.2616V47.393H69.6422V46.926Z" fill="#EE0000"/>
<path d="M61.5497 51.5952C61.5497 51.5952 61.0828 54.4746 60.6938 58.4435C60.3047 62.8793 64.2731 70.0388 60.6938 75.7197L56.5697 74.0855C56.5697 74.0855 56.9588 72.4512 56.2584 69.8832C55.4803 67.3929 55.0134 65.0582 55.1691 63.8909C55.1691 63.8909 55.4025 59.1439 53.7684 56.3423C53.3794 55.7197 52.9903 55.0193 52.5234 54.2411" fill="black"/>
<path d="M56.025 60.6226C56.1028 58.6771 57.0366 62.5681 57.5034 63.4241C58.2038 64.8249 61.1606 65.9922 62.4834 67.0039C63.9619 68.1712 64.74 70.1168 64.8956 74.1634C65.0513 78.288 66.8409 88.0156 68.0081 90.5059C69.0975 92.9961 72.5212 98.288 70.1869 100.156C67.8525 101.946 64.9734 101.868 62.9503 100.311C61.1606 98.9105 59.1375 95.0195 57.5813 89.572C56.4919 85.8366 55.7137 81.1673 54.5466 77.5097C54.1575 76.3424 53.7684 75.642 52.9125 74.7082C52.1344 73.8522 49.0997 73.8522 49.4887 72.4514C49.5666 72.0623 49.8778 71.751 50.1113 71.5175C52.0566 69.6498 52.0566 68.0156 53.8462 66.1479C55.7916 64.0467 56.4919 63.8911 56.1028 61.323C56.025 61.0117 56.025 60.8561 56.025 60.6226Z" fill="#EE0000"/>
<path d="M67.1522 90.8171C73.1438 87.9378 77.8126 82.7238 79.6022 81.1673C79.6022 81.1673 81.0807 80.7782 82.7926 81.6343C84.5044 82.4903 84.1932 85.9144 84.1932 85.9144C84.1932 85.9144 82.6369 86.3813 81.3141 88.0934C80.4582 89.1829 75.945 94.8638 73.2994 97.6654C72.21 98.8327 70.8872 100 69.9535 100.467C68.3194 101.401 66.6854 101.479 64.8957 101.09C63.8063 100.856 62.4835 100.078 61.7832 98.9883C60.1491 96.3424 67.1522 90.8171 67.1522 90.8171Z" fill="#EE0000"/>
<path d="M68.7084 93.7742C68.5528 93.7742 68.475 93.6964 68.475 93.5408C68.2416 92.14 68.0081 91.284 67.9303 91.284C67.8525 91.1283 67.9303 91.0505 68.0859 90.9727C68.2416 90.8948 68.3194 90.9727 68.3972 91.1283C68.3972 91.1283 68.7084 92.0622 68.9419 93.4629C69.0197 93.6186 68.8641 93.7742 68.7084 93.7742Z" fill="#A60000"/>
<path d="M56.7253 61.323V61.0117C54.8578 61.4786 51.3563 64.1246 51.3563 64.1246L48.8663 67.0039L51.9788 68.1712C53.8463 67.0039 56.4141 65.1362 57.4256 63.0351C57.1922 62.646 56.9588 61.9456 56.7253 61.323Z" fill="#A60000"/>
<path d="M60.2269 57.6654C60.4604 56.965 60.6938 56.1868 60.6938 55.253C60.6938 55.253 61.4719 52.2958 61.9388 48.9495C62.0166 48.0935 63.5729 47.9378 63.8841 48.6382C64.1954 49.3386 64.74 49.6499 64.9735 49.0273C65.1291 48.4047 65.5182 47.2374 66.1407 46.8483C66.7632 46.4592 67.3857 44.9028 67.3857 44.9028C67.9304 43.9689 67.8525 42.8016 67.8525 42.8016C67.7747 40.7783 62.9504 36.0312 57.5035 36.2647C55.7138 36.3425 53.8463 36.8094 52.4457 37.9767C49.8779 40.0779 49.411 43.7355 49.4888 46.8483C49.4888 48.6382 49.2554 54.3191 49.0219 56.1868C48.2438 62.7238 46.5319 63.4242 43.2638 67.7043C39.9957 71.9845 37.4279 78.0545 37.9725 83.1907C38.5172 88.3269 42.33 90.4281 44.1197 90.5837C45.8316 90.6615 47.1544 89.4942 47.31 87.6265C47.4657 85.7588 44.8979 80.7783 45.5982 76.965C46.2985 73.074 49.3332 68.9495 53.9241 65.4475C58.4372 61.8678 59.4488 60.7783 60.2269 57.6654Z" fill="black"/>
<path d="M63.9619 48.9496C63.9619 48.9496 63.8841 47.8601 63.0282 47.5488C62.1722 47.2375 61.3941 48.5605 61.6275 50.2725C61.7832 51.9846 63.2616 52.6071 63.2616 52.6071" fill="#F7C8BB"/>
<path d="M66.6075 46.2258C66.9966 45.6811 67.3078 44.9807 67.3078 44.9807C67.8525 44.0468 67.7747 42.8795 67.7747 42.8795C67.6969 40.8562 62.8725 36.1091 57.4257 36.3425C57.27 36.3425 57.0366 36.3425 56.8032 36.3425C58.3594 36.2647 65.4403 38.0546 66.6075 46.2258Z" fill="#292929"/>
<path d="M67.4635 48.4046C67.3079 48.4046 67.1522 48.3268 67.23 48.1712C67.23 48.0155 67.3079 47.9377 67.4635 47.9377C67.6969 47.9377 67.8525 47.9377 67.9304 47.8599C68.0082 47.7821 68.1638 47.8599 68.2416 47.9377C68.3194 48.0155 68.2416 48.1712 68.1638 48.249C67.9304 48.4046 67.6969 48.4046 67.4635 48.4046Z" fill="black"/>
<path d="M68.2416 46.2258C68.086 46.0701 67.7748 45.9923 67.4635 46.3036C67.4635 46.3036 67.6191 45.8367 67.9304 45.681C68.2416 45.6032 68.3194 45.9923 68.2416 46.2258Z" fill="black"/>
</g>
<defs>
<clipPath id="clip0_905_3545">
<rect width="249" height="200" fill="white"/>
</clipPath>
</defs>
</svg>
